<svg width="794" height="1531" viewBox="0 0 794 1531" fill="none" xmlns="http://www.w3.org/2000/svg">
<path d="M242.777 436.598L396.203 273.988L549.629 436.598L549.643 1082.95L396.218 1243.9L242.792 1082.95L242.777 436.598Z" fill="black"/>
<path d="M390.464 253.087L380.309 17.54L106.95 315.307L243.11 417.882L390.464 253.087Z" fill="black"/>
<path d="M396.63 1271.27L396.63 1517.86L94.1328 1186.4L233.076 1092.34L396.63 1271.27Z" fill="black"/>
<path d="M396.287 246.587L396.287 -4.21336e-05L698.279 328.747L559.332 428.293L396.287 246.587Z" fill="black"/>
<path d="M409.831 1256.74L417.175 1495.34L698.962 1186.4L562.195 1089.96L409.831 1256.74Z" fill="black"/>
<path d="M697.596 343.399L558.775 439.021V1076.83L697.596 1167.19V343.399Z" fill="black"/>
<path d="M94.8184 328.785L233.639 425.995V1077.01L94.8184 1167.19V328.785Z" fill="black"/>
</svg>
