<svg width="794" height="806" viewBox="0 0 794 806" fill="none" xmlns="http://www.w3.org/2000/svg">
<path d="M201.002 162.607L391.589 0L592 162.607L591.998 645.044L391.587 806L201 645.044L201.002 162.607Z" fill="black"/>
<path d="M395.084 364.025C387.955 364.025 381.998 362.462 377.213 359.337C372.46 356.212 368.88 351.932 366.471 346.496C364.094 341.059 362.906 334.891 362.906 327.99V326.964C362.906 319.998 364.16 313.813 366.666 308.41C369.173 302.973 372.77 298.693 377.457 295.568C382.145 292.443 387.743 290.88 394.254 290.88C398.844 290.88 403.043 291.597 406.852 293.029C410.66 294.461 413.818 296.284 416.324 298.498V313.83H408.658L407.633 302.599C406.591 301.785 405.387 301.102 404.02 300.548C402.685 299.995 401.188 299.572 399.527 299.279C397.9 298.986 396.126 298.839 394.205 298.839C389.55 298.839 385.611 300.044 382.389 302.453C379.166 304.829 376.725 308.117 375.064 312.316C373.404 316.515 372.574 321.365 372.574 326.867V327.99C372.574 333.947 373.453 339.041 375.211 343.273C377.001 347.472 379.589 350.679 382.975 352.892C386.393 355.106 390.543 356.212 395.426 356.212C397.704 356.212 399.934 355.936 402.115 355.382C404.296 354.829 406.103 354.113 407.535 353.234L408.609 343.322H416.129V358.751C413.46 360.412 410.27 361.714 406.559 362.658C402.848 363.569 399.023 364.025 395.084 364.025ZM362.418 495V488.847L367.691 488.115L392.545 423.906H400.797L425.211 488.115L430.436 488.847V495H410.025V488.847L415.396 487.919L410.709 474.833H382.242L377.408 487.919L382.779 488.847V495H362.418ZM385.221 466.777H407.779L397.33 437.871L396.744 436.259H396.451L395.865 437.871L385.221 466.777Z" fill="white"/>
</svg>
