<svg width="794" height="806" viewBox="0 0 794 806" fill="none" xmlns="http://www.w3.org/2000/svg">
<path d="M201.002 162.607L391.589 0L592 162.607L591.998 645.044L391.587 806L201 645.044L201.002 162.607Z" fill="black"/>
<path d="M289.084 377.025C281.955 377.025 275.998 375.463 271.213 372.338C266.46 369.213 262.88 364.932 260.471 359.496C258.094 354.06 256.906 347.891 256.906 340.99V339.965C256.906 332.999 258.16 326.814 260.666 321.41C263.173 315.974 266.77 311.693 271.457 308.568C276.145 305.443 281.743 303.881 288.254 303.881C292.844 303.881 297.043 304.597 300.852 306.029C304.66 307.462 307.818 309.285 310.324 311.498V326.83H302.658L301.633 315.6C300.591 314.786 299.387 314.102 298.02 313.549C296.685 312.995 295.188 312.572 293.527 312.279C291.9 311.986 290.126 311.84 288.205 311.84C283.55 311.84 279.611 313.044 276.389 315.453C273.166 317.829 270.725 321.117 269.064 325.316C267.404 329.516 266.574 334.366 266.574 339.867V340.99C266.574 346.947 267.453 352.042 269.211 356.273C271.001 360.473 273.589 363.679 276.975 365.893C280.393 368.106 284.543 369.213 289.426 369.213C291.704 369.213 293.934 368.936 296.115 368.383C298.296 367.829 300.103 367.113 301.535 366.234L302.609 356.322H310.129V371.752C307.46 373.412 304.27 374.714 300.559 375.658C296.848 376.57 293.023 377.025 289.084 377.025ZM318.381 376V369.848L326.34 368.48V307.396L318.381 306.029V299.828H335.959V330.199C337.782 327.66 340.012 325.691 342.648 324.291C345.285 322.891 348.215 322.191 351.438 322.191C357.102 322.191 361.496 323.884 364.621 327.27C367.746 330.655 369.309 335.863 369.309 342.895V368.48L377.268 369.848V376H351.73V369.848L359.689 368.48V342.797C359.689 338.435 358.745 335.212 356.857 333.129C355.002 331.046 352.219 330.004 348.508 330.004C345.871 330.004 343.462 330.639 341.281 331.908C339.133 333.145 337.359 334.838 335.959 336.986V368.48L343.918 369.848V376H318.381ZM400.949 377.025C395.448 377.025 391.265 375.691 388.4 373.021C385.536 370.32 384.104 366.527 384.104 361.645C384.104 356.632 386.154 352.611 390.256 349.584C394.357 346.524 400.054 344.994 407.346 344.994H416.77V339.818C416.77 336.628 415.793 334.154 413.84 332.396C411.919 330.639 409.201 329.76 405.686 329.76C403.472 329.76 401.551 330.036 399.924 330.59C398.296 331.111 396.815 331.843 395.48 332.787L394.455 340.16H387.033V328.051C389.41 326.13 392.176 324.682 395.334 323.705C398.492 322.696 401.991 322.191 405.832 322.191C412.245 322.191 417.274 323.721 420.92 326.781C424.566 329.841 426.389 334.219 426.389 339.916V365.355C426.389 366.039 426.389 366.706 426.389 367.357C426.421 368.008 426.47 368.66 426.535 369.311L431.662 369.848V376H417.844C417.551 374.568 417.323 373.282 417.16 372.143C416.997 371.003 416.883 369.864 416.818 368.725C414.963 371.101 412.635 373.087 409.836 374.682C407.069 376.244 404.107 377.025 400.949 377.025ZM402.365 368.969C405.555 368.969 408.469 368.204 411.105 366.674C413.742 365.144 415.63 363.305 416.77 361.156V351.586H407.004C402.577 351.586 399.257 352.644 397.043 354.76C394.829 356.876 393.723 359.236 393.723 361.84C393.723 364.151 394.439 365.925 395.871 367.162C397.303 368.367 399.468 368.969 402.365 368.969ZM463.01 377.025C458.127 377.025 453.911 375.886 450.363 373.607C446.848 371.296 444.13 368.122 442.209 364.086C440.288 360.017 439.328 355.378 439.328 350.17V349.096C439.328 343.887 440.288 339.265 442.209 335.229C444.13 331.16 446.848 327.969 450.363 325.658C453.911 323.347 458.094 322.191 462.912 322.191C467.795 322.191 471.994 323.347 475.51 325.658C479.058 327.969 481.792 331.143 483.713 335.18C485.633 339.216 486.594 343.855 486.594 349.096V350.17C486.594 355.411 485.633 360.066 483.713 364.135C481.792 368.171 479.074 371.329 475.559 373.607C472.043 375.886 467.86 377.025 463.01 377.025ZM463.01 369.506C466.07 369.506 468.625 368.676 470.676 367.016C472.759 365.323 474.322 363.028 475.363 360.131C476.438 357.201 476.975 353.881 476.975 350.17V349.096C476.975 345.385 476.438 342.081 475.363 339.184C474.322 336.254 472.759 333.959 470.676 332.299C468.592 330.606 466.005 329.76 462.912 329.76C459.852 329.76 457.281 330.606 455.197 332.299C453.114 333.959 451.551 336.254 450.51 339.184C449.468 342.081 448.947 345.385 448.947 349.096V350.17C448.947 353.881 449.468 357.201 450.51 360.131C451.551 363.028 453.114 365.323 455.197 367.016C457.313 368.676 459.917 369.506 463.01 369.506ZM515.402 377.025C511.854 377.025 508.534 376.667 505.441 375.951C502.349 375.235 499.061 374.128 495.578 372.631L495.48 360.082H502.756L504.562 367.65C506.385 368.399 508.143 368.952 509.836 369.311C511.561 369.636 513.417 369.799 515.402 369.799C519.309 369.799 522.108 369.05 523.801 367.553C525.493 366.055 526.34 364.2 526.34 361.986C526.34 359.903 525.477 358.145 523.752 356.713C522.059 355.248 518.967 354.011 514.475 353.002C508.094 351.537 503.391 349.584 500.363 347.143C497.368 344.669 495.871 341.381 495.871 337.279C495.871 334.415 496.701 331.859 498.361 329.613C500.021 327.335 502.333 325.528 505.295 324.193C508.257 322.859 511.708 322.191 515.646 322.191C519.65 322.191 523.068 322.647 525.9 323.559C528.765 324.47 531.255 325.691 533.371 327.221L533.859 339.281H526.633L525.07 332.25C523.931 331.404 522.58 330.753 521.018 330.297C519.455 329.841 517.665 329.613 515.646 329.613C512.652 329.613 510.21 330.313 508.322 331.713C506.467 333.113 505.539 334.87 505.539 336.986C505.539 338.223 505.799 339.298 506.32 340.209C506.874 341.12 507.915 341.951 509.445 342.699C510.975 343.415 513.221 344.132 516.184 344.848C523.54 346.573 528.667 348.77 531.564 351.439C534.494 354.109 535.959 357.396 535.959 361.303C535.959 365.762 534.299 369.506 530.979 372.533C527.691 375.528 522.499 377.025 515.402 377.025ZM256.418 508V501.848L261.691 501.115L286.545 436.906H294.797L319.211 501.115L324.436 501.848V508H304.025V501.848L309.396 500.92L304.709 487.834H276.242L271.408 500.92L276.779 501.848V508H256.418ZM279.221 479.777H301.779L291.33 450.871L290.744 449.26H290.451L289.865 450.871L279.221 479.777ZM359.592 509.025C356.141 509.025 353.146 508.374 350.607 507.072C348.068 505.738 345.952 503.785 344.26 501.213L343.381 508H335.08V439.396L327.121 438.029V431.828H344.699V461.418C346.359 459.074 348.41 457.284 350.852 456.047C353.326 454.81 356.206 454.191 359.494 454.191C363.856 454.191 367.567 455.38 370.627 457.756C373.719 460.1 376.079 463.404 377.707 467.668C379.367 471.932 380.197 476.896 380.197 482.561V483.586C380.197 488.664 379.367 493.107 377.707 496.916C376.079 500.725 373.719 503.703 370.627 505.852C367.567 507.967 363.889 509.025 359.592 509.025ZM357.15 501.213C361.675 501.213 365.028 499.602 367.209 496.379C369.423 493.156 370.529 488.892 370.529 483.586V482.561C370.529 478.492 370.041 474.927 369.064 471.867C368.088 468.775 366.607 466.366 364.621 464.641C362.635 462.883 360.113 462.004 357.053 462.004C354.09 462.004 351.584 462.72 349.533 464.152C347.515 465.585 345.904 467.505 344.699 469.914V493.254C345.904 495.695 347.531 497.632 349.582 499.064C351.665 500.497 354.188 501.213 357.15 501.213ZM397.971 529.338C397.222 529.338 396.245 529.24 395.041 529.045C393.837 528.882 392.909 528.719 392.258 528.557L393.234 520.988C393.788 521.053 394.553 521.102 395.529 521.135C396.506 521.2 397.173 521.232 397.531 521.232C399.582 521.232 401.242 520.451 402.512 518.889C403.814 517.326 405.018 515.194 406.125 512.492L408.42 506.926L389.719 462.15L384.055 461.369V455.168H406.223V461.369L399.826 462.346L410.129 488.762L412.619 495.646H412.912L425.119 462.346L418.381 461.369V455.168H440.109V461.369L434.641 462.15L413.84 516.105C412.863 518.645 411.675 520.907 410.275 522.893C408.908 524.911 407.215 526.49 405.197 527.629C403.212 528.768 400.803 529.338 397.971 529.338ZM465.109 509.025C461.561 509.025 458.241 508.667 455.148 507.951C452.056 507.235 448.768 506.128 445.285 504.631L445.188 492.082H452.463L454.27 499.65C456.092 500.399 457.85 500.952 459.543 501.311C461.268 501.636 463.124 501.799 465.109 501.799C469.016 501.799 471.815 501.05 473.508 499.553C475.201 498.055 476.047 496.2 476.047 493.986C476.047 491.903 475.184 490.145 473.459 488.713C471.766 487.248 468.674 486.011 464.182 485.002C457.801 483.537 453.098 481.584 450.07 479.143C447.076 476.669 445.578 473.381 445.578 469.279C445.578 466.415 446.408 463.859 448.068 461.613C449.729 459.335 452.04 457.528 455.002 456.193C457.964 454.859 461.415 454.191 465.354 454.191C469.357 454.191 472.775 454.647 475.607 455.559C478.472 456.47 480.962 457.691 483.078 459.221L483.566 471.281H476.34L474.777 464.25C473.638 463.404 472.287 462.753 470.725 462.297C469.162 461.841 467.372 461.613 465.354 461.613C462.359 461.613 459.917 462.313 458.029 463.713C456.174 465.113 455.246 466.87 455.246 468.986C455.246 470.223 455.507 471.298 456.027 472.209C456.581 473.12 457.622 473.951 459.152 474.699C460.682 475.415 462.928 476.132 465.891 476.848C473.247 478.573 478.374 480.77 481.271 483.439C484.201 486.109 485.666 489.396 485.666 493.303C485.666 497.762 484.006 501.506 480.686 504.533C477.398 507.528 472.206 509.025 465.109 509.025ZM515.012 509.025C511.464 509.025 508.143 508.667 505.051 507.951C501.958 507.235 498.671 506.128 495.188 504.631L495.09 492.082H502.365L504.172 499.65C505.995 500.399 507.753 500.952 509.445 501.311C511.171 501.636 513.026 501.799 515.012 501.799C518.918 501.799 521.717 501.05 523.41 499.553C525.103 498.055 525.949 496.2 525.949 493.986C525.949 491.903 525.087 490.145 523.361 488.713C521.669 487.248 518.576 486.011 514.084 485.002C507.704 483.537 503 481.584 499.973 479.143C496.978 476.669 495.48 473.381 495.48 469.279C495.48 466.415 496.311 463.859 497.971 461.613C499.631 459.335 501.942 457.528 504.904 456.193C507.867 454.859 511.317 454.191 515.256 454.191C519.26 454.191 522.678 454.647 525.51 455.559C528.374 456.47 530.865 457.691 532.98 459.221L533.469 471.281H526.242L524.68 464.25C523.54 463.404 522.189 462.753 520.627 462.297C519.064 461.841 517.274 461.613 515.256 461.613C512.261 461.613 509.82 462.313 507.932 463.713C506.076 465.113 505.148 466.87 505.148 468.986C505.148 470.223 505.409 471.298 505.93 472.209C506.483 473.12 507.525 473.951 509.055 474.699C510.585 475.415 512.831 476.132 515.793 476.848C523.15 478.573 528.277 480.77 531.174 483.439C534.104 486.109 535.568 489.396 535.568 493.303C535.568 497.762 533.908 501.506 530.588 504.533C527.3 507.528 522.108 509.025 515.012 509.025Z" fill="white"/>
</svg>
