<svg width="473" height="316" viewBox="0 0 473 316" fill="none" xmlns="http://www.w3.org/2000/svg">
<rect x="287" width="8" height="344" fill="black"/>
<path d="M363 24H371V368H363V24Z" fill="black"/>
<path d="M363 24H371V368H363V24Z" fill="black"/>
<path d="M0 76H8V419H0V76Z" fill="black"/>
<path d="M0 76H8V419H0V76Z" fill="black"/>
<path d="M36 151H44V495H36V151Z" fill="black"/>
<path d="M36 151H44V495H36V151Z" fill="black"/>
<rect x="428" y="42" width="8" height="344" fill="black"/>
<rect x="162" y="101" width="8" height="344" fill="black"/>
<rect x="102" y="254" width="8" height="371" transform="rotate(-90 102 254)" fill="black"/>
<rect x="237" y="179" width="8" height="215" transform="rotate(-90 237 179)" fill="black"/>
<path d="M257.5 135C257.5 135 261.117 140.219 263.5 143.164C265.7 145.883 269 149.5 269 149.5C269 149.5 265.7 153.117 263.5 155.836C261.117 158.781 257.5 164 257.5 164C257.5 164 253.883 158.781 251.5 155.836C249.3 153.117 246 149.5 246 149.5C246 149.5 249.3 145.883 251.5 143.164C253.883 140.219 257.5 135 257.5 135Z" fill="black"/>
<path d="M295 171H363V24H371V171H428V42H436V171H452V179H436V246H473V254H436V282.123L428 282.068V254H371V281.678L363 281.622V254H295V281.156L287 281.101V254H170V280.298L162 280.243V254H102V246H162V101H170V246H287V179H237V171H287V0H295V171ZM44 279.434L36 279.379V151H44V279.434ZM8 279.187L0 279.132V76H8V279.187ZM295 246H363V179H295V246ZM371 246H428V179H371V246ZM257.5 135C257.5 135 261.117 140.22 263.5 143.164C265.7 145.883 269 149.5 269 149.5C269 149.5 265.7 153.117 263.5 155.836C261.117 158.78 257.5 164 257.5 164C257.5 164 253.883 158.78 251.5 155.836C249.3 153.117 246 149.5 246 149.5C246 149.5 249.3 145.883 251.5 143.164C253.883 140.22 257.5 135 257.5 135Z" fill="url(#paint0_linear_76_142)"/>
<defs>
<linearGradient id="paint0_linear_76_142" x1="268.253" y1="173.666" x2="261.126" y2="-185.852" gradientUnits="userSpaceOnUse">
<stop stop-color="#D9D9D9" stop-opacity="0"/>
<stop offset="1" stop-color="#FB8E8E"/>
</linearGradient>
</defs>
</svg>
