<svg width="2048" height="2048" viewBox="0 0 2048 2048" fill="none" xmlns="http://www.w3.org/2000/svg">
<path d="M1066.23 1412.99C1069.73 1413.74 1073.28 1414.49 1076.86 1415.24L1078.28 1415.54L1079.58 1416.18C1088.71 1420.68 1099.09 1427.45 1104.18 1436.59C1106.97 1441.62 1108.43 1447.91 1106.4 1454.62C1104.46 1461.03 1099.86 1466.03 1094.29 1469.92C1083.44 1477.49 1065.05 1483.54 1037.64 1488.26C1009.82 1493.05 971.27 1496.68 918.896 1498.49C912.549 1498.71 907.225 1493.74 907.006 1487.4C906.787 1481.05 911.754 1475.73 918.101 1475.51C969.928 1473.72 1007.34 1470.14 1033.74 1465.59C1060.57 1460.97 1074.67 1455.56 1081.13 1451.06C1083.2 1449.61 1083.99 1448.59 1084.27 1448.16C1084.23 1448.06 1084.16 1447.93 1084.08 1447.77C1082.66 1445.22 1078.19 1441.32 1070.66 1437.44C1066.68 1436.6 1062.74 1435.76 1058.86 1434.93L1073.51 1420.27L1066.23 1412.99ZM985.347 1417.93C1007.75 1423.53 1032.21 1429.2 1058.86 1434.93L1028.26 1465.53L983.003 1420.27L985.347 1417.93ZM845.172 1269.52C900.808 1272.78 950.032 1273.38 993.201 1271.99L1013.47 1294.19C964.88 1296.53 908.607 1296.26 844.194 1292.5C820.693 1292.54 802.403 1296.71 793.155 1302.51C788.658 1305.33 787.927 1307.46 787.813 1308.2C787.708 1308.9 787.637 1311.65 792.251 1316.94C801.817 1327.9 825.648 1342.84 872.084 1360.08C904.956 1372.28 948.331 1385.34 1004.35 1398.92L985.347 1417.93C935.132 1405.38 895.231 1393.2 864.08 1381.64C817.319 1364.28 788.593 1347.73 774.922 1332.06C767.918 1324.04 763.557 1314.7 765.077 1304.74C766.589 1294.83 773.399 1287.75 780.939 1283.02C795.73 1273.75 819.397 1269.5 844.499 1269.5H844.836L845.172 1269.52ZM1066.23 1412.99C1044.07 1408.25 1023.48 1403.56 1004.35 1398.92L1028.26 1375.02L1066.23 1412.99ZM1024.23 1305.98L1013.47 1294.19C1017.1 1294.02 1020.68 1293.83 1024.23 1293.63V1305.98ZM1035.48 1293.65L1035.45 1292.93C1035.7 1292.91 1035.94 1292.9 1036.18 1292.88L1035.48 1293.65ZM1035.45 1292.93C1031.76 1293.18 1028.02 1293.41 1024.23 1293.63V1270.59C1027.78 1270.38 1031.29 1270.16 1034.75 1269.92L1035.45 1292.93ZM1161.34 1155.66C1182.14 1159.56 1203.87 1163.57 1226.55 1167.68L1227.54 1167.86L1228.49 1168.21C1239.83 1172.41 1249.38 1178.11 1255.7 1185.61C1262.35 1193.5 1265.22 1203.25 1262.71 1213.55C1260.35 1223.23 1253.63 1231.83 1244.57 1239.25C1235.4 1246.75 1222.95 1253.77 1207.42 1260.14C1170.75 1275.18 1114.41 1287.56 1036.18 1292.88L1058.89 1267.99C1122.55 1262.09 1168.52 1251.23 1198.7 1238.86C1212.89 1233.04 1223.14 1227.06 1230 1221.44C1236.98 1215.74 1239.64 1211.09 1240.36 1208.11C1240.94 1205.74 1240.6 1203.38 1238.12 1200.43C1235.4 1197.21 1230.16 1193.47 1221.42 1190.13C1193.95 1185.14 1167.88 1180.31 1143.13 1175.63L1161.34 1155.66ZM868.893 1117.57C905.406 1126.66 949.729 1136.74 1003.13 1147.9L1024.23 1170.98V1270.59C1014.25 1271.17 1003.91 1271.64 993.201 1271.99L858.62 1124.52L868.893 1117.57ZM1038.6 1155.2C1070.48 1161.67 1105.25 1168.47 1143.13 1175.63L1058.89 1267.99C1051.11 1268.71 1043.06 1269.36 1034.75 1269.92L1031.46 1163.03L1038.6 1155.2ZM1019.53 1151.31C1022 1151.82 1024.5 1152.33 1027.01 1152.84L1024 1156L1019.53 1151.31ZM1189.75 1124.52L1161.34 1155.66C1123.47 1148.55 1088.66 1141.8 1056.7 1135.39L1114.87 1071.72L1189.75 1124.52ZM1045.75 1133.18C1049.36 1133.91 1053.01 1134.65 1056.7 1135.39L1038.6 1155.2C1034.69 1154.41 1030.83 1153.62 1027.01 1152.84L1045.75 1133.18ZM976.465 1118.73C981.403 1119.79 986.431 1120.87 991.55 1121.96L1019.53 1151.31C1013.97 1150.16 1008.5 1149.03 1003.13 1147.9L976.465 1118.73ZM1108 1067.88L1045.75 1133.18C1026.65 1129.32 1008.59 1125.57 991.55 1121.96L940.005 1067.88L940.004 1041.17C1004.6 1037.95 1060.26 1033.97 1108 1029.39L1108 1067.88ZM976.465 1118.73C945.84 1112.13 918.651 1105.95 894.586 1100.17L934.687 1073.02L976.465 1118.73ZM858.996 1044.64C828.557 1045.74 796.444 1046.69 762.58 1047.49C753.353 1048.17 745.503 1049.29 739.75 1050.77C739.487 1050.84 739.232 1050.91 738.983 1050.98C743.325 1053.7 750.12 1057.11 760.187 1061.15C780.737 1069.41 812.517 1079.4 858.996 1091.35V1114L884.169 1097.65C887.574 1098.48 891.046 1099.32 894.586 1100.17L868.893 1117.57C813.019 1103.65 775.437 1092.07 751.61 1082.49C737.412 1076.79 727.022 1071.39 720.528 1066.02C717.312 1063.36 714.072 1059.92 712.37 1055.53C710.402 1050.45 710.875 1045.01 713.793 1040.4C716.298 1036.45 720.043 1033.98 723.152 1032.41C726.427 1030.75 730.176 1029.49 734.012 1028.5C741.698 1026.52 751.164 1025.26 761.158 1024.53L761.443 1024.51L761.729 1024.5C795.934 1023.7 828.33 1022.73 858.996 1021.62V1044.64ZM1189 1114L1113 1064.53V1028.91C1133.61 1026.89 1152.72 1024.75 1170.41 1022.52C1176.78 1021.71 1182.97 1020.89 1189 1020.06V1114ZM934.996 1064.63L884.169 1097.65C875.336 1095.49 866.95 1093.39 858.996 1091.35V1044.64C885.591 1043.67 910.907 1042.6 934.996 1041.42V1064.63ZM940.004 1041.17C938.34 1041.26 936.671 1041.34 934.996 1041.42V1018.39C936.671 1018.31 938.34 1018.23 940.003 1018.14L940.004 1041.17ZM1113 1028.91C1111.34 1029.07 1109.67 1029.23 1108 1029.39L1107.99 1006.28C1109.67 1006.12 1111.34 1005.96 1113 1005.8V1028.91ZM858.996 786.016C882.138 793.513 907.425 801.324 934.996 809.46V1018.39C910.93 1019.57 885.615 1020.65 858.996 1021.62V786.016ZM1189 853.617C1211.34 859.137 1234.52 864.773 1258.57 870.523L1268.16 872.812L1268.57 872.91L1268.97 873.037C1303.43 883.95 1337.04 898.407 1355.49 915.169C1364.66 923.495 1372.46 934.588 1371.09 947.856C1369.72 961.122 1359.7 971.526 1345.75 979.764C1319.67 995.166 1270.1 1008.85 1189 1020.06V996.838C1267.83 985.753 1312.46 972.712 1334.05 959.96C1345.85 952.992 1347.98 947.778 1348.21 945.493C1348.45 943.209 1347.31 938.814 1340.03 932.195C1325.63 919.116 1296.46 905.899 1262.41 895.085C1237.01 889.035 1212.54 883.11 1189 877.307V853.617ZM939.999 810.933C988.728 825.24 1044.48 840.545 1107.99 856.909L1107.99 1006.28C1060.47 1010.89 1004.83 1014.89 940.003 1018.14L939.999 810.933ZM1113 858.197C1137.2 864.414 1162.52 870.783 1189 877.307V996.838C1182.1 997.808 1174.95 998.763 1167.52 999.701C1150.7 1001.83 1132.55 1003.86 1113 1005.8V858.197ZM1107.99 833.155C1109.65 833.585 1111.32 834.015 1113 834.447V858.197C1111.32 857.767 1109.65 857.337 1107.99 856.909V833.155ZM1189 853.617C1162.49 847.067 1137.17 840.678 1113 834.447V715.351L1189 663.001V853.617ZM1107.99 714.024L1107.99 833.155C1044.22 816.668 988.489 801.288 939.998 786.955L939.997 714.024L1023.99 625L1107.99 714.024ZM934.996 785.472C936.655 785.965 938.322 786.459 939.998 786.955L939.999 810.933C938.323 810.441 936.655 809.95 934.996 809.46V785.472ZM803.915 605.507C839.598 606.798 872.502 607.32 902.794 607.147L881.67 630.157C857.163 630.042 831.141 629.501 803.537 628.507C756.64 630.348 711.998 635.665 683.862 645.147C669.25 650.071 661.804 655.259 659.238 659.246C658.283 660.731 658.092 661.889 658.344 663.268C658.658 664.99 659.871 667.946 663.572 672.169C671.116 680.777 686.435 691.779 712.882 705.04C739.055 718.163 775.15 733.029 823.226 749.763C834.495 753.685 846.41 757.704 858.996 761.825V786.016C843.619 781.035 829.189 776.193 815.666 771.486C767.078 754.574 729.966 739.336 702.573 725.6C675.454 712.002 656.844 699.388 646.275 687.33C640.921 681.22 637.03 674.579 635.719 667.405C634.345 659.888 636.004 652.849 639.896 646.8C647.027 635.72 661.271 628.49 676.517 623.352C708.018 612.736 755.599 607.35 803.053 605.508L803.484 605.492L803.915 605.507ZM934.996 708.22V785.472C907.313 777.246 882.031 769.367 858.996 761.825V655L934.996 708.22ZM1189.37 654.979L1113.3 709.477L1036.25 623.609C1075.53 619.481 1108.01 613.512 1134.47 605.984C1137.11 605.232 1139.7 604.462 1142.24 603.673L1189.37 654.979ZM940.18 703.779L865.637 647.623L881.67 630.157C930.075 630.384 972.574 628.942 1009.7 626.033L940.18 703.779ZM1024.04 609.999L1036.25 623.609C1027.73 624.505 1018.88 625.313 1009.7 626.033L1020.85 613.559L1020.36 602.056C1021.59 601.944 1022.82 601.829 1024.04 601.713V609.999ZM1020.36 602.056C986.489 605.122 947.483 606.892 902.794 607.147L1015.29 484.604L1020.36 602.056ZM1021.6 309.155C1024.72 303.856 1031.44 301.985 1036.83 304.808L1037.34 305.095L1041.77 307.723C1087.54 335.071 1134.93 368.624 1171.25 403.584C1189.99 421.627 1206.07 440.322 1217.43 459.004C1228.75 477.615 1235.85 496.993 1235.4 516.135C1234.48 554.833 1203.77 584.567 1142.24 603.673L1124.89 584.779C1125.99 584.475 1127.09 584.171 1128.18 583.862C1192.48 565.567 1211.83 539.874 1212.4 515.589C1212.71 502.442 1207.81 487.452 1197.78 470.954C1187.79 454.527 1173.18 437.37 1155.3 420.155C1120.65 386.803 1074.83 354.272 1029.99 327.478L1025.65 324.904L1025.15 324.589C1020.08 321.236 1018.47 314.453 1021.6 309.155ZM1124.89 584.779C1098.26 592.072 1064.97 597.852 1024.04 601.713V475L1124.89 584.779Z" fill="black"/>
<path d="M1521.59 1491L1274 1662.75H1473.19L1521.59 1491Z" fill="#131313"/>
<path d="M503 1491L750.592 1662.75H551.406L503 1491Z" fill="#131313"/>
<path d="M412 1494L659.592 1665.75H460.406L412 1494Z" fill="#1E1E1E"/>
<path d="M1632.59 1494L1385 1665.75H1584.19L1632.59 1494Z" fill="black"/>
<path d="M1094.76 1566.5H953.832L926 1527H1122.59L1094.76 1566.5Z" fill="black"/>
<path d="M821.027 1608.72L839.875 1575H1583V1666H1370.55L1370.72 1665.7L1333.7 1645L1321.96 1666H465V1575H760.69L821.027 1608.72Z" fill="black"/>
</svg>
