<svg width="1221" height="1400" viewBox="0 0 1221 1400" fill="none" xmlns="http://www.w3.org/2000/svg">
<path d="M654.23 1146.49C657.735 1147.24 661.278 1147.99 664.861 1148.75L666.281 1149.04L667.583 1149.69C676.712 1154.19 687.093 1160.96 692.176 1170.1C694.973 1175.12 696.433 1181.42 694.403 1188.12C692.462 1194.53 687.863 1199.53 682.294 1203.42C671.445 1210.99 653.045 1217.04 625.642 1221.76C597.817 1226.55 559.27 1230.19 506.896 1231.99C500.549 1232.21 495.225 1227.25 495.006 1220.9C494.787 1214.55 499.754 1209.23 506.101 1209.01C557.928 1207.22 595.336 1203.64 621.74 1199.09C648.567 1194.47 662.674 1189.07 669.129 1184.56C671.203 1183.11 671.993 1182.09 672.267 1181.66C672.225 1181.56 672.165 1181.44 672.075 1181.27C670.655 1178.72 666.191 1174.82 658.656 1170.94C654.675 1170.11 650.742 1169.27 646.855 1168.43L661.513 1153.77L654.23 1146.49ZM573.347 1151.43C595.75 1157.03 620.207 1162.7 646.855 1168.43L616.258 1199.03L571.003 1153.77L573.347 1151.43ZM433.172 1003.02C488.809 1006.28 538.032 1006.89 581.202 1005.49L601.468 1027.69C552.88 1030.03 496.607 1029.76 432.194 1026C408.693 1026.04 390.403 1030.21 381.155 1036.01C376.658 1038.83 375.927 1040.96 375.813 1041.71C375.708 1042.4 375.637 1045.15 380.251 1050.44C389.817 1061.4 413.648 1076.34 460.084 1093.58C492.956 1105.78 536.331 1118.84 592.353 1132.42L573.347 1151.43C523.132 1138.88 483.232 1126.71 452.08 1115.14C405.319 1097.79 376.593 1081.23 362.922 1065.56C355.918 1057.54 351.557 1048.2 353.077 1038.24C354.589 1028.33 361.399 1021.25 368.939 1016.52C383.73 1007.25 407.397 1003 432.499 1003H432.836L433.172 1003.02ZM654.23 1146.49C632.074 1141.75 611.477 1137.06 592.353 1132.42L616.258 1108.52L654.23 1146.49ZM612.228 1039.49L601.468 1027.69C605.097 1027.52 608.684 1027.33 612.228 1027.13V1039.49ZM623.476 1027.16L623.454 1026.43C623.697 1026.41 623.939 1026.4 624.182 1026.38L623.476 1027.16ZM623.454 1026.43C619.761 1026.68 616.019 1026.91 612.228 1027.13V1004.09C615.781 1003.88 619.287 1003.66 622.746 1003.43L623.454 1026.43ZM749.342 889.161C770.142 893.062 791.866 897.07 814.552 901.186L815.542 901.366L816.486 901.715C827.827 905.908 837.38 911.608 843.704 919.113C850.353 927.003 853.221 936.747 850.712 947.05C848.353 956.736 841.629 965.335 832.569 972.748C823.397 980.252 810.953 987.273 795.425 993.641C758.75 1008.68 702.407 1021.06 624.182 1026.38L646.886 1001.49C710.549 995.591 756.523 984.736 786.698 972.362C800.888 966.543 811.14 960.563 818.005 954.947C824.982 949.238 827.637 944.595 828.364 941.609C828.941 939.241 828.601 936.882 826.116 933.933C823.399 930.709 818.157 926.976 809.421 923.629C781.954 918.644 755.876 913.813 731.124 909.134L749.342 889.161ZM456.892 851.068C493.405 860.158 537.729 870.242 591.131 881.405L612.228 904.487V1004.09C602.255 1004.67 591.915 1005.14 581.202 1005.49L446.62 858.023L456.892 851.068ZM626.599 888.707C658.479 895.172 693.248 901.975 731.124 909.134L646.886 1001.49C639.104 1002.21 631.059 1002.86 622.746 1003.43L619.456 896.527L626.599 888.707ZM607.527 884.808C610.003 885.318 612.497 885.829 615.01 886.343L612.001 889.502L607.527 884.808ZM777.746 858.02L749.342 889.161C711.466 882.057 676.657 875.305 644.702 868.892L702.871 805.224L777.746 858.02ZM633.749 866.685C637.362 867.416 641.013 868.152 644.702 868.892L626.599 888.707C622.693 887.914 618.83 887.125 615.01 886.343L633.749 866.685ZM564.466 852.232C569.404 853.297 574.432 854.371 579.551 855.458L607.527 884.808C601.969 883.663 596.504 882.528 591.131 881.405L564.466 852.232ZM695.997 801.381L633.749 866.685C614.645 862.819 596.595 859.076 579.551 855.458L528.005 801.381L528.004 774.674C592.595 771.452 648.26 767.474 695.996 762.894L695.997 801.381ZM564.466 852.232C533.84 845.63 506.65 839.451 482.585 833.673L522.687 806.524L564.466 852.232ZM446.995 778.137C416.556 779.239 384.443 780.194 350.58 780.991C341.353 781.677 333.503 782.793 327.75 784.275C327.487 784.343 327.231 784.411 326.983 784.479C331.326 787.198 338.119 790.61 348.187 794.656C368.737 802.914 400.517 812.905 446.995 824.846V847.502L472.168 831.149C475.573 831.981 479.045 832.824 482.585 833.673L456.892 851.068C401.018 837.157 363.437 825.572 339.61 815.997C325.412 810.291 315.022 804.892 308.528 799.523C305.312 796.864 302.072 793.425 300.37 789.03C298.402 783.949 298.875 778.513 301.793 773.907C304.298 769.952 308.044 767.484 311.152 765.908C314.427 764.248 318.176 762.991 322.012 762.003C329.698 760.022 339.164 758.764 349.158 758.032L349.443 758.011L349.729 758.004C383.934 757.201 416.329 756.235 446.995 755.122V778.137ZM776.997 847.502L700.997 798.034V762.409C721.613 760.389 740.722 758.257 758.406 756.022C764.779 755.217 770.975 754.396 776.997 753.563V847.502ZM522.995 798.133L472.168 831.149C463.335 828.99 454.95 826.89 446.995 824.846V778.137C473.59 777.175 498.906 776.1 522.995 774.921V798.133ZM528.004 774.674C526.34 774.757 524.671 774.839 522.995 774.921V751.893C524.67 751.811 526.34 751.728 528.003 751.645L528.004 774.674ZM700.997 762.409C699.34 762.571 697.673 762.733 695.996 762.894L695.995 739.786C697.672 739.623 699.34 739.461 700.997 739.297V762.409ZM446.995 519.517C470.137 527.014 495.424 534.826 522.995 542.962V751.893C498.929 753.076 473.614 754.155 446.995 755.122V519.517ZM776.997 587.119C799.337 592.639 822.519 598.275 846.569 604.025L856.163 606.314L856.571 606.412L856.972 606.539C891.428 617.453 925.037 631.909 943.49 648.671C952.655 656.997 960.463 668.09 959.093 681.358C957.722 694.624 947.695 705.028 933.747 713.266C907.669 728.668 858.103 742.347 776.997 753.563V730.34C855.825 719.255 900.461 706.214 922.051 693.462C933.848 686.495 935.978 681.28 936.214 678.995C936.449 676.711 935.313 672.316 928.026 665.697C913.628 652.618 884.457 639.401 850.412 628.587C825.007 622.537 800.544 616.612 776.997 610.809V587.119ZM527.999 544.436C576.729 558.743 632.478 574.048 695.992 590.412L695.995 739.786C648.474 744.387 592.827 748.397 528.003 751.645L527.999 544.436ZM700.997 591.699C725.201 597.916 750.521 604.285 776.997 610.809V730.34C770.103 731.31 762.948 732.265 755.523 733.203C738.701 735.328 720.55 737.364 700.997 739.297V591.699ZM695.991 566.657C697.654 567.087 699.323 567.518 700.997 567.95V591.699C699.323 591.269 697.655 590.84 695.992 590.412L695.991 566.657ZM776.997 587.119C750.492 580.569 725.173 574.181 700.997 567.95V448.852L776.997 396.502V587.119ZM695.989 447.526L695.991 566.657C632.222 550.17 576.489 534.79 527.998 520.457L527.997 447.526L611.993 358.502L695.989 447.526ZM522.995 518.974C524.654 519.467 526.322 519.961 527.998 520.457L527.999 544.436C526.323 543.944 524.655 543.452 522.995 542.962V518.974ZM391.915 339.009C427.598 340.3 460.5 340.822 490.792 340.649L469.668 363.659C445.161 363.544 419.14 363.003 391.537 362.009C344.64 363.85 299.998 369.167 271.862 378.649C257.25 383.573 249.804 388.761 247.238 392.748C246.282 394.233 246.092 395.391 246.344 396.77C246.658 398.492 247.871 401.448 251.572 405.671C259.116 414.279 274.435 425.281 300.882 438.542C327.055 451.665 363.149 466.531 411.226 483.265C422.495 487.187 434.41 491.206 446.995 495.327V519.517C431.619 514.536 417.189 509.695 403.666 504.988C355.078 488.076 317.966 472.838 290.573 459.102C263.454 445.504 244.844 432.89 234.275 420.832C228.921 414.722 225.03 408.081 223.719 400.907C222.345 393.39 224.004 386.351 227.896 380.302C235.027 369.222 249.271 361.992 264.517 356.854C296.019 346.238 343.599 340.852 391.053 339.01L391.484 338.994L391.915 339.009ZM522.995 441.721V518.974C495.312 510.748 470.03 502.869 446.995 495.327V388.502L522.995 441.721ZM777.373 388.479L701.304 442.978L624.256 357.111C663.532 352.983 696.01 347.014 722.471 339.486C725.114 338.734 727.705 337.963 730.244 337.174L777.373 388.479ZM528.18 437.28L453.636 381.124L469.668 363.659C518.074 363.886 560.572 362.445 597.695 359.536L528.18 437.28ZM612.042 343.5L624.256 357.111C615.726 358.007 606.875 358.816 597.695 359.536L608.851 347.06L608.355 335.558C609.591 335.446 610.82 335.331 612.042 335.215V343.5ZM608.355 335.558C574.489 338.624 535.482 340.394 490.792 340.649L603.292 218.105L608.355 335.558ZM609.596 42.6568C612.723 37.3582 619.438 35.4869 624.827 38.3102L625.344 38.5973L629.767 41.2252C675.538 68.5734 722.934 102.126 759.25 137.087C777.992 155.129 794.075 173.824 805.434 192.506C816.75 211.117 823.85 230.495 823.395 249.637C822.476 288.334 791.766 318.068 730.244 337.174L712.888 318.281C713.995 317.977 715.092 317.672 716.177 317.364C780.482 299.069 799.825 273.376 800.402 249.091C800.714 235.944 795.814 220.954 785.782 204.456C775.794 188.029 761.181 170.872 743.299 153.657C708.654 120.305 662.831 87.7743 617.99 60.9801L613.654 58.4059L613.152 58.0914C608.076 54.7378 606.468 47.9556 609.596 42.6568ZM712.888 318.281C686.259 325.574 652.974 331.354 612.042 335.215V208.501L712.888 318.281Z" fill="black"/>
<path d="M1109.59 1224.5L862.002 1396.25H1061.19L1109.59 1224.5Z" fill="#131313"/>
<path d="M91 1224.5L338.592 1396.25H139.406L91 1224.5Z" fill="#131313"/>
<path d="M0 1227.5L247.592 1399.25H48.4062L0 1227.5Z" fill="#1E1E1E"/>
<path d="M1220.59 1227.5L973.002 1399.25H1172.19L1220.59 1227.5Z" fill="black"/>
<path d="M682.756 1300H541.832L514 1260.5H710.588L682.756 1300Z" fill="black"/>
<path d="M409.027 1342.22L427.875 1308.5H878.288L896.71 1329.78L921.282 1308.5H1171V1399.5H53V1308.5H348.69L409.027 1342.22Z" fill="black"/>
</svg>
