<svg width="1387" height="2052" viewBox="0 0 1387 2052" fill="none" xmlns="http://www.w3.org/2000/svg">
<g clip-path="url(#clip0_944_81)">
<path d="M616.729 2152.73L618.01 2152.97L619.206 2153.49C629.077 2157.74 638.585 2162.69 646.707 2168.21C654.705 2173.64 662.023 2180.07 666.76 2187.53C671.677 2195.26 674.112 2204.72 670.668 2214.67C667.415 2224.07 659.64 2231.74 649.192 2238.12C628.4 2250.82 591.306 2261.9 532.522 2270.75C473.314 2279.67 390.766 2286.52 277.967 2289.93C271.619 2290.12 266.317 2285.13 266.125 2278.78C265.933 2272.43 270.924 2267.13 277.272 2266.94C389.593 2263.54 471.141 2256.74 529.095 2248.01C587.474 2239.21 620.609 2228.63 637.202 2218.49C645.445 2213.46 648.152 2209.41 648.932 2207.15C649.52 2205.45 649.537 2203.31 647.348 2199.86C644.979 2196.14 640.503 2191.8 633.781 2187.23C627.469 2182.94 619.746 2178.84 611.262 2175.11C604.364 2173.84 597.532 2172.58 590.765 2171.31L612.525 2152.27L612.078 2151.88L616.729 2152.73ZM431.77 2139.32C480.221 2149.85 533.118 2160.53 590.765 2171.31L514.753 2237.83L416.982 2152.27L431.77 2139.32ZM612.078 2151.88L607.376 2151.01C551.71 2140.7 500.458 2130.5 453.345 2120.44L514.753 2066.7L612.078 2151.88ZM118.335 1877.46C243.097 1883.86 353.171 1884.87 449.376 1881.84L472.528 1904.05C370.311 1908.01 252.279 1907.35 117.48 1900.44C65.5219 1900.47 22.5469 1908.44 -0.845154 1921.27C-12.6156 1927.73 -17.0817 1934.08 -17.9526 1939.08C-18.7764 1943.8 -17.093 1951.66 -5.71039 1963.07C17.2635 1986.11 71.6184 2015.22 172.249 2047.91C242.676 2070.78 334.934 2095.16 453.345 2120.44L431.77 2139.32C320.771 2115.2 233.109 2091.86 165.142 2069.78C64.4254 2037.06 5.23386 2006.62 -21.9965 1979.31C-35.7153 1965.56 -43.2982 1950.54 -40.6108 1935.13C-37.97 1919.98 -26.1467 1908.92 -11.9077 1901.11C16.6804 1885.42 64.5005 1877.44 117.746 1877.44H118.041L118.335 1877.46ZM506.038 1936.18L472.528 1904.05C483.893 1903.6 495.062 1903.11 506.038 1902.55V1936.18ZM530.34 1912.87L529.931 1901.25C534.426 1900.98 538.886 1900.7 543.312 1900.42L530.34 1912.87ZM529.931 1901.25C522.071 1901.71 514.107 1902.15 506.038 1902.55V1879.52C513.834 1879.13 521.529 1878.71 529.123 1878.25L529.931 1901.25ZM792.951 1660.9C831.359 1667.21 871.229 1673.68 912.609 1680.29L940.524 1684.73L941.409 1684.87L942.261 1685.15C965.408 1692.64 983.698 1702.45 995.423 1714.62C1007.57 1727.24 1012.84 1742.75 1008.22 1759.35C1003.87 1774.98 991.306 1789.44 973.044 1802.52C954.568 1815.75 928.993 1828.47 896.291 1840.21C820.741 1867.32 704.652 1890.04 543.312 1900.42L569.229 1875.55C714.666 1864.57 819.682 1843.27 888.521 1818.56C920.025 1807.26 943.483 1795.4 959.654 1783.82C976.039 1772.09 983.742 1761.51 986.059 1753.19C988.108 1745.82 986.44 1738.45 978.856 1730.58C970.949 1722.37 956.959 1714.17 936.003 1707.3C878.635 1698.19 824.08 1689.35 772.217 1680.79L792.951 1660.9ZM183.572 1572.15C256.455 1587.9 343.518 1605.23 446.861 1624.27L506.038 1680.93V1879.52C487.713 1880.45 468.828 1881.23 449.376 1881.84L148.248 1593.08L183.572 1572.15ZM546.345 1642.23C615.244 1654.43 690.378 1667.27 772.217 1680.79L569.229 1875.55C556.186 1876.54 542.819 1877.44 529.123 1878.25L521.655 1665.88L546.345 1642.23ZM863.634 1593.08L792.951 1660.9C711.131 1647.44 635.946 1634.66 566.934 1622.51L701.869 1493.26L863.634 1593.08ZM481.618 1630.63C494.708 1633.01 508.046 1635.41 521.634 1637.84L505.551 1652.6L481.618 1630.63ZM542.948 1618.27C550.859 1619.67 558.854 1621.09 566.934 1622.51L546.345 1642.23C538.018 1640.76 529.781 1639.29 521.634 1637.84L542.948 1618.27ZM416.546 1595.25C427.441 1597.29 438.528 1599.35 449.813 1601.43L481.618 1630.63C469.833 1628.49 458.248 1626.37 446.861 1624.27L416.546 1595.25ZM687.022 1485.99L542.948 1618.27C510.51 1612.51 479.482 1606.9 449.813 1601.43L324.082 1485.99L324.08 1425.24C463.773 1419.13 584.024 1411.59 687.019 1402.92L687.022 1485.99ZM416.546 1595.25C339.167 1580.77 271.566 1567.33 212.738 1554.87L312.588 1495.71L416.546 1595.25ZM862.019 1573.19L697.824 1479.66V1402C741.682 1398.23 782.351 1394.25 820.005 1390.09C834.442 1388.49 848.444 1386.86 862.019 1385.21V1573.19ZM149.058 1564.58C152.652 1565.38 156.285 1566.19 159.956 1567L149.058 1573.19V1564.58ZM189.877 1549.99C197.345 1551.6 204.965 1553.23 212.738 1554.87L183.572 1572.15C175.528 1570.42 167.657 1568.7 159.956 1567L189.877 1549.99ZM149.058 1431.79C83.0887 1433.88 13.4603 1435.7 -59.9946 1437.21C-80.4966 1438.53 -98.5437 1440.73 -112.231 1443.81C-119.114 1445.36 -124.553 1447.07 -128.52 1448.83C-130.835 1449.85 -132.295 1450.75 -133.177 1451.39C-132.288 1452.48 -130.599 1454.17 -127.515 1456.4C-117.985 1463.3 -99.8305 1472.06 -69.8559 1482.6C-24.3028 1498.62 46.106 1517.95 149.058 1541.02V1564.58C42.5824 1540.84 -30.2827 1520.9 -77.4868 1504.3C-107.833 1493.63 -128.635 1483.98 -140.997 1475.04C-147.081 1470.64 -152.364 1465.53 -155.061 1459.44C-158.196 1452.36 -157.344 1444.99 -152.966 1438.94C-149.22 1433.76 -143.445 1430.29 -137.848 1427.8C-132.006 1425.21 -124.983 1423.11 -117.289 1421.37C-101.876 1417.9 -82.3973 1415.6 -61.2289 1414.24L-60.9789 1414.22L-60.7289 1414.22C13.0209 1412.7 82.8929 1410.88 149.058 1408.78V1431.79ZM313.253 1479.85L189.877 1549.99C175.735 1546.94 162.134 1543.95 149.058 1541.02V1431.79C206.53 1429.97 261.225 1427.93 313.253 1425.7V1479.85ZM324.08 1425.24C320.484 1425.39 316.875 1425.55 313.253 1425.7V1402.68C316.875 1402.53 320.483 1402.37 324.079 1402.21L324.08 1425.24ZM149.058 942.155C198.99 956.355 253.618 971.164 313.253 986.597V1402.68C261.246 1404.92 206.551 1406.95 149.058 1408.78V942.155ZM697.824 1402C694.243 1402.31 690.642 1402.62 687.019 1402.92V1379.84C690.642 1379.53 694.244 1379.22 697.824 1378.92V1402ZM324.068 989.387C429.198 1016.45 549.633 1045.43 687.01 1076.44L687.019 1379.84C584.213 1388.53 463.977 1396.09 324.079 1402.21L324.068 989.387ZM862.019 1091.51C909.236 1101.71 958.182 1112.12 1008.91 1122.74L1029.65 1127.07L1030.01 1127.14L1030.37 1127.24C1104.59 1147.82 1174.63 1174.51 1212.17 1204.35C1230.63 1219.03 1244.61 1237.19 1242.14 1258.18C1239.69 1278.95 1221.79 1296.17 1193.32 1310.88C1139.76 1338.57 1035.8 1364.08 862.019 1385.21V1362.04C1033.86 1341 1133.37 1315.98 1182.76 1290.45C1209.91 1276.42 1218.28 1264.11 1219.3 1255.48C1220.29 1247.06 1214.95 1235.94 1197.86 1222.36C1164.37 1195.73 1098.58 1170.04 1024.59 1149.51C968.268 1137.77 914.101 1126.28 862.019 1115.04V1091.51ZM697.824 1078.88C750.098 1090.64 804.8 1102.69 862.019 1115.04V1362.04C847.68 1363.8 832.837 1365.53 817.477 1367.23C780.579 1371.31 740.75 1375.21 697.824 1378.92V1078.88ZM862.019 1091.51C804.775 1079.14 750.073 1067.07 697.824 1055.3V819.455L862.019 720.476V1091.51ZM687.01 1052.86C690.603 1053.67 694.208 1054.49 697.824 1055.3V1078.88C694.208 1078.06 690.603 1077.25 687.01 1076.44V1052.86ZM687.004 816.947L687.01 1052.86C549.405 1021.76 428.985 992.719 324.068 965.634L324.064 816.947L505.534 648.627L687.004 816.947ZM313.253 962.836C316.84 963.767 320.445 964.699 324.068 965.634V989.387C320.445 988.454 316.84 987.525 313.253 986.597V962.836ZM313.253 805.973V962.836C253.519 947.334 198.894 932.477 149.058 918.242V705.35L313.253 805.973ZM29.5308 622.007C102.524 624.317 170.213 625.332 232.894 625.16L208.757 648.17C152.741 648.055 92.948 647.023 29.188 645.008C-72.5938 648.48 -171.024 658.578 -233.986 677.147C-249.669 681.772 -262.818 686.83 -273.122 692.263C-283.537 697.754 -290.333 703.258 -294.132 708.425C-297.661 713.225 -298.632 717.69 -297.619 722.542C-296.496 727.917 -292.64 735.077 -283.698 744.007C-265.719 761.96 -230.728 783.589 -173.122 808.867C-115.829 834.009 -37.2211 862.318 66.9703 894.056C92.7576 901.911 120.1 909.971 149.058 918.242V942.155C117.626 933.217 88.0542 924.522 60.2681 916.058C-44.3823 884.18 -123.93 855.571 -182.365 829.929C-240.487 804.424 -278.797 781.405 -299.95 760.282C-310.572 749.675 -317.741 738.691 -320.132 727.245C-322.632 715.277 -319.606 704.245 -312.662 694.8C-305.987 685.723 -295.831 678.234 -283.849 671.917C-271.757 665.542 -257.063 659.974 -240.492 655.086C-174.51 635.627 -73.4746 625.48 28.7759 622.008L29.1539 621.995L29.5308 622.007ZM862.833 705.306L698.488 808.348L522.354 636.563C610.155 628.806 682.128 617.379 740.199 602.92C744.243 601.913 748.223 600.888 752.139 599.851L862.833 705.306ZM324.46 797.575L163.411 691.4L208.757 648.17C314.102 648.387 406.087 645.357 485.97 639.499L324.46 797.575ZM505.64 620.261L522.354 636.563C510.515 637.609 498.389 638.589 485.97 639.499L498.748 626.994L498.181 615.502C500.68 615.305 503.166 615.105 505.639 614.903L505.64 620.261ZM498.181 615.502C421.922 621.518 333.91 624.883 232.894 625.16L486.737 383.176L498.181 615.502ZM732.492 581.132C672.892 595.804 598.039 607.328 505.639 614.903V365.014L732.492 581.132ZM511.535 57.2248C514.358 51.7582 520.957 49.5118 526.497 52.0266L527.029 52.2844L531.779 54.7453C631.571 106.607 735.088 170.502 813.856 236.863C853.854 270.56 887.828 305.191 911.673 339.511C935.442 373.721 949.842 408.631 948.92 442.59C947.983 477.144 931.252 508.695 896.999 535.727C865.001 560.978 817.473 582.539 752.139 599.851L732.492 581.132C733.211 580.955 733.928 580.78 734.642 580.602C804.648 563.172 852.46 541.576 882.751 517.672C912.703 494.035 925.21 468.463 925.929 441.966C926.664 414.875 915.138 384.805 892.786 352.634C870.51 320.572 838.166 287.417 799.038 254.452C722.024 189.57 620.11 126.572 521.183 75.1594L516.474 72.7199L515.956 72.4348C510.698 69.3728 508.712 62.6914 511.535 57.2248Z" fill="black"/>
</g>
<defs>
<clipPath id="clip0_944_81">
<rect width="1387" height="2052" fill="white"/>
</clipPath>
</defs>
</svg>
