<svg width="2282" height="1929" viewBox="0 0 2282 1929" fill="none" xmlns="http://www.w3.org/2000/svg">
<g clip-path="url(#clip0_944_81)">
<path d="M630.02 1967.18L631.301 1967.41L632.497 1967.93C642.368 1972.19 651.876 1977.14 659.998 1982.65C667.996 1988.09 675.314 1994.52 680.051 2001.97C684.968 2009.71 687.403 2019.16 683.959 2029.12C680.706 2038.52 672.931 2046.18 662.483 2052.56C641.691 2065.27 604.597 2076.34 545.813 2085.2C486.605 2094.12 404.057 2100.96 291.258 2104.37C284.91 2104.57 279.608 2099.57 279.416 2093.23C279.224 2086.88 284.215 2081.58 290.563 2081.38C402.884 2077.99 484.432 2071.19 542.386 2062.46C600.765 2053.66 633.9 2043.07 650.493 2032.94C658.736 2027.9 661.443 2023.85 662.223 2021.6C662.811 2019.9 662.829 2017.75 660.639 2014.31C658.27 2010.58 653.794 2006.25 647.072 2001.68C640.76 1997.39 633.037 1993.28 624.553 1989.56C617.655 1988.29 610.823 1987.02 604.056 1985.76L625.816 1966.71L625.369 1966.32L630.02 1967.18ZM445.061 1953.77C493.512 1964.3 546.409 1974.97 604.056 1985.76L528.044 2052.28L430.273 1966.71L445.061 1953.77ZM625.369 1966.32L620.667 1965.45C565.001 1955.15 513.749 1944.95 466.636 1934.89L528.044 1881.15L625.369 1966.32ZM131.626 1691.9C256.388 1698.3 366.462 1699.31 462.667 1696.29L485.819 1718.49C383.602 1722.46 265.57 1721.79 130.771 1714.89C78.8129 1714.92 35.8379 1722.88 12.4459 1735.72C0.675452 1742.17 -3.79065 1748.53 -4.66156 1753.52C-5.48534 1758.25 -3.80194 1766.1 7.58063 1777.52C30.5545 1800.55 84.9095 1829.66 185.54 1862.35C255.967 1885.23 348.225 1909.61 466.636 1934.89L445.061 1953.77C334.062 1929.65 246.4 1906.31 178.433 1884.23C77.7164 1851.51 18.5249 1821.06 -8.70551 1793.76C-22.4243 1780 -30.0071 1764.99 -27.3198 1749.57C-24.679 1734.43 -12.8557 1723.36 1.38336 1715.55C29.9714 1699.87 77.7915 1691.89 131.037 1691.89H131.332L131.626 1691.9ZM519.329 1750.62L485.819 1718.49C497.184 1718.05 508.353 1717.55 519.329 1717V1750.62ZM543.631 1727.31L543.222 1715.69C547.717 1715.42 552.177 1715.15 556.603 1714.87L543.631 1727.31ZM543.222 1715.69C535.362 1716.16 527.398 1716.59 519.329 1717V1693.97C527.125 1693.57 534.82 1693.15 542.414 1692.7L543.222 1715.69ZM806.242 1475.34C844.65 1481.66 884.52 1488.12 925.9 1494.73L953.815 1499.18L954.7 1499.32L955.552 1499.59C978.699 1507.08 996.989 1516.89 1008.71 1529.07C1020.87 1541.69 1026.13 1557.2 1021.51 1573.8C1017.16 1589.43 1004.6 1603.89 986.336 1616.97C967.859 1630.2 942.284 1642.92 909.582 1654.66C834.032 1681.77 717.943 1704.48 556.603 1714.87L582.52 1690C727.957 1679.02 832.973 1657.71 901.812 1633.01C933.316 1621.7 956.774 1609.84 972.945 1598.27C989.33 1586.53 997.033 1575.96 999.35 1567.63C1001.4 1560.27 999.731 1552.9 992.147 1545.02C984.24 1536.81 970.25 1528.62 949.294 1521.75C891.926 1512.64 837.371 1503.8 785.508 1495.23L806.242 1475.34ZM196.863 1386.6C269.746 1402.35 356.809 1419.68 460.152 1438.72L519.329 1495.38V1693.97C501.004 1694.9 482.119 1695.68 462.667 1696.29L161.539 1407.53L196.863 1386.6ZM559.636 1456.68C628.535 1468.88 703.669 1481.72 785.508 1495.23L582.52 1690C569.477 1690.98 556.11 1691.89 542.414 1692.7L534.946 1480.33L559.636 1456.68ZM876.925 1407.52L806.242 1475.34C724.422 1461.89 649.237 1449.1 580.225 1436.95L715.16 1307.7L876.925 1407.52ZM494.909 1445.07C507.999 1447.45 521.337 1449.85 534.925 1452.28L518.842 1467.05L494.909 1445.07ZM556.239 1432.71C564.15 1434.12 572.145 1435.53 580.225 1436.95L559.636 1456.68C551.309 1455.2 543.072 1453.74 534.925 1452.28L556.239 1432.71ZM429.837 1409.69C440.732 1411.73 451.819 1413.79 463.104 1415.87L494.909 1445.07C483.124 1442.93 471.539 1440.82 460.152 1438.72L429.837 1409.69ZM700.313 1300.44L556.239 1432.71C523.801 1426.95 492.773 1421.34 463.104 1415.87L337.373 1300.44L337.371 1239.68C477.064 1233.57 597.315 1226.04 700.31 1217.37L700.313 1300.44ZM429.837 1409.69C352.458 1395.21 284.857 1381.77 226.029 1369.32L325.879 1310.16L429.837 1409.69ZM875.31 1387.64L711.115 1294.11V1216.45C754.973 1212.67 795.642 1208.7 833.296 1204.53C847.733 1202.94 861.735 1201.31 875.31 1199.66V1387.64ZM162.349 1379.03C165.943 1379.83 169.576 1380.63 173.247 1381.44L162.349 1387.64V1379.03ZM203.168 1364.43C210.636 1366.04 218.256 1367.67 226.029 1369.32L196.863 1386.6C188.819 1384.86 180.948 1383.14 173.247 1381.44L203.168 1364.43ZM162.349 1246.24C96.3797 1248.33 26.7513 1250.14 -46.7036 1251.65C-67.2056 1252.98 -85.2527 1255.17 -98.9399 1258.26C-105.822 1259.81 -111.262 1261.51 -115.229 1263.27C-117.544 1264.3 -119.004 1265.19 -119.886 1265.84C-118.997 1266.92 -117.308 1268.62 -114.224 1270.85C-104.694 1277.74 -86.5395 1286.51 -56.5649 1297.05C-11.0117 1313.07 59.397 1332.4 162.349 1355.46V1379.03C55.8734 1355.28 -16.9917 1335.35 -64.1957 1318.75C-94.5423 1308.07 -115.344 1298.43 -127.706 1289.48C-133.79 1285.08 -139.073 1279.98 -141.77 1273.88C-144.905 1266.8 -144.053 1259.43 -139.675 1253.38C-135.929 1248.21 -130.154 1244.73 -124.557 1242.25C-118.715 1239.66 -111.692 1237.55 -103.998 1235.82C-88.5854 1232.34 -69.1063 1230.04 -47.9379 1228.68L-47.6879 1228.67L-47.4379 1228.66C26.3119 1227.15 96.1839 1225.33 162.349 1223.23V1246.24ZM326.544 1294.3L203.168 1364.43C189.026 1361.38 175.425 1358.39 162.349 1355.46V1246.24C219.821 1244.42 274.516 1242.38 326.544 1240.15V1294.3ZM337.371 1239.68C333.775 1239.84 330.166 1239.99 326.544 1240.15V1217.13C330.166 1216.97 333.774 1216.82 337.37 1216.66L337.371 1239.68ZM162.349 756.601C212.281 770.801 266.909 785.609 326.544 801.042V1217.13C274.537 1219.36 219.842 1221.4 162.349 1223.23V756.601ZM711.115 1216.45C707.535 1216.75 703.933 1217.06 700.31 1217.37V1194.28C703.933 1193.98 707.535 1193.67 711.115 1193.36V1216.45ZM337.359 803.832C442.489 830.898 562.924 859.877 700.301 890.884L700.31 1194.28C597.504 1202.97 477.268 1210.53 337.37 1216.66L337.359 803.832ZM875.31 905.956C922.527 916.158 971.473 926.568 1022.2 937.183L1042.94 941.513L1043.3 941.589L1043.66 941.689C1117.88 962.262 1187.92 988.954 1225.47 1018.8C1243.93 1033.47 1257.91 1051.64 1255.43 1072.62C1252.98 1093.39 1235.08 1110.62 1206.61 1125.33C1153.05 1153.01 1049.09 1178.52 875.31 1199.66V1176.49C1047.15 1155.45 1146.66 1130.42 1196.05 1104.9C1223.2 1090.86 1231.57 1078.56 1232.59 1069.92C1233.58 1061.5 1228.24 1050.38 1211.15 1036.8C1177.66 1010.17 1111.87 984.486 1037.88 963.952C981.559 952.216 927.392 940.729 875.31 929.488V905.956ZM711.115 893.323C763.389 905.086 818.091 917.139 875.31 929.488V1176.49C860.971 1178.24 846.128 1179.97 830.768 1181.67C793.87 1185.75 754.041 1189.66 711.115 1193.36V893.323ZM875.31 905.956C818.066 893.588 763.364 881.519 711.115 869.745V633.901L875.31 534.921V905.956ZM700.301 867.306C703.894 868.118 707.499 868.93 711.115 869.745V893.323C707.499 892.51 703.894 891.695 700.301 890.884V867.306ZM700.295 631.393L700.301 867.306C562.696 836.203 442.276 807.165 337.359 780.079L337.355 631.393L518.825 463.072L700.295 631.393ZM326.544 777.281C330.131 778.212 333.736 779.144 337.359 780.079V803.832C333.736 802.9 330.131 801.97 326.544 801.042V777.281ZM326.544 620.418V777.281C266.81 761.779 212.185 746.922 162.349 732.688V519.795L326.544 620.418ZM42.8218 436.452C115.815 438.763 183.504 439.778 246.185 439.606L222.048 462.615C166.032 462.5 106.239 461.468 42.4791 459.453C-59.3028 462.926 -157.733 473.023 -220.695 491.592C-236.378 496.217 -249.527 501.275 -259.831 506.708C-270.246 512.199 -277.042 517.703 -280.841 522.87C-284.37 527.67 -285.341 532.135 -284.328 536.988C-283.205 542.363 -279.349 549.523 -270.407 558.452C-252.428 576.405 -217.437 598.034 -159.831 623.313C-102.538 648.454 -23.9301 676.764 80.2613 708.501C106.049 716.356 133.391 724.416 162.349 732.688V756.601C130.917 747.662 101.345 738.967 73.5591 730.503C-31.0913 698.626 -110.639 670.016 -169.074 644.374C-227.196 618.869 -265.506 595.85 -286.659 574.728C-297.281 564.12 -304.45 553.136 -306.841 541.691C-309.341 529.723 -306.315 518.69 -299.371 509.245C-292.696 500.168 -282.54 492.68 -270.558 486.363C-258.466 479.987 -243.772 474.419 -227.201 469.531C-161.219 450.072 -60.1836 439.925 42.067 436.453L42.4449 436.441L42.8218 436.452ZM876.124 519.751L711.779 622.793L535.645 451.008C623.446 443.252 695.419 431.824 753.49 417.365C757.534 416.358 761.514 415.334 765.43 414.296L876.124 519.751ZM337.751 612.021L176.702 505.845L222.048 462.615C327.393 462.832 419.378 459.803 499.261 453.945L337.751 612.021ZM518.931 434.706L535.645 451.008C523.806 452.054 511.68 453.034 499.261 453.945L512.039 441.44L511.472 429.947C513.971 429.75 516.457 429.551 518.93 429.348L518.931 434.706ZM511.472 429.947C435.213 435.963 347.201 439.329 246.185 439.606L500.028 197.621L511.472 429.947ZM745.783 395.577C686.183 410.249 611.33 421.773 518.93 429.348V179.459L745.783 395.577ZM524.826 -128.33C527.649 -133.796 534.248 -136.043 539.788 -133.528L540.32 -133.27L545.07 -130.809C644.862 -78.9475 748.379 -15.0523 827.147 51.3078C867.145 85.0056 901.119 119.636 924.964 153.956C948.733 188.167 963.133 223.076 962.211 257.035C961.274 291.589 944.543 323.141 910.29 350.172C878.292 375.424 830.764 396.984 765.43 414.296L745.783 395.577C746.502 395.4 747.219 395.225 747.933 395.047C817.939 377.617 865.751 356.021 896.042 332.117C925.994 308.48 938.501 282.908 939.22 256.411C939.955 229.32 928.429 199.25 906.077 167.079C883.801 135.018 851.457 101.863 812.329 68.8977C735.315 4.01552 633.401 -58.9824 534.474 -110.395L529.765 -112.835L529.247 -113.12C523.99 -116.182 522.003 -122.863 524.826 -128.33Z" fill="black"/>
</g>
<defs>
<clipPath id="clip0_944_81">
<rect width="2282" height="1929" fill="white"/>
</clipPath>
</defs>
</svg>
