<svg width="1221" height="1400" viewBox="0 0 1221 1400" fill="none" xmlns="http://www.w3.org/2000/svg">
<g clip-path="url(#clip0_944_81)">
<rect width="1221" height="1400" fill="white"/>
<path d="M496.441 1902.43L497.861 1902.73L499.163 1903.37C514.212 1910.79 529.781 1921.28 537.099 1934.44C541.015 1941.48 542.856 1949.86 540.191 1958.66C537.616 1967.17 531.368 1974.27 522.857 1980.21C506.126 1991.89 476.676 2001.83 430.838 2009.73C384.577 2017.69 320.21 2023.78 232.415 2026.81C226.068 2027.03 220.744 2022.06 220.525 2015.72C220.306 2009.37 225.274 2004.05 231.621 2003.83C318.868 2000.81 382.096 1994.78 426.935 1987.06C472.197 1979.27 497.355 1969.97 509.692 1961.35C515.716 1957.15 517.618 1953.85 518.177 1952C518.648 1950.44 518.608 1948.52 516.999 1945.62C513.379 1939.11 503.802 1931.48 490.263 1924.64C484.919 1923.51 479.626 1922.39 474.384 1921.27L492.427 1903.23L490.349 1901.15L496.441 1902.43ZM350.765 1892.84C388.446 1902.2 429.574 1911.69 474.384 1921.27L416.404 1979.25L340.382 1903.23L350.765 1892.84ZM490.349 1901.15L489.173 1900.9C446.022 1891.77 406.293 1882.74 369.773 1873.83L416.404 1827.2L490.349 1901.15ZM108.38 1657.78C204.876 1663.44 290.015 1664.35 364.434 1661.71L384.699 1683.92C304.86 1687.5 212.667 1686.92 107.387 1680.77C67.3139 1680.8 34.7299 1687.85 17.3035 1698.77C8.71222 1704.16 5.41868 1709.42 4.75267 1713.79C4.09477 1718.1 5.48209 1724.97 14.0456 1734.78C31.5112 1754.79 73.208 1780.44 151.325 1809.44C205.988 1829.73 277.674 1851.37 369.773 1873.83L350.765 1892.84C264.474 1871.41 196.263 1850.65 143.321 1831C64.8792 1801.88 18.2872 1774.62 -3.28346 1749.9C-14.2373 1737.35 -20.0561 1723.9 -17.9837 1710.32C-15.919 1696.79 -6.54577 1686.58 5.08666 1679.29C28.0622 1664.88 66.0328 1657.77 107.707 1657.77H108.044L108.38 1657.78ZM409.628 1711.23L384.699 1683.92C393.147 1683.54 401.456 1683.12 409.628 1682.65V1711.23ZM428.524 1690.52L428.246 1681.48C431.3 1681.28 434.335 1681.06 437.349 1680.85L428.524 1690.52ZM428.246 1681.48C422.121 1681.9 415.915 1682.28 409.628 1682.65V1659.61C415.677 1659.26 421.647 1658.88 427.538 1658.48L428.246 1681.48ZM633.768 1465.5C663.507 1471.09 694.374 1476.8 726.406 1482.65L748.114 1486.6L749.104 1486.78L750.049 1487.13C768.4 1493.92 783.073 1502.87 792.503 1514.06C802.257 1525.64 806.215 1539.5 802.657 1554.11C799.249 1568.1 789.337 1581.2 774.826 1593.07C760.202 1605.04 740.043 1616.48 714.412 1626.99C655.023 1651.34 563.881 1671.65 437.349 1680.85L460.048 1655.96C572.018 1646.19 652.794 1627.4 705.685 1605.71C729.978 1595.75 747.945 1585.35 760.261 1575.27C772.69 1565.1 778.534 1555.96 780.31 1548.66C781.936 1541.99 780.505 1535.52 774.915 1528.88C769.11 1521.99 758.765 1515 742.985 1509.05C698.35 1500.95 655.902 1493.09 615.549 1485.48L633.768 1465.5ZM157.386 1388.82C214.783 1403 283.475 1418.62 365.153 1435.79L409.628 1484.45V1659.61C395.026 1660.46 379.964 1661.16 364.434 1661.71L131.426 1406.4L157.386 1388.82ZM439.924 1451.21C493.502 1462.05 551.922 1473.47 615.549 1485.48L460.048 1655.96C449.489 1656.88 438.654 1657.72 427.538 1658.48L421.771 1471.08L439.924 1451.21ZM687.679 1406.39L633.768 1465.5C570.141 1453.55 511.68 1442.19 458.025 1431.4L561.897 1317.7L687.679 1406.39ZM392.256 1441.45C401.566 1443.38 411.036 1445.33 420.668 1447.3L409.249 1459.28L392.256 1441.45ZM439.409 1427.64C445.549 1428.88 451.754 1430.14 458.025 1431.4L439.924 1451.21C433.434 1449.9 427.016 1448.6 420.668 1447.3L439.409 1427.64ZM338.493 1406.63C346.937 1408.44 355.533 1410.26 364.282 1412.11L392.256 1441.45C383.066 1439.55 374.033 1437.66 365.153 1435.79L338.493 1406.63ZM550.352 1311.25L439.409 1427.64C413.195 1422.32 388.168 1417.14 364.282 1412.11L268.145 1311.25L268.143 1258.56C376.727 1253.13 470.232 1246.44 550.35 1238.74L550.352 1311.25ZM338.493 1406.63C279.596 1394.01 228.041 1382.29 183.083 1371.43L259.21 1319.89L338.493 1406.63ZM165.346 1367.1C171.141 1368.53 177.053 1369.97 183.083 1371.43L157.386 1388.82C151.117 1387.27 144.982 1385.74 138.98 1384.23L165.346 1367.1ZM132.055 1382.47C134.344 1383.05 136.652 1383.64 138.98 1384.23L132.055 1388.73V1382.47ZM686.422 1388.73L558.751 1305.63V1237.92C593.022 1234.56 624.797 1231.01 654.212 1227.29C665.271 1225.9 676.006 1224.47 686.422 1223.03V1388.73ZM132.055 1264.38C80.814 1266.23 26.7377 1267.84 -30.302 1269.18C-46.1048 1270.35 -59.8724 1272.28 -70.2102 1274.94C-75.4153 1276.28 -79.3955 1277.72 -82.2044 1279.15C-83.3476 1279.72 -84.1542 1280.23 -84.7112 1280.63C-84.0482 1281.48 -82.8884 1282.74 -80.9104 1284.37C-73.8263 1290.23 -60.0552 1297.88 -36.8421 1307.21C-1.69992 1321.33 52.6233 1338.38 132.055 1358.74V1382.47C48.6475 1361.24 -8.43508 1343.41 -45.4192 1328.55C-69.1089 1319.03 -85.6287 1310.32 -95.5667 1302.1C-100.505 1298.02 -104.796 1293.27 -106.963 1287.68C-109.395 1281.4 -108.8 1274.87 -105.258 1269.28C-102.129 1264.34 -97.2569 1260.99 -92.6047 1258.63C-87.7867 1256.19 -82.0768 1254.25 -75.9485 1252.67C-63.6747 1249.51 -48.2897 1247.44 -31.7239 1246.23L-31.4387 1246.2L-31.1536 1246.2C26.2277 1244.85 80.5864 1243.23 132.055 1241.36V1264.38ZM259.726 1305.79L165.346 1367.1C153.789 1364.25 142.697 1361.46 132.055 1358.74V1264.38C176.739 1262.76 219.268 1260.95 259.726 1258.97V1305.79ZM268.143 1258.56C265.348 1258.7 262.542 1258.83 259.726 1258.97V1235.94C262.542 1235.8 265.348 1235.67 268.143 1235.53V1258.56ZM132.055 829.529C170.896 842.138 213.373 855.285 259.726 868.983V1235.94C219.291 1237.93 176.763 1239.74 132.055 1241.36V829.529ZM558.751 1237.92C555.967 1238.2 553.167 1238.47 550.35 1238.74L550.349 1215.63C553.167 1215.36 555.967 1215.09 558.751 1214.81V1237.92ZM268.135 871.462C349.916 895.505 443.563 921.24 550.343 948.77L550.349 1215.63C470.446 1223.36 376.959 1230.08 268.143 1235.53L268.135 871.462ZM686.422 959.368C728.369 969.727 772.074 980.327 817.599 991.166L818.009 991.263L818.409 991.39C876.207 1009.7 931.215 1033.58 960.854 1060.5C975.613 1073.91 986.459 1090.27 984.543 1108.82C982.626 1127.37 968.467 1143.09 945.767 1156.49C903.499 1181.46 821.921 1204.23 686.422 1223.03V1199.81C819.643 1181.14 896.29 1159 934.071 1136.69C954.621 1124.55 960.882 1114.03 961.665 1106.46C962.447 1098.89 958.27 1089.23 945.389 1077.53C919.809 1054.29 869.249 1031.65 811.86 1013.44C768.419 1003.1 726.623 992.971 686.422 983.059V959.368ZM558.751 950.937C599.401 961.386 641.935 972.091 686.422 983.059V1199.81C675.134 1201.39 663.439 1202.95 651.328 1204.48C622.775 1208.08 591.959 1211.53 558.751 1214.81V950.937ZM686.422 959.368C641.907 948.375 599.373 937.65 558.751 927.186V719.042L686.422 631.1V959.368ZM558.751 927.186V950.937C555.939 950.215 553.137 949.491 550.343 948.77L550.343 925.019C553.136 925.741 555.939 926.462 558.751 927.186ZM550.339 716.814L550.343 925.019C443.307 897.366 349.677 871.552 268.135 847.483L268.133 716.814L409.235 567.264L550.339 716.814ZM259.726 844.994C262.515 845.821 265.317 846.652 268.135 847.483L268.135 871.462C265.318 870.633 262.515 869.807 259.726 868.983V844.994ZM259.726 707.064V844.994C213.262 831.206 170.789 817.996 132.055 805.342V617.662L259.726 707.064ZM39.2478 542.333C96.4339 544.401 149.413 545.3 198.424 545.129L177.301 568.137C134.068 568.021 87.9639 567.105 38.8464 565.333C-40.1691 568.42 -116.211 577.38 -164.641 593.701C-189.404 602.046 -204.222 611.454 -210.084 620.563C-212.688 624.61 -213.507 628.554 -212.702 632.958C-211.835 637.704 -208.888 643.922 -202.108 651.658C-188.407 667.291 -161.555 686.32 -116.899 708.712C-72.5163 730.966 -11.5362 756.066 69.4011 784.237C89.1008 791.094 109.971 798.126 132.055 805.342V829.529C107.18 821.453 83.7947 813.6 61.8406 805.959C-19.6083 777.609 -81.6047 752.137 -127.207 729.271C-172.536 706.543 -202.679 685.901 -219.405 666.817C-227.837 657.195 -233.463 647.292 -235.327 637.094C-237.254 626.553 -234.966 616.726 -229.426 608.117C-219 591.914 -197.382 580.464 -171.986 571.905C-120.184 554.448 -41.1926 545.422 38.3855 542.334L38.8161 542.317L39.2478 542.333ZM687.056 617.623L559.268 709.175L423.385 557.737C491.518 550.828 547.463 540.666 592.685 527.801C595.847 526.901 598.96 525.986 602.024 525.057L687.056 617.623ZM268.44 699.602L143.217 605.266L177.301 568.137C259.085 568.357 330.591 565.709 392.774 560.553L268.44 699.602ZM409.319 542.062L423.385 557.737C413.442 558.745 403.24 559.685 392.774 560.553L403.96 548.044L403.464 536.542C405.425 536.365 407.377 536.186 409.319 536.004V542.062ZM403.464 536.542C344.541 541.863 276.519 544.856 198.424 545.129L394.62 331.415L403.464 536.542ZM584.669 506.164C538.643 519.105 480.791 529.293 409.319 536.004V315.28L584.669 506.164ZM411.94 40.657C415.168 35.1876 422.22 33.3699 427.689 36.5975C506.541 83.1344 588.798 140.888 651.186 200.947C682.379 230.975 708.897 261.857 727.513 292.474C746.086 323.02 757.264 354.08 756.55 384.199C755.114 444.677 706.8 493.314 602.024 525.057L584.669 506.164C585.245 506.002 585.819 505.841 586.391 505.679C695.235 474.713 732.459 429.891 733.556 383.653C734.129 359.53 725.15 332.857 707.861 304.424C690.616 276.062 665.568 246.718 635.235 217.517C574.572 159.119 493.935 102.402 415.999 56.4061C410.53 53.1778 408.712 46.1265 411.94 40.657Z" fill="black"/>
</g>
<defs>
<clipPath id="clip0_944_81">
<rect width="1221" height="1400" fill="white"/>
</clipPath>
</defs>
</svg>
