<svg width="1221" height="1400" viewBox="0 0 1221 1400" fill="none" xmlns="http://www.w3.org/2000/svg">
<g clip-path="url(#clip0_944_28)">
<rect width="1221" height="1400" fill="white"/>
<path d="M445.982 1185.9L455.123 1187.83L456.542 1188.13L457.844 1188.77C467.515 1193.54 478.372 1200.65 483.66 1210.15C486.559 1215.37 488.055 1221.85 485.966 1228.75C483.967 1235.35 479.217 1240.54 473.378 1244.62C461.99 1252.57 442.578 1258.97 413.487 1263.98C383.972 1269.06 343.06 1272.92 287.442 1274.85C281.094 1275.06 275.771 1270.1 275.551 1263.75C275.332 1257.4 280.3 1252.08 286.648 1251.86L291.766 1251.68C344.193 1249.72 382.369 1246 409.584 1241.32C438.1 1236.41 453.219 1230.64 460.213 1225.76C461.846 1224.62 462.806 1223.68 463.346 1223.02C463.611 1222.7 463.764 1222.46 463.848 1222.31C463.882 1222.25 463.904 1222.2 463.92 1222.16C463.887 1222.03 463.797 1221.76 463.559 1221.33C461.94 1218.42 457.009 1214.18 448.917 1210.03C444.814 1209.16 440.758 1208.3 436.748 1207.43L451.714 1192.47L444.912 1185.67C445.268 1185.74 445.625 1185.82 445.982 1185.9ZM358.647 1189.39C382.45 1195.33 408.435 1201.35 436.748 1207.43L403.641 1240.54L355.568 1192.47L358.647 1189.39ZM209.109 1033.04C268.488 1036.52 321.001 1037.15 367.034 1035.64L387.299 1057.85C335.85 1060.3 276.288 1060 208.133 1056.02C183.112 1056.06 163.511 1060.5 153.514 1066.76C148.64 1069.82 147.676 1072.24 147.512 1073.31C147.356 1074.34 147.418 1077.47 152.394 1083.17C162.684 1094.96 188.151 1110.88 237.49 1129.2C272.359 1142.14 318.329 1155.99 377.656 1170.38L358.647 1189.39C305.128 1176.02 262.634 1163.06 229.486 1150.76C179.823 1132.33 149.461 1114.79 135.066 1098.29C127.7 1089.85 123.205 1080.14 124.776 1069.84C126.339 1059.6 133.383 1052.24 141.298 1047.28C156.839 1037.54 181.816 1033.02 208.436 1033.02H208.773L209.109 1033.04ZM444.912 1185.67C420.794 1180.52 398.408 1175.41 377.656 1170.38L403.641 1144.39L444.912 1185.67ZM399.357 1071.06L387.299 1057.85C391.369 1057.66 395.388 1057.45 399.357 1057.22V1071.06ZM411.305 1057.96L411.259 1056.48C411.758 1056.44 412.256 1056.41 412.752 1056.38L411.305 1057.96ZM411.259 1056.48C407.343 1056.74 403.376 1056.99 399.357 1057.22V1034.18C403.138 1033.96 406.869 1033.72 410.551 1033.47L411.259 1056.48ZM544.441 911.997C562.443 915.374 581.098 918.828 600.425 922.356L614.156 924.854L615.146 925.034L616.09 925.383C628.073 929.814 638.095 935.812 644.704 943.654C651.637 951.882 654.605 962.003 651.999 972.701C649.545 982.782 642.528 991.793 632.969 999.614C623.298 1007.53 610.148 1014.95 593.694 1021.7C554.938 1037.59 495.406 1050.7 412.752 1056.38L435.454 1031.49C503.546 1025.23 552.71 1013.65 584.966 1000.42C600.081 994.222 611.04 987.838 618.405 981.813C625.881 975.696 628.83 970.64 629.653 967.259C630.326 964.497 629.886 961.762 627.116 958.475C624.117 954.916 618.409 950.884 609.026 947.298C579.985 942.027 552.406 936.918 526.223 931.97L544.441 911.997ZM235.143 870.371C273.575 879.928 320.133 890.519 376.121 902.232L399.357 927.654V1034.18C388.959 1034.79 378.187 1035.28 367.034 1035.64L223.435 878.298L235.143 870.371ZM415.186 910.275C449.053 917.141 485.988 924.367 526.223 931.97L435.454 1031.49C427.418 1032.23 419.118 1032.89 410.551 1033.47L407.035 919.199L415.186 910.275ZM575.183 878.294L544.441 911.997C504.206 904.449 467.23 897.277 433.288 890.463L495.644 822.21L575.183 878.294ZM393.498 905.841C396.604 906.482 399.737 907.124 402.897 907.771L399.118 911.737L393.498 905.841ZM421.635 888.113C425.479 888.891 429.363 889.675 433.288 890.463L415.186 910.275C411.044 909.435 406.948 908.6 402.897 907.771L421.635 888.113ZM349.455 873.058C354.716 874.191 360.071 875.336 365.524 876.493L393.498 905.841C387.607 904.627 381.815 903.423 376.121 902.232L349.455 873.058ZM488.344 818.128L421.635 888.113C401.886 884.114 383.198 880.241 365.524 876.493L309.89 818.128L309.889 789.041C378.51 785.617 437.641 781.39 488.343 776.524L488.344 818.128ZM349.455 873.058C316.245 865.906 286.822 859.219 260.836 852.974L304.24 823.59L349.455 873.058ZM223.832 792.72C191.489 793.891 157.364 794.906 121.378 795.753C111.549 796.483 103.157 797.673 96.9838 799.263C96.1343 799.482 95.3536 799.704 94.6381 799.923C99.2175 802.983 106.832 806.917 118.606 811.649C140.492 820.445 174.336 831.081 223.832 843.794V867.121L249.748 850.286C253.373 851.173 257.069 852.069 260.836 852.974L235.143 870.371C175.474 855.532 135.395 843.184 110.03 832.99C94.9615 826.934 84.0097 821.232 77.2006 815.602C73.827 812.813 70.4914 809.254 68.7465 804.75C66.736 799.559 67.2199 794.023 70.1948 789.327C72.7572 785.282 76.6057 782.732 79.8559 781.085C83.2721 779.353 87.2012 778.033 91.2465 776.991C99.3534 774.902 109.362 773.571 119.957 772.795L120.243 772.773L120.528 772.766C156.855 771.913 191.261 770.888 223.832 769.705V792.72ZM574.389 867.121L493.656 814.572V776.008C515.523 773.866 535.792 771.604 554.551 769.234C561.353 768.375 567.965 767.498 574.389 766.609V867.121ZM304.566 814.677L249.748 850.286C240.669 848.064 232.036 845.9 223.832 843.794V792.72C252.084 791.698 278.977 790.556 304.566 789.303V814.677ZM309.889 789.041C308.121 789.129 306.347 789.216 304.566 789.303V766.275C306.346 766.188 308.12 766.1 309.888 766.011L309.889 789.041ZM493.656 776.008C491.895 776.181 490.124 776.353 488.343 776.524L488.342 753.418C490.124 753.245 491.895 753.071 493.656 752.897V776.008ZM223.832 517.957C248.412 525.922 275.274 534.222 304.566 542.868V766.275C279.001 767.531 252.108 768.678 223.832 769.705V517.957ZM574.389 591.26C598.07 597.111 622.64 603.084 648.128 609.178L658.32 611.61L658.728 611.707L659.128 611.834C695.723 623.425 731.293 638.746 750.771 656.439C760.449 665.23 768.534 676.804 767.114 690.556C765.693 704.307 755.288 715.197 740.539 723.909C712.978 740.187 660.479 754.698 574.389 766.609V743.386C658.201 731.606 705.768 717.733 728.841 704.105C741.441 696.664 743.95 690.963 744.236 688.193C744.521 685.425 743.106 680.548 735.306 673.464C719.882 659.453 688.747 645.372 652.559 633.881C625.505 627.438 599.459 621.129 574.389 614.951V591.26ZM309.883 544.434C361.64 559.633 420.862 575.893 488.339 593.279L488.342 753.418C437.855 758.305 378.742 762.562 309.888 766.011L309.883 544.434ZM493.656 594.647C519.366 601.252 546.263 608.02 574.389 614.951V743.386C567.093 744.412 559.522 745.422 551.668 746.415C533.771 748.676 514.46 750.84 493.656 752.897V594.647ZM488.338 569.526C490.105 569.983 491.877 570.441 493.656 570.899V594.647C491.878 594.19 490.106 593.734 488.339 593.279L488.338 569.526ZM574.389 591.26C546.235 584.304 519.338 577.518 493.656 570.899V443.642L574.389 388.032V591.26ZM488.336 442.234L488.338 569.526C420.606 552.016 361.401 535.68 309.882 520.455L309.881 442.234L399.109 347.666L488.336 442.234ZM304.566 518.88C306.329 519.403 308.101 519.928 309.882 520.455L309.883 544.434C308.102 543.911 306.33 543.388 304.566 542.868V518.88ZM304.566 436.068V518.88C275.163 510.144 248.305 501.777 223.832 493.766V379.534L304.566 436.068ZM165.298 327.675C202.949 329.037 237.691 329.593 269.698 329.421L248.575 352.43C222.349 352.315 194.485 351.741 164.909 350.675C115.073 352.63 67.559 358.283 37.5659 368.39C22.0232 373.628 13.9024 379.202 11.0346 383.658C9.92788 385.378 9.68015 386.791 9.98286 388.447C10.3483 390.446 11.7188 393.701 15.7026 398.247C23.8107 407.498 40.1862 419.234 68.3012 433.332C96.1424 447.292 134.516 463.095 185.603 480.877C197.643 485.067 210.378 489.362 223.832 493.766V517.957C207.587 512.692 192.337 507.575 178.042 502.599C126.444 484.64 87.053 468.463 57.9916 453.891C29.2046 439.457 9.53819 426.108 -1.59429 413.406C-7.23068 406.975 -11.28 400.035 -12.6421 392.584C-14.0668 384.79 -12.3503 377.495 -8.30718 371.212C-0.874827 359.662 14.0451 352.046 30.2211 346.594C63.582 335.352 114.04 329.632 164.437 327.676L164.868 327.66L165.298 327.675ZM574.789 379.51L493.982 437.403L411.544 345.53C453.464 341.147 488.091 334.794 516.272 326.777C518.963 326.011 521.602 325.227 524.189 324.426L574.789 379.51ZM310.076 431.349L230.889 371.696L248.575 352.43C300.036 352.657 345.192 351.107 384.611 347.992L310.076 431.349ZM399.161 331.728L411.544 345.53C402.88 346.436 393.905 347.257 384.611 347.992L395.772 335.51L395.276 324.01C396.578 323.893 397.873 323.77 399.161 323.649V331.728ZM395.276 324.01C359.113 327.282 317.448 329.164 269.698 329.421L389.866 198.524L395.276 324.01ZM397.179 12.5143C400.306 7.2155 407.021 5.34431 412.411 8.16763L412.927 8.45474L417.624 11.2438C466.216 40.278 516.515 75.8898 555.04 112.977C574.923 132.118 591.962 151.929 603.987 171.705C615.967 191.408 623.441 211.857 622.962 232.005C621.996 272.701 589.666 304.164 524.189 324.426L506.833 305.534C507.891 305.243 508.94 304.95 509.978 304.655C578.364 285.199 599.344 257.755 599.968 231.459C600.304 217.306 595.031 201.246 584.334 183.654C573.682 166.134 558.113 147.861 539.089 129.548C502.234 94.0684 453.508 59.48 405.846 30.9997L401.238 28.2633L400.736 27.9489C395.659 24.5953 394.052 17.8131 397.179 12.5143ZM506.833 305.534C478.427 313.344 442.891 319.527 399.161 323.649V188.322L506.833 305.534Z" fill="black"/>
<path d="M927.697 1267.6L664.685 1450.05H876.276L927.697 1267.6Z" fill="#131313"/>
<path d="M-154.332 1267.6L108.68 1450.05H-102.911L-154.332 1267.6Z" fill="#131313"/>
<path d="M-251 1270.79L12.0124 1453.24H-199.579L-251 1270.79Z" fill="#1E1E1E"/>
<path d="M1045.61 1270.79L782.599 1453.24H994.19L1045.61 1270.79Z" fill="black"/>
<path d="M474.277 1347.8H324.577L295.012 1305.84H503.843L474.277 1347.8Z" fill="black"/>
<path d="M183.504 1392.66L203.525 1356.83H681.986L701.557 1379.44L727.661 1356.83H992.931V1453.5H-194.699V1356.83H119.409L183.504 1392.66Z" fill="black"/>
</g>
<defs>
<clipPath id="clip0_944_28">
<rect width="1221" height="1400" fill="white"/>
</clipPath>
</defs>
</svg>
