<svg width="1300" height="1400" viewBox="0 0 1300 1400" fill="none" xmlns="http://www.w3.org/2000/svg">
<path d="M694.23 1146.49C697.735 1147.24 701.278 1147.99 704.861 1148.75L706.281 1149.04L707.583 1149.69C716.712 1154.19 727.093 1160.96 732.176 1170.1C734.973 1175.12 736.433 1181.42 734.403 1188.12C732.463 1194.53 727.863 1199.53 722.294 1203.42C711.445 1210.99 693.045 1217.04 665.643 1221.76C637.817 1226.55 599.27 1230.19 546.896 1231.99C540.549 1232.21 535.225 1227.25 535.006 1220.9C534.786 1214.55 539.754 1209.23 546.101 1209.01C597.928 1207.22 635.336 1203.64 661.74 1199.09C688.567 1194.47 702.674 1189.07 709.129 1184.56C711.203 1183.11 711.993 1182.09 712.268 1181.66C712.225 1181.56 712.165 1181.44 712.075 1181.27C710.656 1178.72 706.191 1174.82 698.656 1170.94C694.675 1170.11 690.742 1169.26 686.855 1168.43L701.513 1153.77L694.23 1146.49ZM613.347 1151.43C635.75 1157.03 660.207 1162.7 686.855 1168.43L656.258 1199.03L611.003 1153.77L613.347 1151.43ZM473.172 1003.02C528.809 1006.28 578.033 1006.88 621.202 1005.49L641.469 1027.7C592.881 1030.03 536.608 1029.76 472.194 1026C448.693 1026.04 430.403 1030.21 421.155 1036.01C416.657 1038.83 415.927 1040.96 415.813 1041.71C415.708 1042.4 415.637 1045.15 420.251 1050.44C429.817 1061.4 453.648 1076.34 500.084 1093.58C532.956 1105.78 576.331 1118.84 632.352 1132.42L613.347 1151.43C563.132 1138.88 523.232 1126.71 492.08 1115.14C445.319 1097.79 416.593 1081.23 402.922 1065.56C395.918 1057.54 391.557 1048.2 393.077 1038.24C394.589 1028.33 401.399 1021.25 408.939 1016.52C423.73 1007.25 447.397 1003 472.499 1003H472.836L473.172 1003.02ZM694.23 1146.49C672.074 1141.75 651.476 1137.06 632.352 1132.42L656.258 1108.52L694.23 1146.49ZM652.228 1039.49L641.469 1027.7C645.098 1027.52 648.685 1027.33 652.228 1027.13V1039.49ZM663.476 1027.15L663.454 1026.43C663.697 1026.41 663.939 1026.4 664.182 1026.38L663.476 1027.15ZM663.454 1026.43C659.761 1026.68 656.019 1026.91 652.228 1027.13V1004.09C655.781 1003.88 659.287 1003.66 662.746 1003.42L663.454 1026.43ZM789.341 889.161C810.141 893.062 831.866 897.07 854.552 901.186L855.542 901.366L856.486 901.716C867.827 905.908 877.38 911.608 883.704 919.113C890.353 927.003 893.221 936.747 890.712 947.05C888.353 956.737 881.629 965.336 872.569 972.748C863.397 980.252 850.954 987.273 835.425 993.641C798.75 1008.68 742.407 1021.06 664.182 1026.38L686.885 1001.49C750.548 995.591 796.523 984.737 826.698 972.362C840.888 966.543 851.14 960.564 858.005 954.947C864.982 949.238 867.637 944.595 868.364 941.609C868.941 939.241 868.602 936.883 866.116 933.933C863.399 930.709 858.157 926.976 849.421 923.63C821.954 918.644 795.876 913.812 771.124 909.133L789.341 889.161ZM496.893 851.068C533.405 860.159 577.729 870.241 631.131 881.404L652.228 904.486V1004.09C642.255 1004.67 631.915 1005.14 621.202 1005.49L486.62 858.023L496.893 851.068ZM666.601 888.706C698.479 895.171 733.248 901.974 771.124 909.133L686.885 1001.49C679.104 1002.21 671.059 1002.86 662.746 1003.42L659.456 896.527L666.601 888.706ZM647.526 884.807C650.002 885.317 652.497 885.829 655.011 886.343L652.001 889.502L647.526 884.807ZM817.746 858.019L789.341 889.161C751.465 882.057 716.657 875.305 684.702 868.892L742.871 805.223L817.746 858.019ZM673.749 866.685C677.362 867.417 681.013 868.152 684.702 868.892L666.601 888.706C662.694 887.913 658.831 887.126 655.011 886.343L673.749 866.685ZM604.467 852.231C609.405 853.296 614.433 854.371 619.551 855.458L647.526 884.807C641.968 883.662 636.504 882.527 631.131 881.404L604.467 852.231ZM735.997 801.382L673.749 866.685C654.645 862.819 636.595 859.076 619.551 855.458L568.005 801.382L568.004 774.674C632.595 771.451 688.26 767.473 735.996 762.893L735.997 801.382ZM604.467 852.231C573.841 845.629 546.651 839.45 522.586 833.673L562.688 806.523L604.467 852.231ZM486.995 778.136C456.556 779.238 424.443 780.194 390.58 780.991C381.353 781.677 373.503 782.793 367.75 784.275C367.487 784.343 367.232 784.412 366.983 784.479C371.326 787.198 378.119 790.61 388.187 794.656C408.737 802.914 440.517 812.905 486.995 824.846V847.502L512.168 831.149C515.574 831.982 519.046 832.823 522.586 833.673L496.893 851.068C441.018 837.157 403.437 825.572 379.61 815.997C365.412 810.291 355.022 804.892 348.528 799.523C345.312 796.864 342.072 793.425 340.37 789.03C338.402 783.949 338.875 778.513 341.793 773.907C344.298 769.952 348.043 767.484 351.152 765.908C354.427 764.248 358.176 762.991 362.012 762.003C369.698 760.022 379.164 758.764 389.158 758.032L389.443 758.011L389.729 758.005C423.934 757.201 456.329 756.237 486.995 755.123V778.136ZM816.997 847.502L740.997 798.034V762.408C761.613 760.388 780.722 758.257 798.406 756.022C804.779 755.217 810.975 754.396 816.997 753.563V847.502ZM562.995 798.133L512.168 831.149C503.335 828.99 494.95 826.89 486.995 824.846V778.136C513.59 777.174 538.906 776.099 562.995 774.921V798.133ZM568.004 774.674C566.34 774.757 564.671 774.839 562.995 774.921V751.892C564.67 751.81 566.34 751.729 568.003 751.645L568.004 774.674ZM740.997 762.408C739.34 762.57 737.673 762.732 735.996 762.893L735.995 739.786C737.672 739.623 739.34 739.46 740.997 739.297V762.408ZM486.995 519.517C510.137 527.014 535.424 534.824 562.995 542.961V751.892C538.929 753.075 513.614 754.156 486.995 755.123V519.517ZM816.997 587.119C839.337 592.639 862.519 598.275 886.569 604.025L896.163 606.314L896.571 606.412L896.972 606.539C931.428 617.453 965.037 631.909 983.49 648.672C992.656 656.997 1000.46 668.09 999.093 681.358C997.722 694.624 987.695 705.028 973.747 713.266C947.669 728.668 898.103 742.348 816.997 753.563V730.34C895.826 719.254 940.461 706.214 962.051 693.463C973.848 686.495 975.978 681.281 976.214 678.995C976.45 676.711 975.314 672.317 968.026 665.697C953.628 652.618 924.457 639.401 890.412 628.588C865.007 622.538 840.545 616.612 816.997 610.809V587.119ZM567.999 544.434C616.729 558.741 672.478 574.047 735.992 590.411L735.995 739.786C688.474 744.387 632.827 748.397 568.003 751.645L567.999 544.434ZM740.997 591.698C765.201 597.915 790.521 604.285 816.997 610.809V730.34C810.103 731.309 802.948 732.265 795.523 733.203C778.701 735.328 760.55 737.363 740.997 739.297V591.698ZM735.991 566.657C737.654 567.087 739.323 567.517 740.997 567.949V591.698C739.323 591.268 737.655 590.839 735.992 590.411L735.991 566.657ZM816.997 587.119C790.492 580.57 765.173 574.18 740.997 567.949V448.851L816.997 396.502V587.119ZM735.989 447.525L735.991 566.657C672.222 550.17 616.489 534.79 567.998 520.457L567.997 447.525L651.993 358.502L735.989 447.525ZM562.995 518.974C564.654 519.467 566.322 519.961 567.998 520.457L567.999 544.434C566.323 543.942 564.655 543.45 562.995 542.961V518.974ZM431.915 339.009C467.598 340.3 500.5 340.821 530.792 340.648L509.669 363.658C485.162 363.543 459.141 363.004 431.537 362.009C384.64 363.85 339.998 369.167 311.862 378.649C297.25 383.574 289.804 388.761 287.238 392.748C286.282 394.233 286.092 395.391 286.344 396.77C286.658 398.492 287.871 401.448 291.572 405.672C299.116 414.279 314.435 425.281 340.882 438.542C367.055 451.665 403.149 466.531 451.226 483.265C462.495 487.187 474.41 491.206 486.995 495.327V519.517C471.619 514.536 457.189 509.695 443.666 504.988C395.078 488.076 357.966 472.838 330.573 459.102C303.454 445.504 284.844 432.89 274.275 420.832C268.921 414.722 265.03 408.081 263.719 400.907C262.345 393.39 264.004 386.351 267.896 380.302C275.027 369.222 289.271 361.992 304.518 356.854C336.019 346.239 383.599 340.852 431.053 339.01L431.484 338.994L431.915 339.009ZM562.995 441.721V518.974C535.312 510.748 510.03 502.869 486.995 495.327V388.502L562.995 441.721ZM817.374 388.479L741.305 442.978L664.255 357.11C703.532 352.983 736.01 347.014 762.471 339.486C765.114 338.734 767.705 337.962 770.244 337.174L817.374 388.479ZM568.18 437.28L493.637 381.123L509.669 363.658C558.074 363.885 600.573 362.445 637.695 359.536L568.18 437.28ZM652.042 343.5L664.255 357.11C655.725 358.006 646.875 358.816 637.695 359.536L648.851 347.059L648.355 335.558C649.591 335.446 650.82 335.331 652.042 335.216V343.5ZM648.355 335.558C614.489 338.624 575.482 340.393 530.792 340.648L643.292 218.104L648.355 335.558ZM649.596 42.6569C652.723 37.358 659.438 35.4869 664.827 38.3103L665.344 38.5974L669.768 41.2253C715.538 68.5735 762.934 102.126 799.25 137.087C817.992 155.129 834.075 173.824 845.435 192.507C856.75 211.117 863.85 230.495 863.395 249.637C862.476 288.334 831.766 318.067 770.244 337.174L752.888 318.281C753.995 317.978 755.092 317.673 756.177 317.364C820.483 299.069 839.826 273.377 840.402 249.092C840.714 235.944 835.814 220.955 825.782 204.456C815.794 188.029 801.182 170.872 783.299 153.657C748.654 120.305 702.831 87.7745 657.99 60.9802L653.654 58.406L653.152 58.0915C648.076 54.7379 646.468 47.9558 649.596 42.6569ZM752.888 318.281C726.259 325.574 692.975 331.354 652.042 335.216V208.501L752.888 318.281Z" fill="black"/>
<path d="M1149.59 1224.5L902 1396.25H1101.19L1149.59 1224.5Z" fill="#131313"/>
<path d="M131 1224.5L378.592 1396.25H179.406L131 1224.5Z" fill="#131313"/>
<path d="M40 1227.5L287.592 1399.25H88.4062L40 1227.5Z" fill="#1E1E1E"/>
<path d="M1260.59 1227.5L1013 1399.25H1212.19L1260.59 1227.5Z" fill="black"/>
<path d="M722.756 1300H581.832L554 1260.5H750.588L722.756 1300Z" fill="black"/>
<path d="M449.027 1342.22L467.875 1308.5H1211V1399.5H998.552L998.722 1399.2L961.695 1378.5L949.958 1399.5H93V1308.5H388.69L449.027 1342.22Z" fill="black"/>
</svg>
