<svg width="1784" height="1400" viewBox="0 0 1784 1400" fill="none" xmlns="http://www.w3.org/2000/svg">
<g clip-path="url(#clip0_945_134)">
<path d="M1049.18 2735.46L1050.6 2735.76L1051.9 2736.4C1073.4 2747 1094.62 2761.55 1104.37 2779.09C1109.51 2788.32 1111.76 2798.96 1108.4 2810.05C1105.14 2820.83 1097.09 2830.23 1085.38 2838.41C1062.24 2854.56 1020.76 2868.75 954.841 2880.1C888.503 2891.52 796.015 2900.28 669.642 2904.64C663.295 2904.86 657.971 2899.89 657.751 2893.55C657.532 2887.2 662.5 2881.88 668.847 2881.66C794.673 2877.31 886.022 2868.6 950.939 2857.43C1016.28 2846.18 1053.47 2832.64 1072.22 2819.55C1081.44 2813.11 1085.14 2807.51 1086.39 2803.38C1087.55 2799.55 1087.1 2795.35 1084.27 2790.27C1078.23 2779.41 1063.03 2767.71 1043 2757.67C1036.18 2756.23 1029.41 2754.8 1022.7 2753.37L1042.1 2733.97C1044.45 2734.47 1046.81 2734.97 1049.18 2735.46ZM844.512 2712.5C898.831 2725.95 958.116 2739.59 1022.7 2753.37L934.898 2841.18L825.366 2731.64L844.512 2712.5ZM1044.43 2731.64L1042.1 2733.97C977.389 2720.32 917.975 2706.81 863.52 2693.49L934.898 2622.11L1044.43 2731.64ZM490.811 2383.08C631.809 2391.34 756.06 2392.59 864.508 2388.59L884.774 2410.79C770.911 2415.73 639.611 2414.82 489.835 2406.06C431.702 2406.09 383.535 2416.27 357.194 2432.78C344.146 2440.96 338.061 2449.63 336.793 2457.94C335.534 2466.2 338.508 2477.54 351.373 2492.28C377.442 2522.15 438.597 2559.46 551.219 2601.27C629.606 2630.36 732.124 2661.36 863.52 2693.49L844.512 2712.5C718.924 2681.39 619.881 2651.29 543.215 2622.83C430.269 2580.91 364.219 2541.98 334.045 2507.41C318.79 2489.93 311.382 2472 314.056 2454.47C316.723 2437 328.888 2423.38 344.978 2413.29C376.868 2393.3 430.416 2383.06 490.139 2383.06H490.475L490.811 2383.08ZM925.142 2455.03L884.774 2410.79C898.482 2410.2 911.937 2409.52 925.141 2408.76L925.142 2455.03ZM952.366 2425.19L951.808 2407.09C957.947 2406.68 964.028 2406.24 970.053 2405.79L952.366 2425.19ZM951.808 2407.09C943.035 2407.69 934.147 2408.24 925.141 2408.76V2385.72C933.908 2385.21 942.561 2384.67 951.1 2384.09L951.808 2407.09ZM1244.06 2105.38C1292.66 2114.52 1343.36 2123.89 1396.22 2133.52L1411.92 2136.37L1412.91 2136.55L1413.86 2136.9C1439.85 2146.5 1460.1 2159.01 1472.91 2174.21C1486.04 2189.8 1491.19 2208.14 1486.49 2227.44C1481.94 2246.12 1468.55 2264.13 1448.1 2280.86C1427.54 2297.68 1398.98 2313.93 1362.35 2328.96C1278.22 2363.46 1149.18 2392.4 970.053 2405.79L992.749 2380.91C1157.31 2366.93 1275.99 2339.51 1353.62 2307.68C1388.92 2293.2 1415.29 2277.99 1433.54 2263.06C1451.91 2248.03 1461.22 2233.98 1464.14 2222C1466.91 2210.63 1464.29 2199.68 1455.32 2189.03C1446.14 2178.14 1430.23 2167.59 1406.8 2158.81C1343.46 2147.32 1283.19 2136.17 1225.84 2125.36L1244.06 2105.38ZM567.368 1986.67C647.443 2006.39 742.661 2028.04 855.205 2051.77L925.141 2128.28V2385.72C905.506 2386.86 885.298 2387.82 864.508 2388.59L524.312 2015.83L567.368 1986.67ZM972.778 2076.03C1049.99 2091.64 1134.17 2108.07 1225.84 2125.36L992.749 2380.91C979.179 2382.06 965.297 2383.12 951.1 2384.09L942.635 2109.02L972.778 2076.03ZM1325.75 2015.82L1244.06 2105.38C1152.39 2088.15 1068.17 2071.77 990.879 2056.21L1144.53 1888.03L1325.75 2015.82ZM893.961 2059.88C910.67 2063.35 927.739 2066.86 945.177 2070.42L924.594 2092.02L893.961 2059.88ZM963.916 2050.76C972.809 2052.57 981.796 2054.38 990.879 2056.21L972.778 2076.03C963.477 2074.15 954.277 2072.28 945.177 2070.42L963.916 2050.76ZM828.542 2022.6C840.805 2025.22 853.285 2027.86 865.987 2030.53L893.961 2059.88C880.82 2057.15 867.902 2054.44 855.205 2051.77L828.542 2022.6ZM1127.89 1878.73L963.916 2050.76C929.9 2043.85 897.273 2037.11 865.987 2030.53L721.294 1878.73L721.292 1797.74C877.789 1789.92 1012.5 1780.27 1127.89 1769.17L1127.89 1878.73ZM828.542 2022.6C738.782 2003.43 660.702 1985.68 593.062 1969.28L708.422 1891.18L828.542 2022.6ZM1323.94 1990.36L1139.99 1870.63V1768C1189.14 1763.17 1234.71 1758.07 1276.9 1752.74C1293.06 1750.7 1308.74 1748.62 1323.94 1746.51V1990.36ZM525.219 1976.12C530.405 1977.44 535.662 1978.77 540.992 1980.11L525.219 1990.36V1976.12ZM567.358 1962.99C575.753 1965.06 584.32 1967.16 593.062 1969.28L567.368 1986.67C558.386 1984.46 549.595 1982.28 540.992 1980.11L567.358 1962.99ZM525.219 1806.13C451.318 1808.81 373.318 1811.13 291.033 1813.06C268.074 1814.75 247.864 1817.56 232.534 1821.51C224.831 1823.5 218.715 1825.68 214.225 1827.96C209.57 1830.32 207.649 1832.28 207.014 1833.28C206.792 1833.63 206.651 1833.68 207.02 1834.63C207.654 1836.27 209.702 1839.42 215.151 1843.92C225.987 1852.88 246.433 1864.13 279.984 1877.61C331.021 1898.12 409.895 1922.86 525.219 1952.39V1976.12C405.921 1945.73 324.286 1920.2 271.408 1898.95C237.38 1885.28 214.184 1872.97 200.495 1861.65C193.681 1856.01 188.245 1849.84 185.573 1842.94C182.634 1835.35 183.363 1827.64 187.584 1820.98C191.393 1814.96 197.491 1810.65 203.824 1807.44C210.323 1804.15 218.169 1801.46 226.795 1799.24C244.065 1794.79 265.896 1791.84 289.62 1790.1L289.905 1790.08L290.19 1790.08C372.814 1788.14 451.093 1785.81 525.219 1783.12V1806.13ZM709.166 1870.87L567.358 1962.99C552.8 1959.39 538.758 1955.85 525.219 1952.39V1806.13C589.605 1803.8 650.879 1801.19 709.166 1798.34V1870.87ZM721.292 1797.74C717.265 1797.94 713.223 1798.14 709.166 1798.34V1775.31C713.223 1775.11 717.264 1774.91 721.291 1774.71L721.292 1797.74ZM525.219 1179.35C581.157 1197.53 642.357 1216.48 709.166 1236.24V1775.31C650.902 1778.17 589.629 1780.78 525.219 1783.12V1179.35ZM721.28 1239.81C839.056 1274.46 973.978 1311.55 1127.88 1351.24L1127.89 1746.06C1012.72 1757.19 878.02 1766.87 721.291 1774.71L721.28 1239.81ZM1139.99 1768C1135.98 1768.39 1131.95 1768.78 1127.89 1769.17L1127.89 1746.06C1131.95 1745.67 1135.98 1745.28 1139.99 1744.88V1768ZM1323.94 1376.97C1384.02 1391.8 1446.6 1406.98 1511.77 1422.49L1512.18 1422.59L1512.58 1422.72C1595.8 1449.08 1674.11 1483.22 1715.93 1521.21C1736.78 1540.15 1750.94 1562.24 1748.43 1586.56C1745.92 1610.87 1727.26 1632.36 1695.03 1651.4C1635.12 1686.78 1518.68 1719.45 1323.94 1746.51V1723.28C1516.4 1696.35 1627.91 1664.33 1683.33 1631.6C1713.41 1613.83 1724.18 1597.52 1725.55 1584.19C1726.93 1570.87 1719.44 1555.47 1700.47 1538.24C1662.71 1503.94 1588.84 1471.03 1506.03 1444.77C1442.95 1429.75 1382.28 1415.05 1323.94 1400.66V1376.97ZM1139.99 1354.37C1198.56 1369.42 1259.84 1384.85 1323.94 1400.66V1723.28C1307.87 1725.53 1291.23 1727.75 1274.02 1729.92C1232.69 1735.15 1188.08 1740.14 1139.99 1744.88V1354.37ZM1323.94 1376.97C1259.81 1361.14 1198.53 1345.69 1139.99 1330.61V1025.49L1323.94 898.785V1376.97ZM1139.99 1330.61V1354.37C1135.94 1353.32 1131.91 1352.28 1127.88 1351.24V1327.49C1131.91 1328.53 1135.94 1329.57 1139.99 1330.61ZM1127.87 1022.28L1127.88 1327.49C973.722 1287.68 838.818 1250.5 721.279 1215.83L721.275 1022.28L924.575 806.81L1127.87 1022.28ZM709.166 1212.25C713.183 1213.44 717.221 1214.63 721.279 1215.83L721.28 1239.81C717.222 1238.61 713.184 1237.43 709.166 1236.24V1212.25ZM709.166 1008.23V1212.25C642.246 1192.4 581.05 1173.38 525.219 1155.16V879.419L709.166 1008.23ZM391.32 775.955C471.94 778.87 546.782 780.176 616.167 780.001L595.045 803.009C531.443 802.897 463.478 801.574 390.931 798.955C276.923 803.399 166.667 816.324 96.1254 840.096C60.3077 852.167 37.4593 866.171 28.0072 880.859C23.6085 887.695 22.1041 894.674 23.5111 902.372C24.981 910.412 29.8167 920.182 39.9496 931.744C60.3567 955.028 99.7698 982.8 164.258 1015.14C228.473 1047.33 316.555 1083.58 433.282 1124.21C462.164 1134.26 492.786 1144.58 525.219 1155.16V1179.35C489.996 1167.9 456.858 1156.77 425.721 1145.93C308.483 1105.12 219.384 1068.51 153.95 1035.7C88.7892 1003.02 46.0843 973.639 22.6528 946.904C10.8668 933.456 3.3526 920 0.886149 906.507C-1.64279 892.672 1.33034 879.811 8.66545 868.413C22.6819 846.632 52.3287 830.584 88.7797 818.3C162.692 793.392 275.893 780.401 390.458 775.956L390.889 775.939L391.32 775.955ZM1324.85 879.369L1140.73 1011.27L940.759 788.412C1040.34 778.478 1121.85 763.752 1187.5 745.075C1191.23 744.015 1194.9 742.942 1198.53 741.856L1324.85 879.369ZM721.715 997.479L541.294 861.56L595.045 803.009C713.197 803.218 816.298 799.247 905.769 791.64L721.715 997.479ZM924.689 770.501L940.759 788.412C929.335 789.551 917.673 790.628 905.769 791.64L916.969 779.115L916.473 767.616C919.225 767.367 921.963 767.116 924.688 766.861L924.689 770.501ZM916.473 767.616C830.264 775.392 730.642 779.713 616.167 780.001L903.514 466.999L916.473 767.616ZM1181.17 722.962C1114.03 742.062 1029.42 757.049 924.688 766.861V443.756L1181.17 722.962ZM932.84 50.6567C935.968 45.3582 942.682 43.487 948.072 46.31L948.589 46.5971L953.909 49.7466C1065.68 116.122 1181.55 197.856 1269.66 282.676C1314.41 325.758 1352.3 369.914 1378.82 413.53C1405.29 457.074 1420.92 500.859 1419.92 542.932C1417.92 627.08 1350.51 696.328 1198.53 741.856L1181.17 722.962C1181.18 722.959 1181.2 722.956 1181.21 722.953C1338.56 678.187 1395.26 612.534 1396.92 542.386C1397.78 506.308 1384.36 466.911 1359.16 425.479C1334.02 384.119 1297.6 341.501 1253.71 299.247C1167.3 216.061 1053.03 135.357 942.175 69.5288L936.899 66.4057L936.397 66.0913C931.321 62.7377 929.713 55.9554 932.84 50.6567Z" fill="black"/>
</g>
<defs>
<clipPath id="clip0_945_134">
<rect width="1784" height="1400" fill="white"/>
</clipPath>
</defs>
</svg>
