<svg width="1325" height="1400" viewBox="0 0 1325 1400" fill="none" xmlns="http://www.w3.org/2000/svg">
<g clip-path="url(#clip0_945_134)">
<path d="M795.195 2187.49L796.615 2187.79L797.916 2188.43C814.243 2196.48 830.931 2207.78 838.732 2221.81C842.889 2229.28 844.811 2238.11 842.01 2247.36C839.298 2256.32 832.694 2263.88 823.549 2270.26C805.548 2282.83 773.714 2293.61 723.898 2302.19C673.66 2310.83 603.722 2317.45 508.283 2320.75C501.936 2320.97 496.612 2316 496.393 2309.65C496.173 2303.31 501.141 2297.98 507.488 2297.76C602.379 2294.49 671.179 2287.92 719.996 2279.52C769.236 2271.04 796.777 2260.9 810.384 2251.4C817.042 2246.75 819.3 2243 819.997 2240.69C820.604 2238.69 820.483 2236.31 818.632 2232.98C814.533 2225.61 803.844 2217.18 789.017 2209.7C783.378 2208.51 777.792 2207.33 772.257 2206.14L791.03 2187.37L790.073 2186.42L795.195 2187.49ZM637.826 2175.25C678.803 2185.42 723.529 2195.73 772.257 2206.14L708.368 2270.03L625.707 2187.37L637.826 2175.25ZM790.073 2186.42L787.29 2185.83C740.127 2175.85 696.719 2165.98 656.834 2156.24L708.368 2104.71L790.073 2186.42ZM373.391 1921.5C478.703 1927.67 571.59 1928.65 652.752 1925.74L673.018 1947.95C586.437 1951.79 486.497 1951.15 372.401 1944.48C328.75 1944.52 293.079 1952.18 273.887 1964.22C264.412 1970.16 260.566 1976.09 259.781 1981.24C259.004 1986.33 260.705 1994.09 270.121 2004.88C289.291 2026.84 334.843 2054.8 419.797 2086.34C479.159 2108.37 556.952 2131.87 656.834 2156.24L637.826 2175.25C543.752 2151.9 469.434 2129.29 411.793 2107.9C326.515 2076.24 276.068 2046.67 252.793 2020C240.987 2006.47 234.852 1992.13 237.044 1977.77C239.228 1963.46 249.155 1952.57 261.671 1944.73C286.413 1929.22 327.469 1921.48 372.719 1921.48H373.055L373.391 1921.5ZM701.004 1978.61L673.018 1947.95C682.506 1947.53 691.835 1947.05 701.004 1946.52V1978.61ZM721.549 1956.09L721.215 1945.26C724.879 1945.01 728.517 1944.76 732.129 1944.49L721.549 1956.09ZM721.215 1945.26C714.566 1945.71 707.829 1946.13 701.004 1946.52V1923.49C707.591 1923.1 714.092 1922.69 720.507 1922.26L721.215 1945.26ZM943.923 1712.29C983.692 1719.76 1025.32 1727.45 1068.87 1735.35L1069.86 1735.53L1070.81 1735.88C1090.67 1743.23 1106.45 1752.89 1116.55 1764.87C1126.97 1777.24 1131.17 1791.99 1127.38 1807.53C1123.75 1822.45 1113.15 1836.52 1097.46 1849.36C1081.66 1862.28 1059.84 1874.68 1032.03 1886.08C967.735 1912.45 869.083 1934.47 732.129 1944.49L754.828 1919.61C877.221 1909 965.506 1888.5 1023.3 1864.8C1049.77 1853.95 1069.4 1842.6 1082.9 1831.56C1096.5 1820.43 1103.03 1810.31 1105.04 1802.09C1106.89 1794.48 1105.22 1787.12 1098.96 1779.69C1092.49 1772.01 1081.04 1764.31 1063.74 1757.8C1015.4 1749.03 969.423 1740.52 925.702 1732.27L943.923 1712.29ZM427.853 1627.29C489.746 1642.57 563.694 1659.38 651.484 1677.85L701.004 1732.03V1923.49C685.405 1924.39 669.323 1925.15 652.752 1925.74L398.507 1647.16L427.853 1627.29ZM734.735 1695.02C792.995 1706.81 856.519 1719.21 925.702 1732.27L754.828 1919.61C743.672 1920.58 732.232 1921.46 720.507 1922.26L714.206 1717.49L734.735 1695.02ZM1003.34 1647.15L943.923 1712.29C874.739 1699.29 811.173 1686.94 752.836 1675.21L866.569 1550.72L1003.34 1647.15ZM680.894 1684C691.673 1686.23 702.65 1688.49 713.827 1690.77L700.591 1704.66L680.894 1684ZM732.566 1671.11C739.252 1672.47 746.008 1673.83 752.836 1675.21L734.735 1695.02C727.689 1693.59 720.72 1692.18 713.827 1690.77L732.566 1671.11ZM624.821 1648.68C634.022 1650.65 643.388 1652.64 652.92 1654.65L680.894 1684C670.923 1681.93 661.12 1679.88 651.484 1677.85L624.821 1648.68ZM854.017 1543.7L732.566 1671.11C704.809 1665.48 678.275 1659.99 652.92 1654.65L547.165 1543.7L547.163 1485.4C665.239 1479.5 766.909 1472.22 854.015 1463.85L854.017 1543.7ZM624.821 1648.68C559.814 1634.77 503.003 1621.86 453.549 1609.89L537.45 1553.09L624.821 1648.68ZM1001.97 1627.94L863.148 1537.59V1462.96C900.367 1459.31 934.876 1455.45 966.823 1451.42C978.893 1449.89 990.606 1448.34 1001.97 1446.76V1627.94ZM399.192 1620.11C402.056 1620.84 404.948 1621.57 407.869 1622.3L399.192 1627.94V1620.11ZM434.235 1605.18C440.545 1606.73 446.982 1608.3 453.549 1609.89L427.853 1627.29C421.047 1625.61 414.386 1623.95 407.869 1622.3L434.235 1605.18ZM399.192 1491.73C343.462 1493.75 284.648 1495.5 222.607 1496.96C205.386 1498.23 190.341 1500.33 179.014 1503.25C173.314 1504.72 168.91 1506.3 165.768 1507.9C164.216 1508.68 163.126 1509.4 162.394 1509.98C162.295 1510.06 162.204 1510.13 162.122 1510.2C162.753 1511.19 164.132 1512.89 166.989 1515.25C174.817 1521.73 189.91 1530.08 215.172 1540.24C253.463 1555.62 312.65 1574.2 399.192 1596.37V1620.11C308.674 1597.06 246.728 1577.7 206.595 1561.58C180.857 1551.23 163.014 1541.81 152.333 1532.98C147.023 1528.59 142.505 1523.56 140.238 1517.71C137.706 1511.17 138.328 1504.41 142.004 1498.6C145.268 1493.45 150.382 1489.91 155.367 1487.38C160.518 1484.77 166.652 1482.68 173.275 1480.98C186.539 1477.56 203.201 1475.32 221.185 1474L221.47 1473.98L221.756 1473.97C284.138 1472.51 343.235 1470.75 399.192 1468.72V1491.73ZM538.013 1537.77L434.235 1605.18C422.085 1602.18 410.409 1599.25 399.192 1596.37V1491.73C447.78 1489.97 494.022 1488 538.013 1485.85V1537.77ZM547.163 1485.4C544.124 1485.55 541.074 1485.7 538.013 1485.85V1462.82C541.074 1462.67 544.124 1462.52 547.163 1462.37V1485.4ZM399.192 1018.86C441.42 1032.57 487.607 1046.86 538.013 1061.76V1462.82C494.045 1464.98 447.803 1466.95 399.192 1468.72V1018.86ZM863.148 1462.96C860.122 1463.26 857.077 1463.56 854.015 1463.85L854.014 1440.74C857.077 1440.45 860.122 1440.15 863.148 1439.85V1462.96ZM547.153 1064.46C636.066 1090.6 737.89 1118.59 854.007 1148.53L854.014 1440.74C767.123 1449.14 665.471 1456.45 547.163 1462.37L547.153 1064.46ZM1001.97 1162.12C1042.1 1172.03 1083.71 1182.14 1126.84 1192.46L1144.37 1196.64L1144.78 1196.74L1145.18 1196.86C1208.02 1216.77 1267.64 1242.68 1299.7 1271.8C1315.66 1286.3 1327.16 1303.79 1325.13 1323.49C1323.1 1343.18 1308.04 1360.04 1283.46 1374.56C1237.69 1401.59 1149.21 1426.32 1001.97 1446.76V1423.54C1146.93 1403.23 1230.48 1379.14 1271.76 1354.76C1294.2 1341.51 1301.35 1329.84 1302.25 1321.13C1303.15 1312.42 1298.32 1301.62 1284.23 1288.82C1256.24 1263.39 1201.05 1238.72 1138.62 1218.91C1091.29 1207.64 1045.76 1196.61 1001.97 1185.81V1162.12ZM863.148 1150.88C907.347 1162.24 953.596 1173.89 1001.97 1185.81V1423.54C989.734 1425.25 977.062 1426.94 963.94 1428.6C932.855 1432.53 899.305 1436.28 863.148 1439.85V1150.88ZM1001.97 1162.12C953.568 1150.17 907.32 1138.51 863.148 1127.13V899.775L1001.97 804.154V1162.12ZM854.007 1124.77C857.044 1125.56 860.091 1126.34 863.148 1127.13V1150.88C860.091 1150.1 857.044 1149.31 854.007 1148.53V1124.77ZM854.002 897.353L854.007 1124.77C737.635 1094.71 635.827 1066.65 547.153 1040.48L547.15 897.353L700.576 734.743L854.002 897.353ZM538.013 1037.77C541.044 1038.67 544.091 1039.58 547.153 1040.48V1064.46C544.091 1063.56 541.044 1062.66 538.013 1061.76V1037.77ZM538.013 886.749V1037.77C487.496 1022.79 441.313 1008.43 399.192 994.669V789.539L538.013 886.749ZM298.244 708.638C360.07 710.874 417.378 711.853 470.425 711.682L449.303 734.69C402.035 734.575 351.601 733.578 297.844 731.638C211.896 734.994 129.077 744.739 76.2665 762.536C49.3128 771.619 32.903 781.939 26.33 792.153C23.3707 796.752 22.4165 801.297 23.3408 806.354C24.3277 811.753 27.6481 818.675 35.0927 827.169C50.1226 844.318 79.4634 865.079 128.049 889.44C176.36 913.665 242.709 940.973 330.737 971.612C352.256 979.102 375.058 986.786 399.192 994.669V1018.86C372.267 1010.11 346.95 1001.61 323.177 993.334C234.637 962.517 167.271 934.836 117.739 910C68.4818 885.301 35.85 862.928 17.7958 842.328C8.69847 831.948 2.69836 821.34 0.714775 810.489C-1.33135 799.296 1.09344 788.869 6.98919 779.707C18.1268 762.399 41.3342 750.038 68.9208 740.741C125.103 721.808 210.873 711.995 297.383 708.639L297.813 708.622L298.244 708.638ZM1002.65 789.501L863.706 889.048L715.124 723.46C789.491 715.952 850.504 704.884 899.775 690.866C903.045 689.936 906.267 688.989 909.44 688.03L1002.65 789.501ZM547.482 878.636L411.323 776.062L449.303 734.69C538.291 734.908 616.056 731.998 683.645 726.356L547.482 878.636ZM700.661 707.342L715.124 723.46C704.886 724.494 694.394 725.459 683.645 726.356L694.837 713.842L694.341 702.342C696.458 702.151 698.565 701.957 700.661 701.761V707.342ZM694.341 702.342C630.011 708.149 555.728 711.406 470.425 711.682L684.682 478.294L694.341 702.342ZM892.085 669.138C841.874 683.298 778.721 694.436 700.661 701.761V460.755L892.085 669.138ZM704.386 162.657C707.614 157.188 714.665 155.37 720.135 158.598C805.833 209.175 895.202 271.928 962.963 337.159C996.842 369.773 1025.61 403.285 1045.79 436.478C1065.93 469.598 1077.99 503.18 1077.22 535.667C1075.67 600.839 1023.57 653.557 909.44 688.03L892.085 669.138C892.551 669.006 893.017 668.876 893.481 668.744C1011.94 635.044 1053.02 586.096 1054.23 535.121C1054.86 508.629 1045 479.436 1026.14 448.427C1007.33 417.49 980.031 385.516 947.012 353.729C880.975 290.157 793.227 228.443 708.444 178.406C702.975 175.178 701.158 168.127 704.386 162.657Z" fill="black"/>
</g>
<defs>
<clipPath id="clip0_945_134">
<rect width="1325" height="1400" fill="white"/>
</clipPath>
</defs>
</svg>
