<svg width="768" height="1269" viewBox="0 0 768 1269" fill="none" xmlns="http://www.w3.org/2000/svg">
<path d="M445.982 1179.9L455.123 1181.83L456.542 1182.13L457.844 1182.77C467.515 1187.54 478.372 1194.65 483.66 1204.15C486.559 1209.37 488.055 1215.85 485.966 1222.75C483.967 1229.35 479.217 1234.54 473.378 1238.62C461.99 1246.57 442.578 1252.97 413.487 1257.98C383.972 1263.06 343.06 1266.92 287.442 1268.85C281.094 1269.06 275.771 1264.1 275.551 1257.75C275.332 1251.4 280.3 1246.08 286.648 1245.86L291.766 1245.68C344.193 1243.72 382.369 1240 409.584 1235.32C438.1 1230.41 453.219 1224.64 460.213 1219.76C461.846 1218.62 462.806 1217.68 463.346 1217.02C463.611 1216.7 463.764 1216.46 463.848 1216.31C463.882 1216.25 463.904 1216.2 463.92 1216.16C463.887 1216.03 463.797 1215.76 463.559 1215.33C461.94 1212.42 457.009 1208.18 448.917 1204.03C444.814 1203.16 440.758 1202.3 436.748 1201.43L451.714 1186.47L444.912 1179.67C445.268 1179.74 445.625 1179.82 445.982 1179.9ZM358.647 1183.39C382.45 1189.33 408.435 1195.35 436.748 1201.43L403.641 1234.54L355.568 1186.47L358.647 1183.39ZM209.109 1027.04C268.488 1030.52 321.001 1031.15 367.034 1029.64L387.299 1051.85C335.85 1054.3 276.288 1054 208.133 1050.02C183.112 1050.06 163.511 1054.5 153.514 1060.76C148.64 1063.82 147.676 1066.24 147.512 1067.31C147.356 1068.34 147.418 1071.47 152.394 1077.17C162.684 1088.96 188.151 1104.88 237.49 1123.2C272.359 1136.14 318.329 1149.99 377.656 1164.38L358.647 1183.39C305.128 1170.02 262.634 1157.06 229.486 1144.76C179.823 1126.33 149.461 1108.79 135.066 1092.29C127.7 1083.85 123.205 1074.14 124.776 1063.84C126.339 1053.6 133.383 1046.24 141.298 1041.28C156.839 1031.54 181.816 1027.02 208.436 1027.02H208.773L209.109 1027.04ZM444.912 1179.67C420.794 1174.52 398.408 1169.41 377.656 1164.38L403.641 1138.39L444.912 1179.67ZM399.357 1065.06L387.299 1051.85C391.369 1051.66 395.388 1051.45 399.357 1051.22V1065.06ZM411.305 1051.96L411.259 1050.48C411.758 1050.44 412.256 1050.41 412.752 1050.38L411.305 1051.96ZM411.259 1050.48C407.343 1050.74 403.376 1050.99 399.357 1051.22V1028.18C403.138 1027.96 406.869 1027.72 410.551 1027.47L411.259 1050.48ZM544.441 905.997C562.443 909.374 581.098 912.828 600.425 916.356L614.156 918.854L615.146 919.034L616.09 919.383C628.073 923.814 638.095 929.812 644.704 937.654C651.637 945.882 654.605 956.003 651.999 966.701C649.545 976.782 642.528 985.793 632.969 993.614C623.298 1001.53 610.148 1008.95 593.694 1015.7C554.938 1031.59 495.406 1044.7 412.752 1050.38L435.454 1025.49C503.546 1019.23 552.71 1007.65 584.966 994.421C600.081 988.222 611.04 981.838 618.405 975.813C625.881 969.696 628.83 964.64 629.653 961.259C630.326 958.497 629.886 955.762 627.116 952.475C624.117 948.916 618.409 944.884 609.026 941.298C579.985 936.027 552.406 930.918 526.223 925.97L544.441 905.997ZM235.143 864.371C273.575 873.928 320.133 884.519 376.121 896.232L399.357 921.654V1028.18C388.959 1028.79 378.187 1029.28 367.034 1029.64L223.435 872.298L235.143 864.371ZM415.186 904.275C449.053 911.141 485.988 918.367 526.223 925.97L435.454 1025.49C427.418 1026.23 419.118 1026.89 410.551 1027.47L407.035 913.199L415.186 904.275ZM575.183 872.294L544.441 905.997C504.206 898.449 467.23 891.277 433.288 884.463L495.644 816.21L575.183 872.294ZM393.498 899.841C396.604 900.482 399.737 901.124 402.897 901.771L399.118 905.737L393.498 899.841ZM421.635 882.113C425.479 882.891 429.363 883.675 433.288 884.463L415.186 904.275C411.044 903.435 406.948 902.6 402.897 901.771L421.635 882.113ZM349.455 867.058C354.716 868.191 360.071 869.336 365.524 870.493L393.498 899.841C387.607 898.627 381.815 897.423 376.121 896.232L349.455 867.058ZM488.344 812.128L421.635 882.113C401.886 878.114 383.198 874.241 365.524 870.493L309.89 812.128L309.889 783.041C378.51 779.617 437.641 775.39 488.343 770.524L488.344 812.128ZM349.455 867.058C316.245 859.906 286.822 853.219 260.836 846.974L304.24 817.59L349.455 867.058ZM223.832 786.72C191.489 787.891 157.364 788.906 121.378 789.753C111.549 790.483 103.157 791.673 96.9838 793.263C96.1343 793.482 95.3536 793.704 94.6381 793.923C99.2175 796.983 106.832 800.917 118.606 805.649C140.492 814.445 174.336 825.081 223.832 837.794V861.121L249.748 844.286C253.373 845.173 257.069 846.069 260.836 846.974L235.143 864.371C175.474 849.532 135.395 837.184 110.03 826.99C94.9615 820.934 84.0097 815.232 77.2006 809.602C73.827 806.813 70.4914 803.254 68.7465 798.75C66.736 793.559 67.2199 788.023 70.1948 783.327C72.7572 779.282 76.6057 776.732 79.8559 775.085C83.2721 773.353 87.2012 772.033 91.2465 770.991C99.3534 768.902 109.362 767.571 119.957 766.795L120.243 766.773L120.528 766.766C156.855 765.913 191.261 764.888 223.832 763.705V786.72ZM574.389 861.121L493.656 808.572V770.008C515.523 767.866 535.792 765.604 554.551 763.234C561.353 762.375 567.965 761.498 574.389 760.609V861.121ZM304.566 808.677L249.748 844.286C240.669 842.064 232.036 839.9 223.832 837.794V786.72C252.084 785.698 278.977 784.556 304.566 783.303V808.677ZM309.889 783.041C308.121 783.129 306.347 783.216 304.566 783.303V760.275C306.346 760.188 308.12 760.1 309.888 760.011L309.889 783.041ZM493.656 770.008C491.895 770.181 490.124 770.353 488.343 770.524L488.342 747.418C490.124 747.245 491.895 747.071 493.656 746.897V770.008ZM223.832 511.957C248.412 519.922 275.274 528.222 304.566 536.868V760.275C279.001 761.531 252.108 762.678 223.832 763.705V511.957ZM574.389 585.26C598.07 591.111 622.64 597.084 648.128 603.178L658.32 605.61L658.728 605.707L659.128 605.834C695.723 617.425 731.293 632.746 750.771 650.439C760.449 659.23 768.534 670.804 767.114 684.556C765.693 698.307 755.288 709.197 740.539 717.909C712.978 734.187 660.479 748.698 574.389 760.609V737.386C658.201 725.606 705.768 711.733 728.841 698.105C741.441 690.664 743.95 684.963 744.236 682.193C744.521 679.425 743.106 674.548 735.306 667.464C719.882 653.453 688.747 639.372 652.559 627.881C625.505 621.438 599.459 615.129 574.389 608.951V585.26ZM309.883 538.434C361.64 553.633 420.862 569.893 488.339 587.279L488.342 747.418C437.855 752.305 378.742 756.562 309.888 760.011L309.883 538.434ZM493.656 588.647C519.366 595.252 546.263 602.02 574.389 608.951V737.386C567.093 738.412 559.522 739.422 551.668 740.415C533.771 742.676 514.46 744.84 493.656 746.897V588.647ZM488.338 563.526C490.105 563.983 491.877 564.441 493.656 564.899V588.647C491.878 588.19 490.106 587.734 488.339 587.279L488.338 563.526ZM574.389 585.26C546.235 578.304 519.338 571.518 493.656 564.899V437.642L574.389 382.032V585.26ZM488.336 436.234L488.338 563.526C420.606 546.016 361.401 529.68 309.882 514.455L309.881 436.234L399.109 341.666L488.336 436.234ZM304.566 512.88C306.329 513.403 308.101 513.928 309.882 514.455L309.883 538.434C308.102 537.911 306.33 537.388 304.566 536.868V512.88ZM304.566 430.068V512.88C275.163 504.144 248.305 495.777 223.832 487.766V373.534L304.566 430.068ZM165.298 321.675C202.949 323.037 237.691 323.593 269.698 323.421L248.575 346.43C222.349 346.315 194.485 345.741 164.909 344.675C115.073 346.63 67.559 352.283 37.5659 362.39C22.0232 367.628 13.9024 373.202 11.0346 377.658C9.92788 379.378 9.68015 380.791 9.98286 382.447C10.3483 384.446 11.7188 387.701 15.7026 392.247C23.8107 401.498 40.1862 413.234 68.3012 427.332C96.1424 441.292 134.516 457.095 185.603 474.877C197.643 479.067 210.378 483.362 223.832 487.766V511.957C207.587 506.692 192.337 501.575 178.042 496.599C126.444 478.64 87.053 462.463 57.9916 447.891C29.2046 433.457 9.53819 420.108 -1.59429 407.406C-7.23068 400.975 -11.28 394.035 -12.6421 386.584C-14.0668 378.79 -12.3503 371.495 -8.30718 365.212C-0.874827 353.662 14.0451 346.046 30.2211 340.594C63.582 329.352 114.04 323.632 164.437 321.676L164.868 321.66L165.298 321.675ZM574.789 373.51L493.982 431.403L411.544 339.53C453.464 335.147 488.091 328.794 516.272 320.777C518.963 320.011 521.602 319.227 524.189 318.426L574.789 373.51ZM310.076 425.349L230.889 365.696L248.575 346.43C300.036 346.657 345.192 345.107 384.611 341.992L310.076 425.349ZM399.161 325.728L411.544 339.53C402.88 340.436 393.905 341.257 384.611 341.992L395.772 329.51L395.276 318.01C396.578 317.893 397.873 317.77 399.161 317.649V325.728ZM395.276 318.01C359.113 321.282 317.448 323.164 269.698 323.421L389.866 192.524L395.276 318.01ZM397.179 6.51431C400.306 1.2155 407.021 -0.655686 412.411 2.16763L412.927 2.45474L417.624 5.2438C466.216 34.278 516.515 69.8898 555.04 106.977C574.923 126.118 591.962 145.929 603.987 165.705C615.967 185.408 623.441 205.857 622.962 226.005C621.996 266.701 589.666 298.164 524.189 318.426L506.833 299.534C507.891 299.243 508.94 298.95 509.978 298.655C578.364 279.199 599.344 251.755 599.968 225.459C600.304 211.306 595.031 195.246 584.334 177.654C573.682 160.134 558.113 141.861 539.089 123.548C502.234 88.0684 453.508 53.48 405.846 24.9997L401.238 22.2633L400.736 21.9489C395.659 18.5953 394.052 11.8131 397.179 6.51431ZM506.833 299.534C478.427 307.344 442.891 313.527 399.161 317.649V182.322L506.833 299.534Z" fill="black"/>
</svg>
