<svg width="2282" height="1929" viewBox="0 0 2282 1929" fill="none" xmlns="http://www.w3.org/2000/svg">
<g clip-path="url(#clip0_944_81)">
<path d="M629.795 1981.34L630.957 1981.53L632.058 1981.95C641.894 1985.72 651.373 1990.1 659.478 1994.99C667.421 1999.79 674.833 2005.54 679.699 2012.34C684.798 2019.47 687.625 2028.7 683.807 2038.5C680.333 2047.42 672.246 2054.32 661.974 2059.89C641.293 2071.12 604.351 2080.93 545.625 2088.79C486.485 2096.71 403.99 2102.79 291.219 2105.82C284.871 2105.99 279.585 2100.98 279.414 2094.63C279.244 2088.28 284.253 2083 290.602 2082.83C402.95 2079.81 484.552 2073.76 542.574 2066C601.008 2058.17 634.297 2048.74 651.001 2039.68C659.421 2035.11 661.816 2031.59 662.374 2030.16C662.588 2029.61 662.998 2028.53 660.992 2025.72C658.751 2022.59 654.369 2018.78 647.591 2014.68C641.239 2010.85 633.455 2007.18 624.9 2003.84C617.429 2002.62 610.036 2001.4 602.72 2000.18L625.816 1982.23L623.306 1980.28L629.795 1981.34ZM443.77 1971.73C492.192 1981.1 545.074 1990.59 602.72 2000.18L528.044 2058.25L430.273 1982.23L443.77 1971.73ZM623.306 1980.28L620.44 1979.81C565.378 1970.75 514.632 1961.78 467.936 1952.94L528.044 1906.21L623.306 1980.28ZM131.56 1736.78C255.701 1742.43 365.317 1743.36 461.21 1740.72L487.265 1762.92C384.74 1766.5 266.237 1765.93 130.785 1759.77C78.7207 1759.79 35.5195 1766.88 11.9535 1778.37C-0.156788 1784.27 -4.02755 1789.81 -4.70671 1793.27C-5.2741 1796.16 -4.42515 1802.5 7.08724 1812.75C18.3112 1822.75 37.5005 1834.38 66.9681 1847.23C96.2823 1860.01 135.139 1873.73 185.175 1888.17C255.952 1908.6 348.747 1930.37 467.936 1952.94L443.77 1971.73C333.534 1950.41 246.408 1929.78 178.797 1910.27C128.159 1895.65 88.2918 1881.62 57.7757 1868.31C27.4136 1855.08 5.6652 1842.29 -8.21257 1829.93C-21.8015 1817.82 -30.22 1803.84 -27.276 1788.84C-24.4436 1774.41 -12.0237 1764.47 1.87533 1757.69C30.2912 1743.84 77.8913 1736.77 131.036 1736.77H131.298L131.56 1736.78ZM519.33 1790.24L487.265 1762.92C498.133 1762.54 508.821 1762.11 519.33 1761.64V1790.24ZM543.632 1769.52L543.274 1760.48C547.208 1760.27 551.115 1760.05 554.996 1759.83L543.632 1769.52ZM543.274 1760.48C535.398 1760.89 527.417 1761.28 519.33 1761.64V1738.62C527.109 1738.27 534.786 1737.89 542.364 1737.49L543.274 1760.48ZM807.513 1544.57C845.47 1550.11 884.851 1555.78 925.703 1561.58L953.618 1565.53L954.415 1565.64L955.189 1565.87C978.202 1572.48 996.454 1581.16 1008.23 1592.02C1020.48 1603.33 1026.39 1617.9 1021.4 1633.82C1016.85 1648.36 1003.93 1661.35 985.813 1672.88C967.359 1684.62 941.832 1695.9 909.191 1706.31C833.517 1730.44 717.044 1750.65 554.996 1759.83L584.152 1734.98C728.877 1725.19 833.5 1706.3 902.203 1684.39C933.767 1674.33 957.274 1663.77 973.467 1653.47C990 1642.95 997.339 1633.7 999.454 1626.95C1001.13 1621.59 1000.11 1615.83 992.632 1608.92C984.764 1601.67 970.71 1594.34 949.579 1588.19C891.638 1580.01 836.566 1572.09 784.241 1564.41L807.513 1544.57ZM195.117 1467.72C268.767 1481.89 356.993 1497.5 461.988 1514.67L519.33 1563.45V1738.62C500.547 1739.46 481.176 1740.17 461.21 1740.72L161.54 1485.4L195.117 1467.72ZM558.383 1530.13C627.264 1540.98 702.392 1552.39 784.241 1564.41L584.152 1734.98C570.576 1735.9 556.648 1736.74 542.364 1737.49L534.947 1550.08L558.383 1530.13ZM876.926 1485.39L807.513 1544.57C725.702 1532.62 650.512 1521.26 581.483 1510.47L715.16 1396.7L876.926 1485.39ZM496.841 1520.33C508.894 1522.28 521.155 1524.24 533.629 1526.22L518.845 1538.28L496.841 1520.33ZM557.54 1506.72C565.438 1507.96 573.418 1509.21 581.483 1510.47L558.383 1530.13C550.041 1528.82 541.789 1527.52 533.629 1526.22L557.54 1506.72ZM427.993 1485.75C438.857 1487.56 449.914 1489.39 461.166 1491.23L496.841 1520.33C485.023 1518.43 473.406 1516.54 461.988 1514.67L427.993 1485.75ZM700.315 1390.25L557.54 1506.72C523.924 1501.42 491.818 1496.26 461.166 1491.23L337.374 1390.25L337.372 1337.55C477.077 1332.12 597.327 1325.42 700.312 1317.72L700.315 1390.25ZM427.993 1485.75C352.166 1473.14 285.75 1461.41 227.795 1450.52L325.881 1398.89L427.993 1485.75ZM875.311 1467.73L711.116 1384.63V1316.9C754.922 1313.56 795.544 1310.03 833.157 1306.33C847.644 1304.91 861.692 1303.46 875.311 1301.98V1467.73ZM162.35 1461.33C165.358 1461.93 168.394 1462.53 171.456 1463.13L162.35 1467.73V1461.33ZM204.974 1446.2C212.431 1447.63 220.037 1449.06 227.795 1450.52L195.117 1467.72C187.056 1466.17 179.17 1464.64 171.456 1463.13L204.974 1446.2ZM162.35 1343.38C96.3679 1345.23 26.7236 1346.85 -46.7497 1348.19C-67.2997 1349.37 -85.4313 1351.32 -99.2106 1354.08C-106.138 1355.47 -111.643 1357 -115.675 1358.59C-116.79 1359.03 -117.737 1359.45 -118.533 1359.85C-117.573 1360.64 -116.331 1361.55 -114.747 1362.57C-105.183 1368.71 -86.965 1376.52 -56.9508 1385.9C-11.3183 1400.16 59.2146 1417.36 162.35 1437.88V1461.33C56.056 1440.27 -16.6858 1422.58 -63.8102 1407.85C-94.1174 1398.38 -114.856 1389.84 -127.184 1381.91C-133.173 1378.06 -138.664 1373.44 -141.549 1367.65C-143.109 1364.52 -143.992 1360.86 -143.523 1356.92C-143.057 1353.01 -141.363 1349.73 -139.275 1347.17C-135.4 1342.41 -129.575 1339.34 -124.111 1337.19C-118.335 1334.91 -111.377 1333.06 -103.728 1331.53C-88.3996 1328.46 -68.9913 1326.42 -47.8561 1325.21L-47.6344 1325.2L-47.4118 1325.2C26.3272 1323.85 96.1911 1322.23 162.35 1320.37V1343.38ZM326.544 1384.79L204.974 1446.2C190.184 1443.37 175.982 1440.6 162.35 1437.88V1343.38C219.823 1341.76 274.517 1339.95 326.544 1337.97V1384.79ZM337.372 1337.55C333.776 1337.69 330.167 1337.83 326.544 1337.97V1314.95C330.166 1314.81 333.775 1314.67 337.371 1314.53L337.372 1337.55ZM162.35 908.301C212.277 920.919 266.905 934.078 326.544 947.793V1314.95C274.535 1316.93 219.841 1318.75 162.35 1320.37V908.301ZM711.116 1316.9C707.536 1317.18 703.934 1317.45 700.312 1317.72V1294.66C703.935 1294.38 707.536 1294.11 711.116 1293.84V1316.9ZM337.361 950.271C442.481 974.32 562.915 1000.07 700.304 1027.62L700.312 1294.66C597.495 1302.37 477.259 1309.09 337.371 1314.53L337.361 950.271ZM875.31 1038.5C922.449 1047.55 971.311 1056.79 1021.95 1066.2L1042.68 1070.05L1043.01 1070.11L1043.34 1070.19C1117.5 1088.45 1187.44 1112.14 1224.94 1138.62C1243.04 1151.4 1258.08 1168.04 1255.41 1188.16C1254.08 1198.12 1248.54 1206.94 1240.29 1214.63C1232.09 1222.29 1220.65 1229.37 1206.13 1236.04C1152.72 1260.57 1048.96 1283.21 875.311 1301.98V1278.85C1047.28 1260.15 1147 1237.89 1196.53 1215.14C1209.82 1209.04 1218.85 1203.18 1224.6 1197.82C1230.31 1192.49 1232.2 1188.22 1232.61 1185.13C1233.41 1179.11 1229.13 1169.74 1211.67 1157.41C1178.13 1133.72 1112.22 1110.86 1038.16 1092.6C981.736 1082.15 927.477 1071.93 875.311 1061.92L875.31 1038.5ZM711.116 1029.79C763.389 1040.24 818.091 1050.95 875.311 1061.92V1278.85C861.013 1280.4 846.216 1281.94 830.908 1283.44C793.968 1287.07 754.093 1290.54 711.116 1293.84V1029.79ZM875.31 1038.5C818.067 1027.52 763.366 1016.79 711.116 1006.33V798.044L875.311 710.103L875.31 1038.5ZM700.303 1004.17C703.895 1004.89 707.5 1005.61 711.116 1006.33V1029.79C707.5 1029.07 703.896 1028.34 700.304 1027.62L700.303 1004.17ZM700.297 795.816L700.303 1004.17C562.708 976.537 442.288 950.74 337.36 926.676L337.357 795.816L518.827 646.267L700.297 795.816ZM326.544 924.19C330.131 925.017 333.736 925.845 337.36 926.676L337.361 950.271C333.737 949.443 330.131 948.618 326.544 947.793V924.19ZM326.544 786.065V924.19C266.815 910.42 212.19 897.222 162.35 884.576V696.663L326.544 786.065ZM42.7806 621.331C116.374 623.401 184.581 624.301 247.705 624.13L220.541 647.138C164.963 647.022 105.667 646.106 42.472 644.331C-59.3479 647.416 -157.922 656.391 -221.033 672.929C-236.761 677.05 -249.963 681.561 -260.316 686.41C-270.822 691.332 -277.562 696.222 -281.247 700.674C-284.579 704.701 -285.191 707.983 -284.389 711.395C-283.411 715.557 -279.875 721.675 -270.901 729.637C-252.957 745.557 -217.945 764.794 -160.276 787.278C-102.944 809.631 -24.2991 834.795 79.9144 862.999C105.805 870.006 133.263 877.196 162.35 884.576V908.301C131.046 900.389 101.589 892.692 73.9056 885.2C-30.7228 856.884 -110.235 831.475 -168.631 808.707C-226.689 786.071 -264.979 765.639 -286.166 746.842C-296.757 737.445 -304.244 727.441 -306.779 716.658C-309.49 705.126 -306.106 694.638 -298.965 686.01C-292.176 677.806 -281.964 671.152 -270.073 665.582C-258.029 659.94 -243.389 655.01 -226.863 650.68C-161.023 633.427 -60.1149 624.416 42.1107 621.332L42.4456 621.321L42.7806 621.331ZM876.125 696.624L711.781 788.176L536.997 636.717C624.08 629.832 695.512 619.729 753.195 606.969C757.738 605.964 762.2 604.941 766.581 603.901L876.125 696.624ZM337.751 778.604L176.703 684.269L220.541 647.138C325.839 647.358 417.798 644.699 497.674 639.536L337.751 778.604ZM518.933 621.063L536.997 636.717C524.228 637.726 511.122 638.667 497.674 639.536L512.039 627.046L511.402 615.562C513.925 615.385 516.435 615.205 518.933 615.023V621.063ZM511.402 615.562C435.523 620.875 348.033 623.858 247.705 624.13L500.029 410.417L511.402 615.562ZM744.61 585.304C685.16 598.207 610.679 608.344 518.933 615.023V394.281L744.61 585.304ZM524.591 120.706C527.157 115.114 533.645 112.563 539.295 114.817L539.839 115.051L544.587 117.236C644.349 163.301 747.855 220.062 826.629 279.027C866.62 308.962 900.653 339.77 924.579 370.366C948.379 400.801 963.157 432.286 962.21 463.278C961.242 494.984 943.953 523.381 909.767 547.351C878.034 569.6 831.06 588.604 766.581 603.901L744.61 585.304C745.822 585.041 747.027 584.777 748.227 584.512C818.343 569.001 866.245 549.776 896.563 528.519C926.583 507.469 938.533 485.114 939.221 462.577C939.931 439.327 928.783 413.079 906.461 384.534C884.266 356.151 851.981 326.733 812.846 297.439C735.84 239.798 633.913 183.816 534.956 138.123L530.246 135.955L529.715 135.694C524.321 132.88 522.025 126.298 524.591 120.706Z" fill="black"/>
</g>
<defs>
<clipPath id="clip0_944_81">
<rect width="2282" height="1929" fill="white"/>
</clipPath>
</defs>
</svg>
