<svg width="500" height="1024" viewBox="0 0 500 1024" fill="none" xmlns="http://www.w3.org/2000/svg">
<path d="M500 64C500 28.6538 471.346 0 436 0H0V1024H436C471.346 1024 500 995.346 500 960V64Z" fill="#343434"/>
<path d="M447.266 70C447.266 61.1635 440.102 54 431.266 54H0V970H431.266C440.102 970 447.266 962.837 447.266 954V70Z" fill="#4F4F4F"/>
<path d="M307.617 261C307.617 225.654 278.963 197 243.617 197H0V827H243.617C278.963 827 307.617 798.346 307.617 763V261Z" fill="#343434"/>
<path d="M258.789 263C258.789 254.163 251.626 247 242.789 247H0V777H242.789C251.626 777 258.789 769.837 258.789 761V263Z" fill="#747474"/>
<path d="M487.305 60.7656L448.635 21.1676L241.333 233.445L280.003 273.043L487.305 60.7656Z" fill="#343434"/>
<path d="M489.258 965.277L450.588 1004.88L243.286 792.598L281.956 753L489.258 965.277Z" fill="#343434"/>
</svg>
