<svg width="1024" height="1024" viewBox="0 0 1024 1024" fill="none" xmlns="http://www.w3.org/2000/svg">
<g clip-path="url(#clip0_130_52)">
<path d="M0 64C0 28.6538 28.6538 0 64 0H500V1024H64C28.6538 1024 0 995.346 0 960V64Z" fill="#343434"/>
<path d="M52.7344 70C52.7344 61.1635 59.8978 54 68.7344 54H500V970H68.7344C59.8978 970 52.7344 962.837 52.7344 954V70Z" fill="#4F4F4F"/>
<path d="M192.383 261C192.383 225.654 221.037 197 256.383 197H500V827H256.383C221.037 827 192.383 798.346 192.383 763V261Z" fill="#343434"/>
<path d="M241.211 263C241.211 254.163 248.374 247 257.211 247H500V777H257.211C248.374 777 241.211 769.837 241.211 761V263Z" fill="#747474"/>
<path d="M12.6953 60.7656L51.3652 21.1676L258.667 233.445L219.997 273.043L12.6953 60.7656Z" fill="#343434"/>
<path d="M10.7422 965.277L49.4121 1004.88L256.714 792.598L218.044 753L10.7422 965.277Z" fill="#343434"/>
<path d="M1024 64C1024 28.6538 995.346 0 960 0H524V1024H960C995.346 1024 1024 995.346 1024 960V64Z" fill="#343434"/>
<path d="M971.266 70C971.266 61.1635 964.102 54 955.266 54H524V970H955.266C964.102 970 971.266 962.837 971.266 954V70Z" fill="#4F4F4F"/>
<path d="M831.617 261C831.617 225.654 802.963 197 767.617 197H524V827H767.617C802.963 827 831.617 798.346 831.617 763V261Z" fill="#343434"/>
<path d="M782.789 263C782.789 254.163 775.626 247 766.789 247H524V777H766.789C775.626 777 782.789 769.837 782.789 761V263Z" fill="#747474"/>
<path d="M1011.3 60.7656L972.635 21.1676L765.333 233.445L804.003 273.043L1011.3 60.7656Z" fill="#343434"/>
<path d="M1013.26 965.277L974.588 1004.88L767.286 792.598L805.956 753L1013.26 965.277Z" fill="#343434"/>
<!--mid-->
    <path d="M526 247H497V777H526V247Z" fill="#747474"/>
<path d="M526 247H497V197H526V247Z" fill="#343434"/>
<path d="M526 54H497V197H526V54Z" fill="#4F4F4F"/>
<path d="M526 54H497V0H526V54Z" fill="#343434"/>
<path d="M526 1024H497V970H526V1024Z" fill="#343434"/>
<path d="M526 827H497V970H526V827Z" fill="#4F4F4F"/>
<path d="M526 827H497V777H526V827Z" fill="#343434"/>
<!--    mid-->
</g>
<defs>
<clipPath id="clip0_130_52">
<rect width="1024" height="1024" fill="white"/>
</clipPath>
</defs>
</svg>
