<svg width="500" height="1024" viewBox="0 0 500 1024" fill="none" xmlns="http://www.w3.org/2000/svg">
<path d="M0 64C0 28.6538 28.6538 0 64 0H500V1024H64C28.6538 1024 0 995.346 0 960V64Z" fill="#343434"/>
<path d="M52.7344 70C52.7344 61.1635 59.8978 54 68.7344 54H500V970H68.7344C59.8978 970 52.7344 962.837 52.7344 954V70Z" fill="#4F4F4F"/>
<path d="M192.383 261C192.383 225.654 221.037 197 256.383 197H500V827H256.383C221.037 827 192.383 798.346 192.383 763V261Z" fill="#343434"/>
<path d="M241.211 263C241.211 254.163 248.374 247 257.211 247H500V777H257.211C248.374 777 241.211 769.837 241.211 761V263Z" fill="#747474"/>
<path d="M12.6953 60.7656L51.3652 21.1676L258.667 233.445L219.997 273.043L12.6953 60.7656Z" fill="#343434"/>
<path d="M10.7422 965.277L49.4121 1004.88L256.714 792.598L218.044 753L10.7422 965.277Z" fill="#343434"/>
</svg>
