<svg width="1024" height="1024" viewBox="0 0 1024 1024" fill="none" xmlns="http://www.w3.org/2000/svg">
<rect x="480" y="285" width="64" height="261" rx="31" fill="black"/>
<path d="M553 396C623.14 396 680 452.86 680 523V546H343V523C343 452.86 399.86 396 470 396H553Z" fill="black"/>
<rect x="331" y="491" width="361" height="22" rx="11" fill="black"/>
<rect x="409" y="385" width="206" height="23" rx="11.5" fill="black"/>
<path d="M511.5 202C553.75 202 588 236.25 588 278.5C588 320.75 553.75 355 511.5 355C469.25 355 435 320.75 435 278.5C435 236.25 469.25 202 511.5 202ZM512 225C482.177 225 458 249.177 458 279C458 308.823 482.177 333 512 333C541.823 333 566 308.823 566 279C566 249.177 541.823 225 512 225Z" fill="black"/>
<path d="M565 540.5H590L565 795.5H540L565 540.5Z" fill="black"/>
<path d="M649 541H674L619 795.5H594L649 541Z" fill="black"/>
<path d="M458 540.5H433L458 795.5H483L458 540.5Z" fill="black"/>
<path d="M374 541H349L404 795.5H429L374 541Z" fill="black"/>
<path d="M404 795.5H619L615 820L409.5 821L404 795.5Z" fill="black"/>
</svg>
