<svg width="1024" height="1024" viewBox="0 0 1024 1024" fill="none" xmlns="http://www.w3.org/2000/svg">
<rect x="465" y="264" width="64" height="261" rx="31" fill="black"/>
<path d="M538 375C608.14 375 665 431.86 665 502V525H328V502C328 431.86 384.86 375 455 375H538Z" fill="black"/>
<rect x="316" y="470" width="361" height="22" rx="11" fill="black"/>
<rect x="394" y="364" width="206" height="23" rx="11.5" fill="black"/>
<path d="M496.5 181C538.75 181 573 215.25 573 257.5C573 299.75 538.75 334 496.5 334C454.25 334 420 299.75 420 257.5C420 215.25 454.25 181 496.5 181ZM497 204C467.177 204 443 228.177 443 258C443 287.823 467.177 312 497 312C526.823 312 551 287.823 551 258C551 228.177 526.823 204 497 204Z" fill="black"/>
<path d="M550 519.5H575L550 774.5H525L550 519.5Z" fill="black"/>
<path d="M634 520H659L604 774.5H579L634 520Z" fill="black"/>
<path d="M443 519.5H418L443 774.5H468L443 519.5Z" fill="black"/>
<path d="M359 520H334L389 774.5H414L359 520Z" fill="black"/>
<path d="M389 774.5H604L600 799L394.5 800L389 774.5Z" fill="black"/>
</svg>
