<svg width="794" height="1246" viewBox="0 0 794 1246" fill="none" xmlns="http://www.w3.org/2000/svg">
<g clip-path="url(#clip0_92_101)">
<path d="M137.709 191.864L381.697 29.2407L625.686 191.864L625.709 838.268L381.721 999.241L137.732 838.268L137.709 191.864Z" fill="black"/>
<path d="M137.732 681.268L381.721 842.241L625.703 681.271L625.709 838.268L381.721 999.241L137.732 838.268L137.709 191.865L137.714 191.861L137.732 681.268Z" fill="#040404"/>
<path d="M516.602 1131.98L521.139 1279.42L661.914 1084.26L581.278 1028.03L516.602 1131.98Z" fill="black"/>
<path d="M592.503 966.458L633.127 945.572L651.176 941.006L615.441 920.69L592.503 966.458Z" fill="black"/>
<path d="M453.502 1062.76L494.126 1041.87L512.175 1037.3L512.175 1001.24L468.708 990.242L453.502 1062.76Z" fill="black"/>
<path d="M644.401 944.31L659.844 960.692L665.99 965.265L674.959 952.383L644.401 944.31Z" fill="black"/>
<path d="M139.708 192.96L383.654 415.241L626.461 192.961L383.653 26.5953L139.708 192.96Z" fill="#0C0C0C"/>
<path d="M197.209 374.741L209.709 388.241V456.241L197.209 442.741V374.741Z" fill="white"/>
<path d="M197.209 459.241L209.709 472.741V486.241L197.209 472.741V459.241Z" fill="white"/>
</g>
<defs>
<clipPath id="clip0_92_101">
<rect width="794" height="1246" fill="white"/>
</clipPath>
</defs>
</svg>
