<svg width="2282" height="1328" viewBox="0 0 2282 1328" fill="none" xmlns="http://www.w3.org/2000/svg">
<path d="M987.314 954C965.714 888.8 1100.65 815.167 1170.81 786.5L1079.31 910L1099.31 1012L993.814 1122.5C1000.65 1093.5 1008.91 1019.2 987.314 954Z" fill="#666666"/>
<path d="M1254 754L1308.5 613L1444.5 806L1254 754Z" fill="#666666"/>
<path d="M921.5 600L946.5 479.5L1017.5 649L978 754L828 630L921.5 600Z" fill="#666666"/>
<path d="M1580.16 725.285L1602.79 720.176L1494.04 806.966L1540 742.5L1580.16 725.285Z" fill="#666666"/>
<path d="M1098.5 609L1101.5 586L1145.5 718L1087.5 614L1098.5 609Z" fill="#666666"/>
<path d="M1091 327.5L1250.5 205L1233.5 626.5L1162 690.5L1091 327.5Z" fill="#666666"/>
<path d="M673.5 644L565 480L831 687L757.5 827L966.5 1002L608 871.5L673.5 644Z" fill="#666666"/>
<path d="M1524.5 990.5L1317 884L1447 900.5L1717 781.5L1524.5 990.5Z" fill="#666666"/>
<path d="M1613.74 439.026L1493.43 453.064L1478.33 647.854L1790.89 674.472L1677.29 517.984L1632.28 538.82L1613.74 439.026Z" fill="#666666"/>
<path d="M330.69 841.345L397.5 890.692L574.637 890.692L484.718 841.345L484.718 590.165L380.824 753.255L416.721 787.484L330.69 841.345Z" fill="#666666"/>
<path d="M1777.66 790.608L1813.56 824.836L1881.56 627.518L1777.66 790.608Z" fill="#666666"/>
<path d="M930.5 888C935.222 888.33 940.117 888.064 944.868 887.382C984.9 883.308 1014.55 841.938 1013.95 802.173C1014.14 797.715 1014.5 793.536 1015.08 789.294C1017.59 768.833 1027.11 750.445 1042.49 736.164C1057.03 722.603 1078.25 704.986 1074.42 681.658C1073.95 676.73 1072.92 672.233 1071.5 667.5C1072.28 672.381 1072.66 676.93 1072.52 681.717C1072.98 704.271 1053.57 716.53 1037.1 730.286C1019.96 744.051 1007.7 765.702 1005.18 787.92C1004.54 792.544 1004.19 797.058 1004.05 801.827C1004.49 838.732 982.552 875.969 944.481 885.522C939.96 886.767 935.219 887.662 930.5 888Z" fill="#666666"/>
<path d="M1324.93 814.945C1321.89 813.641 1318.31 813.674 1314.97 813.991C1300.72 815.825 1287.29 822.414 1276.19 832.15C1265.27 841.049 1256.18 860.105 1265.94 874.995C1266.86 876.564 1267.53 877.794 1268.21 879.234C1269.64 881.981 1270.17 885.491 1269.85 885.549C1269.83 885.605 1269.85 885.638 1269.64 885.804C1269.45 885.958 1269.05 886.176 1268.51 886.358C1267.45 886.728 1265.88 886.962 1264.3 887.06C1257.68 887.4 1250.24 886.418 1242.91 885.717C1228.59 884.975 1211.25 880.338 1198.48 891.531C1196.15 894.306 1195.42 897.836 1195.63 901.206C1196.08 897.836 1197.47 894.794 1199.83 892.862C1211.8 885.444 1227.54 891.415 1241.75 893.608C1249.08 894.961 1256.31 896.554 1264.66 896.547C1266.73 896.501 1268.97 896.344 1271.4 895.634C1273.82 894.931 1277 893.314 1278.69 889.959C1281.51 882.986 1278.7 878.697 1277.26 874.984C1276.38 873.136 1275.58 871.683 1274.51 869.888C1261.69 848.617 1291.22 824.053 1315.33 815.857C1318.41 814.987 1321.72 814.297 1324.93 814.945Z" fill="#666666"/>
<path d="M1254.5 471.563C1253.51 474.688 1253.86 478.143 1254.45 481.366C1257.42 495.05 1264.76 507.645 1274.49 517.722C1283.75 527.734 1300.02 534.741 1312.62 526.307C1314.29 525.305 1315.61 524.57 1317.23 523.791C1320.4 522.33 1324.25 520.75 1327.43 522.174C1330.56 523.771 1331.09 527.988 1331.29 531.518C1331.53 538.916 1330.32 546.263 1329.38 553.599C1328.08 567.882 1322.96 584.534 1332.53 596.882C1334.95 599.207 1338.26 600.21 1341.63 600.283C1338.26 600.144 1334.99 599.074 1332.67 596.745C1323.47 584.476 1328.73 567.983 1330.17 553.709C1331.18 546.374 1332.45 539.047 1332.24 531.476C1332.01 527.882 1331.67 523.347 1327.87 521.288C1323.99 519.618 1320.07 521.426 1316.8 522.888C1315.14 523.687 1313.79 524.436 1312.11 525.454C1300 533.57 1284.36 526.999 1275.04 517.175C1265.32 507.311 1257.84 494.89 1254.64 481.329C1254 478.132 1253.58 474.705 1254.5 471.563Z" fill="#666666"/>
<path d="M789.114 589.271C789.58 589.105 789.963 588.762 790.179 588.316C790.395 587.869 790.425 587.356 790.263 586.889C790.101 586.421 789.759 586.037 789.314 585.82C788.868 585.602 788.355 585.571 787.886 585.728C787.886 585.728 787.886 585.728 787.886 585.728C767.757 592.487 747.696 599.593 727.757 607.08C692.233 620.487 656.863 634.846 622.84 652.078C605.945 660.823 588.816 670.085 574.008 682.641C567.293 689.222 556.694 696.944 560.878 710.864C567.232 722.466 577.899 724.076 587.502 726.961C663.689 740.388 739.296 731.362 815.931 725.873C856.009 722.376 895.035 718.242 934.22 712.414C965.495 707.656 996.907 702.161 1028.09 692.923C1042.91 688.333 1059.06 682.916 1072.76 673.227C1079.71 668.081 1087.19 660.799 1087.08 649.929C1086.57 639.32 1079.77 632.257 1073.47 626.57C1019.52 587.88 955.445 575.309 893.859 560.214L894.291 560.338C879.3 555.104 864.321 549.336 850.505 541.954C844.003 538.377 836.019 533.579 834.024 528.823C833.859 528.296 833.867 528.024 833.928 527.743C834.001 527.453 834.16 527.129 834.581 526.68C835.356 525.838 836.917 524.933 838.467 524.285C841.799 522.9 845.391 522.071 849.417 521.347C880.455 516.797 912.517 518.624 944.781 520.02C965.825 521.105 986.761 522.598 1008.33 524.367C1008.82 524.407 1009.31 524.253 1009.69 523.936C1010.07 523.618 1010.31 523.163 1010.36 522.67C1010.4 522.178 1010.25 521.687 1009.93 521.305C1009.62 520.923 1009.16 520.683 1008.67 520.632C1008.67 520.632 1008.67 520.632 1008.67 520.632C987.113 518.446 966.17 516.555 945.078 515.091C912.62 513.148 880.911 510.686 848.334 514.944C844.011 515.67 840.136 516.452 835.911 518.126C833.925 518.953 831.684 520.022 829.731 521.98C827.663 523.811 826.378 527.912 827.494 530.854C832.198 540.916 840.116 543.846 847.047 548.229C861.436 556.155 876.521 562.15 891.709 567.661L892.141 567.786C952.759 583.169 1017.95 597.667 1067.24 633.659C1072.86 638.605 1077.47 644.596 1077.51 650.137C1077.7 655.614 1073.2 660.987 1067.07 665.39C1055.33 673.686 1039.6 679.134 1025.26 683.478C994.922 692.377 963.753 697.813 932.742 702.524C893.855 708.308 854.999 712.499 815.068 716.127C738.971 721.942 662.491 731.171 589.421 719.032C580.477 716.876 570.858 713.59 568.097 707.801C565.53 702.357 572.298 694.15 578.968 688.27C592.564 676.41 609.422 666.896 625.949 658.066C659.332 640.557 694.365 625.672 729.533 611.686C749.28 603.872 769.161 596.41 789.114 589.271Z" fill="#666666"/>
<path d="M844 714L851 719.6L845.4 721L844 714Z" fill="#666666" stroke="#666666" stroke-width="3" stroke-linecap="round"/>
<path d="M750.518 591.541L760.279 597.67L753.33 600.278L750.518 591.541Z" fill="#666666" stroke="#666666" stroke-width="3" stroke-linecap="round"/>
<path d="M778.926 595.298L774.697 592.974L777.083 591.394L778.926 595.298Z" fill="#666666" stroke="#666666" stroke-width="3" stroke-linecap="round"/>
<path d="M624.467 732.094L620.238 729.77L622.624 728.19L624.467 732.094Z" fill="#666666" stroke="#666666" stroke-width="3" stroke-linecap="round"/>
<path d="M651.613 633.508L661.795 634.194L657.334 639.099L651.613 633.508Z" fill="#666666" stroke="#666666" stroke-width="3" stroke-linecap="round"/>
</svg>
