<svg width="1672" height="1328" viewBox="0 0 1672 1328" fill="none" xmlns="http://www.w3.org/2000/svg">
<path d="M721.314 954C699.714 888.8 834.647 815.167 904.814 786.5L813.314 910L833.314 1012L727.814 1122.5C734.648 1093.5 742.914 1019.2 721.314 954Z" fill="#666666"/>
<path d="M988 754L1042.5 613L1178.5 806L988 754Z" fill="#666666"/>
<path d="M655.5 600L680.5 479.5L751.5 649L712 754L562 630L655.5 600Z" fill="#666666"/>
<path d="M832.5 609L835.5 586L879.5 718L821.5 614L832.5 609Z" fill="#666666"/>
<path d="M825 327.5L984.5 205L967.5 626.5L896 690.5L825 327.5Z" fill="#666666"/>
<path d="M407.5 644L299 480L565 687L491.5 827L700.5 1002L342 871.5L407.5 644Z" fill="#666666"/>
<path d="M1258.5 990.5L1051 884L1181 900.5L1451 781.5L1258.5 990.5Z" fill="#666666"/>
</svg>
