<svg width="2282" height="1328" viewBox="0 0 2282 1328" fill="none" xmlns="http://www.w3.org/2000/svg">
<path d="M987.314 954C965.714 888.8 1100.65 815.167 1170.81 786.5L1079.31 910L1099.31 1012L993.814 1122.5C1000.65 1093.5 1008.91 1019.2 987.314 954Z" fill="#666666"/>
<path d="M1254 754L1308.5 613L1444.5 806L1254 754Z" fill="#666666"/>
<path d="M921.5 600L946.5 479.5L1017.5 649L978 754L828 630L921.5 600Z" fill="#666666"/>
<path d="M1227.32 780.926L1249.95 775.816L1141.2 862.607L1187.16 798.141L1227.32 780.926Z" fill="#666666"/>
<path d="M1784.09 874.97L1764.96 827.026L1711.1 856.822L1660.11 906.744L1784.09 874.97Z" fill="#666666"/>
<path d="M614.325 787.926L574.16 755.5L557.5 822.5L574.16 787.926L614.325 787.926Z" fill="#666666"/>
<path d="M1580.16 725.285L1602.79 720.176L1494.04 806.966L1540 742.5L1580.16 725.285Z" fill="#666666"/>
<path d="M1277.61 978.456L1358 978.456L1265 1048.5L1213 1015L1222 978.456L1277.61 978.456Z" fill="#666666"/>
<path d="M903.519 936.541L881 889L959.221 902L921.284 930.991L903.519 936.541Z" fill="#666666"/>
<path d="M1098.5 609L1101.5 586L1145.5 718L1087.5 614L1098.5 609Z" fill="#666666"/>
<path d="M1585 1070L1488.43 1056.71L1652.97 931L1617.5 1020L1585 1070Z" fill="#666666"/>
<path d="M673.5 644L565 480L831 687L757.5 827L966.5 1002L608 871.5L673.5 644Z" fill="#666666"/>
<path d="M1524.5 990.5L1317 884L1447 900.5L1717 781.5L1524.5 990.5Z" fill="#666666"/>
<path d="M1613.74 439.026L1493.43 453.064L1478.33 647.854L1790.89 674.472L1677.29 517.984L1632.28 538.82L1613.74 439.026Z" fill="#666666"/>
<path d="M330.69 841.345L397.5 890.692L574.637 890.692L484.718 841.345L484.718 590.165L380.824 753.255L416.721 787.484L330.69 841.345Z" fill="#666666"/>
<path d="M1288.5 931L1252.07 912.501L1212.05 909.923L1239.67 938.431L1226.48 954.996L1288.5 931Z" fill="#666666"/>
<path d="M256.917 804.187L295.917 785.113L297.973 811.226L314.122 822.661L262.425 826.074L225.406 846.381L256.917 804.187Z" fill="#666666"/>
<path d="M887.403 1019.35L705.589 953.498L665.577 950.92L693.191 979.428L680.008 995.994L887.403 1019.35Z" fill="#666666"/>
<path d="M1777.66 790.608L1813.56 824.836L1881.56 627.518L1777.66 790.608Z" fill="#666666"/>
<path d="M930.5 888C935.222 888.33 940.117 888.064 944.868 887.382C984.9 883.308 1014.55 841.938 1013.95 802.173C1014.14 797.715 1014.5 793.536 1015.08 789.294C1017.59 768.833 1027.11 750.445 1042.49 736.164C1057.03 722.603 1078.25 704.986 1074.42 681.658C1073.95 676.73 1072.92 672.233 1071.5 667.5C1072.28 672.381 1072.66 676.93 1072.52 681.717C1072.98 704.271 1053.57 716.53 1037.1 730.286C1019.96 744.051 1007.7 765.702 1005.18 787.92C1004.54 792.544 1004.19 797.058 1004.05 801.827C1004.49 838.732 982.552 875.969 944.481 885.522C939.96 886.767 935.219 887.662 930.5 888Z" fill="#666666"/>
<path d="M1324.93 814.945C1321.89 813.641 1318.31 813.674 1314.97 813.991C1300.72 815.825 1287.29 822.414 1276.19 832.15C1265.27 841.049 1256.18 860.105 1265.94 874.995C1266.86 876.564 1267.53 877.794 1268.21 879.234C1269.64 881.981 1270.17 885.491 1269.85 885.549C1269.83 885.605 1269.85 885.638 1269.64 885.804C1269.45 885.958 1269.05 886.176 1268.51 886.358C1267.45 886.728 1265.88 886.962 1264.3 887.06C1257.68 887.4 1250.24 886.418 1242.91 885.717C1228.59 884.975 1211.25 880.338 1198.48 891.531C1196.15 894.306 1195.42 897.836 1195.63 901.206C1196.08 897.836 1197.47 894.794 1199.83 892.862C1211.8 885.444 1227.54 891.415 1241.75 893.608C1249.08 894.961 1256.31 896.554 1264.66 896.547C1266.73 896.501 1268.97 896.344 1271.4 895.634C1273.82 894.931 1277 893.314 1278.69 889.959C1281.51 882.986 1278.7 878.697 1277.26 874.984C1276.38 873.136 1275.58 871.683 1274.51 869.888C1261.69 848.617 1291.22 824.053 1315.33 815.857C1318.41 814.987 1321.72 814.297 1324.93 814.945Z" fill="#666666"/>
<path d="M1254.5 471.563C1253.51 474.688 1253.86 478.143 1254.45 481.366C1257.42 495.05 1264.76 507.645 1274.49 517.722C1283.75 527.734 1300.02 534.741 1312.62 526.307C1314.29 525.305 1315.61 524.57 1317.23 523.791C1320.4 522.33 1324.25 520.75 1327.43 522.174C1330.56 523.771 1331.09 527.988 1331.29 531.518C1331.53 538.916 1330.32 546.263 1329.38 553.599C1328.08 567.882 1322.96 584.534 1332.53 596.882C1334.95 599.207 1338.26 600.21 1341.63 600.283C1338.26 600.144 1334.99 599.074 1332.67 596.745C1323.47 584.476 1328.73 567.983 1330.17 553.709C1331.18 546.374 1332.45 539.047 1332.24 531.476C1332.01 527.882 1331.67 523.347 1327.87 521.288C1323.99 519.618 1320.07 521.426 1316.8 522.888C1315.14 523.687 1313.79 524.436 1312.11 525.454C1300 533.57 1284.36 526.999 1275.04 517.175C1265.32 507.311 1257.84 494.89 1254.64 481.329C1254 478.132 1253.58 474.705 1254.5 471.563Z" fill="#666666"/>
<path d="M1081 732.61C1081.25 731.766 1081.86 731.047 1082.48 730.418C1085.22 727.818 1088.79 726.144 1092.53 725.415C1096.14 724.616 1101.06 725.645 1102.56 729.654C1102.76 730.123 1102.93 730.482 1103.15 730.891C1103.59 731.684 1104.2 732.547 1104.86 732.659C1105.49 732.792 1106.25 732.095 1106.83 731.371C1108.01 729.857 1108.92 728.076 1109.89 726.345C1111.88 723.061 1113.45 718.616 1117.6 717.486C1118.51 717.377 1119.39 717.708 1120.12 718.239C1119.35 717.761 1118.47 717.512 1117.63 717.674C1113.83 718.961 1112.47 723.356 1110.59 726.717C1109.68 728.485 1108.83 730.286 1107.57 731.959C1106.94 732.718 1106.15 733.789 1104.69 733.633C1103.33 733.315 1102.79 732.222 1102.28 731.371C1102.03 730.923 1101.85 730.54 1101.64 730.045C1100.36 726.583 1096.2 725.57 1092.66 726.178C1089.05 726.745 1085.47 728.192 1082.61 730.557C1081.95 731.133 1081.31 731.791 1081 732.61Z" fill="#666666"/>
<path d="M788.5 587.5C613 648.333 372.7 760.2 815.5 721C837.005 719.096 856.979 717.092 875.5 714.997M893 564C826.333 540.5 756.1 499.3 1008.5 522.5M893 564C1043.96 598.251 1238.34 673.962 875.5 714.997M893 564C886.667 581.166 880.5 620.2 906.5 639M875.5 714.997C909.167 734.998 979.6 767.7 992 738.5C1004.4 709.3 961.167 718.667 938 727" stroke="#666666" stroke-width="10" stroke-linecap="round"/>
<path d="M844 714L851 719.6L845.4 721L844 714Z" fill="#666666" stroke="#666666" stroke-width="3" stroke-linecap="round"/>
<path d="M949.564 751.993L944.942 744.313L950.68 744.942L949.564 751.993Z" fill="#666666" stroke="#666666" stroke-width="3" stroke-linecap="round"/>
<path d="M750.518 591.541L760.279 597.67L753.33 600.278L750.518 591.541Z" fill="#666666" stroke="#666666" stroke-width="3" stroke-linecap="round"/>
<path d="M778.926 595.298L774.697 592.974L777.083 591.394L778.926 595.298Z" fill="#666666" stroke="#666666" stroke-width="3" stroke-linecap="round"/>
<path d="M885.467 602.094L881.238 599.77L883.624 598.19L885.467 602.094Z" fill="#666666" stroke="#666666" stroke-width="3" stroke-linecap="round"/>
<path d="M778.926 595.298L774.697 592.974L777.083 591.394L778.926 595.298Z" fill="#666666" stroke="#666666" stroke-width="3" stroke-linecap="round"/>
<path d="M624.467 732.094L620.238 729.77L622.624 728.19L624.467 732.094Z" fill="#666666" stroke="#666666" stroke-width="3" stroke-linecap="round"/>
<path d="M651.613 633.508L661.795 634.194L657.334 639.099L651.613 633.508Z" fill="#666666" stroke="#666666" stroke-width="3" stroke-linecap="round"/>
<rect x="1395.39" y="617.444" width="3.78179" height="15.4226" rx="1.89089" transform="rotate(167.747 1395.39 617.444)" fill="#666666"/>
<path d="M1390.88 611.712C1386.23 612.723 1381.63 609.768 1380.62 605.112C1380.6 605.035 1380.59 604.957 1380.58 604.88L1400.02 600.656C1400.04 600.732 1400.06 600.809 1400.08 600.886C1401.09 605.542 1398.14 610.136 1393.48 611.147L1390.88 611.712Z" fill="#666666"/>
<rect x="1401.41" y="603.681" width="21.3317" height="1.29999" rx="0.649995" transform="rotate(167.747 1401.41 603.681)" fill="#666666"/>
<rect x="1398.24" y="610.779" width="12.1726" height="1.35908" rx="0.67954" transform="rotate(167.747 1398.24 610.779)" fill="#666666"/>
<path d="M1394.61 622.631C1392.17 623.161 1389.77 621.612 1389.24 619.173C1388.71 616.733 1390.26 614.326 1392.69 613.796C1395.13 613.266 1397.54 614.815 1398.07 617.254C1398.6 619.694 1397.05 622.101 1394.61 622.631ZM1394.3 621.308C1396.02 620.934 1397.11 619.235 1396.74 617.513C1396.36 615.791 1394.66 614.698 1392.94 615.072C1391.22 615.446 1390.13 617.146 1390.5 618.868C1390.87 620.59 1392.57 621.682 1394.3 621.308Z" fill="#666666"/>
<path d="M1386.15 595.165L1384.71 595.478L1384.08 589.032L1385.53 588.718L1386.15 595.165Z" fill="#666666"/>
<path d="M1387.28 603.757L1385.84 604.07L1384.64 601.107L1386.08 600.794L1387.28 603.757Z" fill="#666666"/>
<path d="M1381.79 592.619L1380.35 592.933L1380.96 589.708L1382.41 589.395L1381.79 592.619Z" fill="#666666"/>
<path d="M1393.46 602.415L1394.9 602.101L1390.26 587.69L1388.82 588.004L1393.46 602.415Z" fill="#666666"/>
<path d="M1398.3 601.332L1399.75 601.018L1393.38 587.012L1391.94 587.326L1398.3 601.332Z" fill="#666666"/>
<path d="M1393.38 587.013L1380.96 589.709L1380.89 588.244L1392.74 585.609L1393.38 587.013Z" fill="#666666"/>
<rect x="2097.07" y="687.771" width="6.20499" height="25.3047" rx="3.10249" transform="rotate(2.91273 2097.07 687.771)" fill="#666666"/>
<path d="M2101.75 698.785C2109.56 699.182 2115.56 705.834 2115.17 713.641C2115.16 713.77 2115.15 713.9 2115.14 714.028L2082.52 712.368C2082.53 712.239 2082.53 712.11 2082.54 711.981C2082.93 704.173 2089.59 698.166 2097.39 698.563L2101.75 698.785Z" fill="#666666"/>
<rect x="2081.62" y="706.983" width="35" height="2.13296" rx="1.06648" transform="rotate(2.91273 2081.62 706.983)" fill="#666666"/>
<rect x="2089.7" y="697.104" width="19.9723" height="2.22992" rx="1.11496" transform="rotate(2.91273 2089.7 697.104)" fill="#666666"/>
<path d="M2100.53 679.89C2104.62 680.098 2107.77 683.583 2107.56 687.674C2107.35 691.765 2103.86 694.913 2099.77 694.704C2095.68 694.496 2092.53 691.011 2092.74 686.92C2092.95 682.829 2096.44 679.682 2100.53 679.89ZM2100.46 682.12C2097.58 681.973 2095.12 684.195 2094.97 687.082C2094.82 689.97 2097.04 692.43 2099.93 692.577C2102.82 692.724 2105.28 690.502 2105.43 687.614C2105.57 684.727 2103.35 682.267 2100.46 682.12Z" fill="#666666"/>
<path d="M2104.04 712.929L2106.46 713.052L2102.78 737.62L2100.36 737.497L2104.04 712.929Z" fill="#666666"/>
<path d="M2112.17 713.391L2114.59 713.514L2108.01 737.886L2105.59 737.763L2112.17 713.391Z" fill="#666666"/>
<path d="M2093.68 712.401L2091.26 712.278L2092.42 737.092L2094.84 737.215L2093.68 712.401Z" fill="#666666"/>
<path d="M2085.54 712.037L2083.12 711.913L2087.19 736.827L2089.61 736.95L2085.54 712.037Z" fill="#666666"/>
<path d="M2087.19 736.826L2108.01 737.885L2107.5 740.238L2087.6 739.322L2087.19 736.826Z" fill="#666666"/>
<rect x="571.066" y="493.771" width="6.20499" height="25.3047" rx="3.10249" transform="rotate(2.91273 571.066 493.771)" fill="#666666"/>
<path d="M575.75 504.785C583.558 505.182 589.564 511.834 589.167 519.641C589.161 519.77 589.153 519.9 589.143 520.028L556.523 518.368C556.526 518.239 556.53 518.11 556.537 517.981C556.934 510.173 563.585 504.166 571.393 504.563L575.75 504.785Z" fill="#666666"/>
<rect x="555.625" y="512.983" width="35" height="2.13296" rx="1.06648" transform="rotate(2.91273 555.625 512.983)" fill="#666666"/>
<rect x="563.701" y="503.104" width="19.9723" height="2.22992" rx="1.11496" transform="rotate(2.91273 563.701 503.104)" fill="#666666"/>
<path d="M574.527 485.89C578.617 486.098 581.765 489.583 581.557 493.674C581.349 497.765 577.864 500.913 573.773 500.704C569.682 500.496 566.534 497.011 566.742 492.92C566.95 488.829 570.436 485.682 574.527 485.89ZM574.463 488.12C571.575 487.973 569.115 490.195 568.968 493.082C568.821 495.97 571.043 498.43 573.931 498.577C576.818 498.724 579.279 496.502 579.426 493.614C579.572 490.727 577.351 488.267 574.463 488.12Z" fill="#666666"/>
<path d="M578.038 518.929L580.459 519.052L576.782 543.62L574.361 543.497L578.038 518.929Z" fill="#666666"/>
<path d="M586.171 519.391L588.592 519.514L582.013 543.886L579.592 543.763L586.171 519.391Z" fill="#666666"/>
<path d="M567.679 518.401L565.258 518.278L566.423 543.092L568.843 543.215L567.679 518.401Z" fill="#666666"/>
<path d="M559.542 518.037L557.121 517.913L561.193 542.827L563.613 542.95L559.542 518.037Z" fill="#666666"/>
<path d="M561.193 542.826L582.011 543.885L581.503 546.238L561.6 545.322L561.193 542.826Z" fill="#666666"/>
<rect x="1246.89" y="809.325" width="1.05602" height="4.30656" rx="0.528008" transform="rotate(169.236 1246.89 809.325)" fill="#666666"/>
<path d="M1245.67 807.692C1244.36 807.94 1243.1 807.082 1242.85 805.775C1242.85 805.754 1242.85 805.732 1242.84 805.71L1248.3 804.673C1248.31 804.694 1248.31 804.715 1248.32 804.737C1248.56 806.044 1247.71 807.305 1246.4 807.553L1245.67 807.692Z" fill="#666666"/>
<rect x="1248.67" y="805.527" width="5.95659" height="0.363005" rx="0.181503" transform="rotate(169.236 1248.67 805.527)" fill="#666666"/>
<rect x="1247.73" y="807.485" width="3.39905" height="0.379506" rx="0.189753" transform="rotate(169.236 1247.73 807.485)" fill="#666666"/>
<path d="M1246.63 810.767C1245.95 810.897 1245.29 810.448 1245.16 809.763C1245.03 809.078 1245.48 808.417 1246.16 808.287C1246.85 808.157 1247.51 808.607 1247.64 809.292C1247.77 809.977 1247.32 810.637 1246.63 810.767ZM1246.55 810.396C1247.04 810.304 1247.35 809.837 1247.26 809.354C1247.17 808.871 1246.7 808.554 1246.22 808.645C1245.74 808.737 1245.42 809.203 1245.51 809.687C1245.6 810.17 1246.07 810.488 1246.55 810.396Z" fill="#666666"/>
<path d="M1244.72 805.446L1244.32 805.523L1243.94 801.313L1244.34 801.236L1244.72 805.446Z" fill="#666666"/>
<path d="M1243.36 805.697L1242.96 805.774L1243.06 801.479L1243.47 801.402L1243.36 805.697Z" fill="#666666"/>
<path d="M1246.46 805.116L1246.86 805.039L1245.67 800.983L1245.27 801.06L1246.46 805.116Z" fill="#666666"/>
<path d="M1247.82 804.849L1248.22 804.772L1246.55 800.816L1246.14 800.893L1247.82 804.849Z" fill="#666666"/>
<path d="M1246.55 800.816L1243.06 801.479L1243.05 801.069L1246.38 800.42L1246.55 800.816Z" fill="#666666"/>
<rect x="1192.19" y="740.792" width="0.857179" height="4.02224" rx="0.428589" transform="rotate(44.1665 1192.19 740.792)" fill="#666666"/>
<path d="M1191.3 742.315C1192.19 743.18 1192.21 744.61 1191.35 745.501C1191.33 745.516 1191.32 745.528 1191.3 745.542L1188.07 742.402C1188.08 742.387 1188.1 742.371 1188.11 742.356C1188.98 741.465 1190.41 741.449 1191.3 742.315Z" fill="#666666"/>
<rect x="1188.54" y="741.678" width="4.83502" height="0.33904" rx="0.16952" transform="rotate(44.1665 1188.54 741.678)" fill="#666666"/>
<rect x="1190.43" y="741.234" width="2.75904" height="0.35445" rx="0.177225" transform="rotate(44.1665 1190.43 741.234)" fill="#666666"/>
<path d="M1193.38 740.168C1193.79 740.562 1193.75 741.26 1193.3 741.727C1192.84 742.194 1192.15 742.254 1191.74 741.86C1191.33 741.465 1191.37 740.767 1191.83 740.3C1192.28 739.833 1192.98 739.774 1193.38 740.168ZM1193.14 740.426C1192.85 740.148 1192.36 740.191 1192.04 740.52C1191.72 740.85 1191.69 741.342 1191.98 741.621C1192.27 741.899 1192.76 741.857 1193.08 741.528C1193.4 741.198 1193.43 740.705 1193.14 740.426Z" fill="#666666"/>
<path d="M1190.26 744.409L1190.5 744.642L1187.52 747.228L1187.28 746.995L1190.26 744.409Z" fill="#666666"/>
<path d="M1191.06 745.199L1191.3 745.432L1188.04 747.732L1187.8 747.499L1191.06 745.199Z" fill="#666666"/>
<path d="M1189.23 743.41L1188.99 743.177L1186.49 746.229L1186.73 746.462L1189.23 743.41Z" fill="#666666"/>
<path d="M1188.42 742.632L1188.18 742.399L1185.98 745.726L1186.22 745.959L1188.42 742.632Z" fill="#666666"/>
<path d="M1185.98 745.726L1188.04 747.732L1187.74 747.965L1185.76 746.059L1185.98 745.726Z" fill="#666666"/>
<rect x="1354.06" y="794.92" width="1.05602" height="4.30656" rx="0.528008" transform="rotate(44.1665 1354.06 794.92)" fill="#666666"/>
<path d="M1353.43 796.856C1354.38 797.783 1354.4 799.308 1353.48 800.263C1353.46 800.278 1353.44 800.292 1353.43 800.307L1349.44 796.437C1349.46 796.421 1349.47 796.404 1349.49 796.388C1350.41 795.434 1351.94 795.411 1352.89 796.338L1353.43 796.856Z" fill="#666666"/>
<rect x="1349.93" y="795.645" width="5.95659" height="0.363005" rx="0.181503" transform="rotate(44.1665 1349.93 795.645)" fill="#666666"/>
<rect x="1352.07" y="795.287" width="3.39905" height="0.379506" rx="0.189753" transform="rotate(44.1665 1352.07 795.287)" fill="#666666"/>
<path d="M1355.39 794.3C1355.89 794.786 1355.9 795.585 1355.42 796.085C1354.93 796.585 1354.13 796.597 1353.63 796.111C1353.13 795.625 1353.12 794.826 1353.61 794.326C1354.09 793.826 1354.89 793.814 1355.39 794.3ZM1355.13 794.578C1354.78 794.235 1354.22 794.244 1353.87 794.597C1353.53 794.95 1353.54 795.514 1353.89 795.856C1354.24 796.199 1354.81 796.191 1355.15 795.838C1355.49 795.485 1355.49 794.921 1355.13 794.578Z" fill="#666666"/>
<path d="M1352.13 798.921L1352.43 799.209L1349.2 801.939L1348.91 801.652L1352.13 798.921Z" fill="#666666"/>
<path d="M1353.12 799.893L1353.42 800.18L1349.84 802.56L1349.54 802.273L1353.12 799.893Z" fill="#666666"/>
<path d="M1350.87 797.691L1350.57 797.404L1347.93 800.709L1348.23 800.997L1350.87 797.691Z" fill="#666666"/>
<path d="M1349.87 796.731L1349.57 796.444L1347.3 800.088L1347.59 800.376L1349.87 796.731Z" fill="#666666"/>
<path d="M1347.3 800.088L1349.84 802.56L1349.51 802.804L1347.07 800.453L1347.3 800.088Z" fill="#666666"/>
<rect x="1627.57" y="732.268" width="2.00309" height="8.16887" rx="1.00155" transform="rotate(-58.9052 1627.57 732.268)" fill="#666666"/>
<path d="M1631.42 732.614C1632.72 730.453 1635.53 729.758 1637.69 731.061C1637.73 731.082 1637.76 731.106 1637.8 731.128L1632.36 740.154C1632.32 740.134 1632.28 740.114 1632.25 740.092C1630.09 738.789 1629.39 735.981 1630.69 733.82L1631.42 732.614Z" fill="#666666"/>
<rect x="1630.68" y="739.591" width="11.2987" height="0.688564" rx="0.344282" transform="rotate(-58.9052 1630.68 739.591)" fill="#666666"/>
<rect x="1629.1" y="735.786" width="6.44746" height="0.719862" rx="0.359931" transform="rotate(-58.9052 1629.1 735.786)" fill="#666666"/>
<path d="M1625.86 730.081C1626.54 728.949 1628.01 728.584 1629.14 729.267C1630.28 729.95 1630.64 731.422 1629.96 732.554C1629.27 733.687 1627.8 734.051 1626.67 733.368C1625.54 732.685 1625.17 731.214 1625.86 730.081ZM1626.48 730.44C1626 731.239 1626.26 732.277 1627.06 732.759C1627.86 733.241 1628.9 732.985 1629.38 732.186C1629.86 731.386 1629.6 730.347 1628.8 729.865C1628 729.383 1626.96 729.641 1626.48 730.44Z" fill="#666666"/>
<path d="M1637.16 731.876L1637.57 731.206L1643.5 736.793L1643.1 737.463L1637.16 731.876Z" fill="#666666"/>
<path d="M1634.06 736.987L1633.66 737.657L1640.9 741.109L1641.3 740.439L1634.06 736.987Z" fill="#666666"/>
<path d="M1632.72 739.246L1632.32 739.916L1640.03 742.555L1640.43 741.885L1632.72 739.246Z" fill="#666666"/>
<path d="M1640.03 742.556L1643.5 736.793L1644.09 737.297L1640.8 742.82L1640.03 742.556Z" fill="#666666"/>
<rect x="1235.32" y="620.289" width="1.05602" height="5.15492" rx="0.528008" transform="rotate(18.8228 1235.32 620.289)" fill="#666666"/>
<path d="M1235.11 622.533C1236.56 623.028 1237.34 624.608 1236.84 626.061L1236.78 626.234L1231.52 624.44L1231.58 624.267C1232.07 622.814 1233.65 622.037 1235.11 622.533Z" fill="#666666"/>
<rect x="1231.68" y="623.347" width="5.95659" height="0.434514" rx="0.217257" transform="rotate(18.8228 1231.68 623.347)" fill="#666666"/>
<rect x="1233.58" y="621.78" width="3.39905" height="0.454265" rx="0.227132" transform="rotate(18.8228 1233.58 621.78)" fill="#666666"/>
<path d="M1236.34 618.904C1237 619.129 1237.32 619.952 1237.05 620.742C1236.78 621.531 1236.03 621.989 1235.37 621.764C1234.71 621.539 1234.39 620.717 1234.66 619.927C1234.93 619.137 1235.68 618.679 1236.34 618.904ZM1236.2 619.338C1235.74 619.179 1235.21 619.502 1235.02 620.059C1234.83 620.617 1235.05 621.198 1235.52 621.356C1235.98 621.515 1236.51 621.192 1236.7 620.634C1236.89 620.077 1236.67 619.497 1236.2 619.338Z" fill="#666666"/>
<path d="M1235.02 625.518L1235.41 625.651L1233.39 630.285L1233 630.152L1235.02 625.518Z" fill="#666666"/>
<path d="M1236.33 625.973L1236.72 626.107L1234.24 630.571L1233.85 630.438L1236.33 625.973Z" fill="#666666"/>
<path d="M1233.35 624.948L1232.96 624.815L1231.72 629.715L1232.12 629.848L1233.35 624.948Z" fill="#666666"/>
<path d="M1232.03 624.51L1231.64 624.377L1230.88 629.427L1231.27 629.56L1232.03 624.51Z" fill="#666666"/>
<path d="M1230.88 629.427L1234.24 630.571L1234.02 631.008L1230.8 629.933L1230.88 629.427Z" fill="#666666"/>
<rect x="1012.61" y="724.21" width="0.468126" height="1.27355" rx="0.234063" transform="rotate(44.1665 1012.61 724.21)" fill="#666666"/>
<path d="M1012.77 725.123C1013.05 725.397 1013.06 725.848 1012.78 726.13C1012.78 726.135 1012.77 726.138 1012.77 726.143L1011 724.428C1011.01 724.423 1011.01 724.417 1011.01 724.413C1011.29 724.131 1011.74 724.124 1012.02 724.397L1012.77 725.123Z" fill="#666666"/>
<rect x="1011.12" y="724.172" width="2.64052" height="0.107349" rx="0.0536744" transform="rotate(44.1665 1011.12 724.172)" fill="#666666"/>
<rect x="1011.89" y="724.198" width="1.50678" height="0.112228" rx="0.0561141" transform="rotate(44.1665 1011.89 724.198)" fill="#666666"/>
<path d="M1013.05 724.079C1013.27 724.294 1013.34 724.589 1013.19 724.737C1013.05 724.885 1012.75 724.83 1012.53 724.615C1012.31 724.4 1012.25 724.105 1012.39 723.957C1012.53 723.81 1012.83 723.864 1013.05 724.079ZM1012.98 724.163C1012.82 724.011 1012.61 723.972 1012.51 724.076C1012.41 724.181 1012.45 724.389 1012.61 724.541C1012.77 724.693 1012.97 724.731 1013.08 724.627C1013.18 724.522 1013.13 724.315 1012.98 724.163Z" fill="#666666"/>
<path d="M1012.18 725.538L1012.31 725.665L1011.32 726.43L1011.18 726.303L1012.18 725.538Z" fill="#666666"/>
<path d="M1012.62 725.968L1012.75 726.095L1011.6 726.706L1011.47 726.578L1012.62 725.968Z" fill="#666666"/>
<path d="M1011.62 724.993L1011.49 724.865L1010.76 725.885L1010.89 726.013L1011.62 724.993Z" fill="#666666"/>
<path d="M1011.18 724.566L1011.05 724.439L1010.47 725.61L1010.6 725.737L1011.18 724.566Z" fill="#666666"/>
<path d="M1010.47 725.609L1011.6 726.705L1011.49 726.77L1010.41 725.727L1010.47 725.609Z" fill="#666666"/>
<rect x="1153.02" y="675.519" width="0.795566" height="2.90442" rx="0.397783" transform="rotate(-13.6345 1153.02 675.519)" fill="#666666"/>
<path d="M1154.15 676.516C1155.02 676.304 1155.9 676.84 1156.11 677.712C1156.11 677.726 1156.11 677.741 1156.12 677.756L1152.05 678.743C1152.05 678.728 1152.04 678.714 1152.04 678.699C1151.83 677.827 1152.36 676.949 1153.23 676.737L1154.15 676.516Z" fill="#666666"/>
<rect x="1151.76" y="678.183" width="4.48749" height="0.244817" rx="0.122408" transform="rotate(-13.6345 1151.76 678.183)" fill="#666666"/>
<rect x="1152.42" y="676.808" width="2.56073" height="0.255945" rx="0.127973" transform="rotate(-13.6345 1152.42 676.808)" fill="#666666"/>
<path d="M1153.18 674.529C1153.69 674.405 1154.2 674.675 1154.31 675.132C1154.42 675.589 1154.09 676.06 1153.58 676.184C1153.07 676.308 1152.57 676.037 1152.46 675.58C1152.35 675.124 1152.67 674.653 1153.18 674.529ZM1153.25 674.777C1152.89 674.864 1152.66 675.196 1152.74 675.519C1152.82 675.841 1153.17 676.031 1153.53 675.944C1153.89 675.857 1154.12 675.525 1154.04 675.202C1153.96 674.88 1153.61 674.69 1153.25 674.777Z" fill="#666666"/>
<path d="M1154.72 678.032L1155.02 677.959L1155.38 680.79L1155.08 680.863L1154.72 678.032Z" fill="#666666"/>
<path d="M1153.42 678.346L1153.12 678.419L1154.09 681.103L1154.39 681.03L1153.42 678.346Z" fill="#666666"/>
<path d="M1152.41 678.598L1152.11 678.671L1153.44 681.262L1153.74 681.189L1152.41 678.598Z" fill="#666666"/>
<path d="M1153.44 681.262L1156.04 680.632L1156.05 680.908L1153.57 681.521L1153.44 681.262Z" fill="#666666"/>
<rect x="1169.07" y="782.936" width="0.795566" height="2.90442" rx="0.397783" transform="rotate(-24.5429 1169.07 782.936)" fill="#666666"/>
<path d="M1170.36 783.7C1171.18 783.328 1172.14 783.687 1172.52 784.504C1172.52 784.517 1172.53 784.532 1172.53 784.545L1168.73 786.284C1168.72 786.27 1168.71 786.257 1168.71 786.244C1168.33 785.428 1168.69 784.463 1169.51 784.091L1170.36 783.7Z" fill="#666666"/>
<rect x="1168.34" y="785.79" width="4.48749" height="0.244817" rx="0.122408" transform="rotate(-24.5429 1168.34 785.79)" fill="#666666"/>
<rect x="1168.73" y="784.313" width="2.56073" height="0.255945" rx="0.127973" transform="rotate(-24.5429 1168.73 784.313)" fill="#666666"/>
<path d="M1169.04 781.932C1169.52 781.714 1170.06 781.884 1170.26 782.312C1170.46 782.739 1170.23 783.263 1169.75 783.481C1169.27 783.699 1168.72 783.529 1168.53 783.102C1168.33 782.674 1168.56 782.15 1169.04 781.932ZM1169.15 782.163C1168.82 782.317 1168.65 782.686 1168.79 782.988C1168.93 783.29 1169.32 783.409 1169.65 783.255C1169.99 783.101 1170.15 782.732 1170.01 782.43C1169.88 782.129 1169.49 782.009 1169.15 782.163Z" fill="#666666"/>
<path d="M1171.21 785.083L1171.49 784.954L1172.39 787.664L1172.11 787.793L1171.21 785.083Z" fill="#666666"/>
<path d="M1170 785.635L1169.72 785.764L1171.18 788.216L1171.46 788.087L1170 785.635Z" fill="#666666"/>
<path d="M1169.05 786.074L1168.77 786.203L1170.57 788.495L1170.85 788.366L1169.05 786.074Z" fill="#666666"/>
<path d="M1170.57 788.495L1173 787.385L1173.07 787.654L1170.75 788.725L1170.57 788.495Z" fill="#666666"/>
<rect x="807.773" y="830.265" width="4.60083" height="17.5038" rx="2.30041" transform="rotate(-104.687 807.773 830.265)" fill="#666666"/>
<path d="M813.815 823.939C812.444 818.708 815.573 813.356 820.804 811.985C820.89 811.962 820.976 811.944 821.061 811.924L827.2 835.346C827.116 835.371 827.032 835.397 826.947 835.42C821.716 836.791 816.363 833.662 814.992 828.431L813.815 823.939Z" fill="#666666"/>
<rect x="823.852" y="837.126" width="25.9516" height="1.47541" rx="0.737706" transform="rotate(-104.687 823.852 837.126)" fill="#666666"/>
<rect x="815.555" y="833.502" width="14.8089" height="1.54248" rx="0.771238" transform="rotate(-104.687 815.555 833.502)" fill="#666666"/>
<path d="M801.811 829.479C801.041 826.541 802.638 823.577 805.379 822.859C808.119 822.14 810.966 823.939 811.736 826.877C812.506 829.815 810.908 832.78 808.167 833.498C805.427 834.216 802.581 832.416 801.811 829.479ZM803.291 829.05C803.835 831.124 805.845 832.394 807.779 831.887C809.714 831.379 810.841 829.287 810.298 827.214C809.754 825.14 807.745 823.87 805.811 824.377C803.876 824.884 802.748 826.976 803.291 829.05Z" fill="#666666"/>
<path d="M822.8 820.012L822.345 818.273L839.343 815.676L839.798 817.414L822.8 820.012Z" fill="#666666"/>
<path d="M821.299 814.157L820.843 812.419L839 814.158L839.456 815.896L821.299 814.157Z" fill="#666666"/>
<path d="M824.747 827.448L825.202 829.187L841.289 823.113L840.834 821.374L824.747 827.448Z" fill="#666666"/>
<path d="M826.309 833.282L826.765 835.02L842.272 826.868L841.817 825.13L826.309 833.282Z" fill="#666666"/>
<path d="M842.278 826.866L836.839 814.638L838.501 814.499L843.832 826.05L842.278 826.866Z" fill="#666666"/>
<rect x="603.646" y="831.188" width="2.16605" height="8.24071" rx="1.08303" transform="rotate(-34.0407 603.646 831.188)" fill="#666666"/>
<path d="M607.399 832.885C609.508 831.46 612.374 832.015 613.799 834.125C613.822 834.159 613.844 834.194 613.866 834.229L604.42 840.61C604.396 840.577 604.371 840.543 604.348 840.509C602.923 838.399 603.478 835.534 605.587 834.109L607.399 832.885Z" fill="#666666"/>
<rect x="603.107" y="839.401" width="12.2179" height="0.694619" rx="0.34731" transform="rotate(-34.0407 603.107 839.401)" fill="#666666"/>
<rect x="603.424" y="835.15" width="6.97199" height="0.726193" rx="0.363096" transform="rotate(-34.0407 603.424 835.15)" fill="#666666"/>
<path d="M603.066 828.416C604.251 827.616 605.816 827.863 606.563 828.968C607.31 830.074 606.954 831.618 605.77 832.419C604.585 833.219 603.019 832.973 602.272 831.867C601.525 830.762 601.881 829.217 603.066 828.416ZM603.487 829.008C602.651 829.573 602.4 830.663 602.927 831.443C603.454 832.223 604.559 832.398 605.395 831.833C606.231 831.268 606.483 830.177 605.955 829.397C605.428 828.617 604.323 828.443 603.487 829.008Z" fill="#666666"/>
<path d="M610.547 836.264L611.248 835.79L615.054 842.935L614.353 843.409L610.547 836.264Z" fill="#666666"/>
<path d="M612.912 834.684L613.613 834.21L616.568 841.91L615.867 842.384L612.912 834.684Z" fill="#666666"/>
<path d="M607.547 838.289L606.846 838.763L612.054 844.961L612.755 844.487L607.547 838.289Z" fill="#666666"/>
<path d="M605.2 839.893L604.499 840.366L610.539 845.983L611.24 845.509L605.2 839.893Z" fill="#666666"/>
<path d="M610.541 845.984L616.571 841.911L616.892 842.628L611.146 846.547L610.541 845.984Z" fill="#666666"/>
<rect x="1102.03" y="945.317" width="3.54639" height="13.4922" rx="1.77319" transform="rotate(-143.976 1102.03 945.317)" fill="#666666"/>
<path d="M1102.54 938.595C1099.17 936.144 1098.43 931.424 1100.88 928.053C1100.92 927.997 1100.96 927.944 1101 927.89L1116.1 938.867C1116.06 938.923 1116.02 938.98 1115.98 939.035C1113.53 942.406 1108.81 943.152 1105.44 940.7L1102.54 938.595Z" fill="#666666"/>
<rect x="1114.97" y="941.562" width="20.0039" height="1.13727" rx="0.568635" transform="rotate(-143.976 1114.97 941.562)" fill="#666666"/>
<rect x="1108.25" y="943.451" width="11.4149" height="1.18896" rx="0.594482" transform="rotate(-143.976 1108.25 943.451)" fill="#666666"/>
<path d="M1098.08 947.761C1096.19 946.384 1095.7 943.835 1096.98 942.069C1098.27 940.302 1100.84 939.987 1102.73 941.364C1104.63 942.741 1105.12 945.289 1103.84 947.055C1102.55 948.822 1099.98 949.138 1098.08 947.761ZM1098.76 946.782C1100.09 947.754 1101.91 947.53 1102.82 946.283C1103.73 945.037 1103.38 943.238 1102.04 942.266C1100.7 941.294 1098.89 941.517 1097.98 942.764C1097.07 944.011 1097.42 945.81 1098.76 946.782Z" fill="#666666"/>
<path d="M1105.99 931.866L1104.86 931.051L1113.74 921.205L1114.86 922.019L1105.99 931.866Z" fill="#666666"/>
<path d="M1102.23 929.108L1101.11 928.293L1111.31 919.445L1112.43 920.26L1102.23 929.108Z" fill="#666666"/>
<path d="M1110.77 935.353L1111.9 936.168L1118.53 924.692L1117.41 923.877L1110.77 935.353Z" fill="#666666"/>
<path d="M1114.56 938.07L1115.68 938.884L1120.95 926.452L1119.83 925.637L1114.56 938.07Z" fill="#666666"/>
<path d="M1120.95 926.449L1111.32 919.443L1112.24 918.549L1121.48 925.204L1120.95 926.449Z" fill="#666666"/>
<rect x="1679.62" y="921.96" width="1.64194" height="6.24673" rx="0.820971" transform="rotate(-154.684 1679.62 921.96)" fill="#666666"/>
<path d="M1679.28 918.858C1677.53 918.032 1676.79 915.949 1677.61 914.204C1677.63 914.176 1677.64 914.149 1677.66 914.121L1685.47 917.816C1685.45 917.844 1685.44 917.873 1685.43 917.901C1684.6 919.646 1682.52 920.392 1680.78 919.566L1679.28 918.858Z" fill="#666666"/>
<rect x="1685.19" y="919.139" width="9.26158" height="0.526544" rx="0.263272" transform="rotate(-154.684 1685.19 919.139)" fill="#666666"/>
<rect x="1682.29" y="920.575" width="5.285" height="0.550478" rx="0.275239" transform="rotate(-154.684 1682.29 920.575)" fill="#666666"/>
<path d="M1678.04 923.41C1677.06 922.946 1676.61 921.829 1677.04 920.915C1677.48 920.001 1678.62 919.636 1679.6 920.099C1680.58 920.563 1681.03 921.68 1680.59 922.594C1680.16 923.508 1679.02 923.873 1678.04 923.41ZM1678.26 922.907C1678.95 923.234 1679.76 922.975 1680.06 922.33C1680.37 921.685 1680.06 920.897 1679.36 920.57C1678.67 920.243 1677.86 920.5 1677.56 921.145C1677.25 921.791 1677.57 922.58 1678.26 922.907Z" fill="#666666"/>
<path d="M1680.26 915.5L1679.68 915.226L1682.87 909.983L1683.45 910.257L1680.26 915.5Z" fill="#666666"/>
<path d="M1678.32 914.568L1677.74 914.293L1681.62 909.39L1682.2 909.665L1678.32 914.568Z" fill="#666666"/>
<path d="M1682.74 916.675L1683.32 916.949L1685.35 911.158L1684.77 910.883L1682.74 916.675Z" fill="#666666"/>
<path d="M1684.7 917.585L1685.28 917.859L1686.61 911.75L1686.03 911.475L1684.7 917.585Z" fill="#666666"/>
<path d="M1686.61 911.748L1681.62 909.389L1681.96 908.903L1686.74 911.136L1686.61 911.748Z" fill="#666666"/>
<rect x="1494.55" y="700.826" width="0.877551" height="3.33862" rx="0.438775" transform="rotate(23.7998 1494.55 700.826)" fill="#666666"/>
<path d="M1494.77 702.478C1495.72 702.894 1496.15 703.996 1495.73 704.94C1495.72 704.956 1495.71 704.97 1495.71 704.986L1491.48 703.123C1491.49 703.108 1491.5 703.091 1491.5 703.076C1491.92 702.132 1493.02 701.705 1493.96 702.121L1494.77 702.478Z" fill="#666666"/>
<rect x="1491.61" y="702.412" width="4.94993" height="0.281416" rx="0.140708" transform="rotate(23.7998 1491.61 702.412)" fill="#666666"/>
<rect x="1493.14" y="701.604" width="2.82462" height="0.294208" rx="0.147104" transform="rotate(23.7998 1493.14 701.604)" fill="#666666"/>
<path d="M1495.37 700.029C1495.9 700.263 1496.16 700.853 1495.94 701.348C1495.72 701.842 1495.11 702.053 1494.58 701.82C1494.05 701.586 1493.8 700.995 1494.02 700.501C1494.24 700.006 1494.84 699.795 1495.37 700.029ZM1495.26 700.301C1494.89 700.136 1494.46 700.286 1494.3 700.635C1494.15 700.984 1494.33 701.4 1494.7 701.565C1495.08 701.73 1495.5 701.581 1495.66 701.232C1495.81 700.883 1495.63 700.466 1495.26 700.301Z" fill="#666666"/>
<path d="M1494.29 704.286L1494.61 704.424L1492.98 707.27L1492.66 707.132L1494.29 704.286Z" fill="#666666"/>
<path d="M1495.35 704.757L1495.66 704.896L1493.66 707.57L1493.34 707.432L1495.35 704.757Z" fill="#666666"/>
<path d="M1492.95 703.695L1492.64 703.556L1491.64 706.679L1491.95 706.817L1492.95 703.695Z" fill="#666666"/>
<path d="M1491.9 703.235L1491.58 703.096L1490.96 706.379L1491.27 706.518L1491.9 703.235Z" fill="#666666"/>
<path d="M1490.96 706.381L1493.66 707.571L1493.48 707.835L1490.9 706.71L1490.96 706.381Z" fill="#666666"/>
<rect x="1099.99" y="764.894" width="3.31234" height="15.0837" rx="1.65617" transform="rotate(-17.7819 1099.99 764.894)" fill="#666666"/>
<path d="M1103.77 770.417C1108.21 768.994 1112.96 771.438 1114.38 775.875C1114.41 775.948 1114.43 776.023 1114.45 776.096L1097.85 781.419C1097.83 781.347 1097.8 781.275 1097.78 781.201C1096.35 776.764 1098.8 772.014 1103.23 770.59L1103.77 770.417Z" fill="#666666"/>
<rect x="1096.29" y="778.585" width="18.6837" height="1.27143" rx="0.635713" transform="rotate(-17.7819 1096.29 778.585)" fill="#666666"/>
<rect x="1098.26" y="771.519" width="10.6616" height="1.32922" rx="0.664609" transform="rotate(-17.7819 1098.26 771.519)" fill="#666666"/>
<path d="M1100.08 759.827C1102.16 759.159 1104.45 760.503 1105.2 762.828C1105.94 765.153 1104.86 767.58 1102.78 768.247C1100.7 768.915 1098.4 767.571 1097.66 765.247C1096.91 762.922 1097.99 760.495 1100.08 759.827ZM1100.51 761.086C1099.04 761.557 1098.27 763.27 1098.8 764.911C1099.33 766.552 1100.94 767.5 1102.41 767.029C1103.88 766.557 1104.65 764.845 1104.12 763.204C1103.6 761.563 1101.98 760.614 1100.51 761.086Z" fill="#666666"/>
<path d="M1108.69 777.61L1109.92 777.215L1113.19 791.643L1111.96 792.038L1108.69 777.61Z" fill="#666666"/>
<path d="M1102.87 778.619L1104.19 778.197L1107.87 794.2L1106.55 794.622L1102.87 778.619Z" fill="#666666"/>
<path d="M1112.84 776.31L1114.07 775.915L1115.85 790.79L1114.62 791.185L1112.84 776.31Z" fill="#666666"/>
<path d="M1103.93 778.993L1102.18 779.696C1102.18 779.696 1106.88 782.728 1107.41 784.597C1107.94 786.466 1107.67 793.407 1107.67 793.407L1109.27 793.138C1109.27 793.138 1109.53 785.134 1108.73 783.531C1107.93 781.929 1103.93 778.993 1103.93 778.993Z" fill="#666666"/>
<path d="M1099.29 780.656L1098.05 781.052L1105.26 794.188L1106.49 793.793L1099.29 780.656Z" fill="#666666"/>
<path d="M1105.26 794.188L1115.85 790.79L1116.09 792.202L1105.98 795.505L1105.26 794.188Z" fill="#666666"/>
<path d="M1477 773.5C986 745.334 507.5 776.5 842 825C1176.5 873.5 2298.2 816.2 1225 729" stroke="#666666" stroke-width="3" stroke-linecap="round"/>
<path d="M1453.5 703C910.566 671.793 453.448 708.628 823.328 762.362C1193.21 816.097 2403.22 754.612 1216.5 658" stroke="#666666" stroke-width="3" stroke-linecap="round"/>
<path d="M1368.62 834.217C1044.62 817.623 728.868 835.984 949.597 864.558C1170.33 893.131 1910.51 859.373 1202.33 808" stroke="#666666" stroke-width="3" stroke-linecap="round"/>
<path d="M1940.05 792.496L1881.61 691.76L2206.14 756.245L2003.66 800.642L2025.09 771.397L1940.05 792.496Z" fill="#666666"/>
<path d="M106.077 889.58L111.538 891.787C143.157 899.892 283.506 896.739 354.889 893.899L421.454 965.802L328.826 979.59L111.538 891.787C108.967 891.128 107.115 890.394 106.077 889.58Z" fill="#666666"/>
<path d="M1144.42 190.629L1187.84 143.97L1232.38 190.629L1232.39 375.562L1188.94 421.519L1144.42 373.901V190.629Z" fill="#666666"/>
<path d="M1186.76 138.123V71L1102 156.535L1142.17 188.06L1186.76 138.123Z" fill="#666666"/>
<path d="M1187.4 425.708L1188.52 500L1102 403.883L1142.17 377.208L1187.4 425.708Z" fill="#666666"/>
<path d="M1188.43 138.123V71L1275 159.77L1235.01 188.06L1188.43 138.123Z" fill="#666666"/>
<path d="M1190.48 425.708L1190.71 500L1274.8 403.883L1235.99 379.192L1190.48 425.708Z" fill="#666666"/>
<path d="M1274.8 163.963L1235.01 190.629L1235.99 375.562L1274.8 399.666V163.963Z" fill="#666666"/>
<path d="M1102 159.781L1142.17 190.629V373.901L1102 399.665V159.781Z" fill="#666666"/>
<path d="M37.3306 814.311L183.578 830.987L141.028 865.276L37.3306 814.311Z" fill="#666666"/>
<path d="M1815.5 952L1869.5 860.5L1930.5 876.5L2034 868.5L1815.5 952Z" fill="#666666"/>
<path d="M1908.5 831.5L1849 794L2051.5 833.5L1908.5 831.5Z" fill="#666666"/>
<path d="M2146.5 804L2244.5 751.5L2193.5 838.5L2198.5 822.5L2146.5 804Z" fill="#666666"/>
<path d="M1912 650.5L1939.5 546L2083 669L1912 650.5Z" fill="#666666"/>
<path d="M237 607L175 772.5L219 784.5L274 761L237 607Z" fill="#666666"/>
<path d="M572.272 523C572.272 523.214 572.231 523.814 572.067 524.5C571.903 525.186 572.067 525.786 572.272 526C573.091 525.314 573.091 524.286 572.886 523.857L572.681 524.714L572.272 523Z" fill="#D9D9D9"/>
<path d="M508.504 733.438L502.726 756.217L510.979 754.184L508.504 733.438Z" fill="#666666"/>
<path d="M1864 778.063L1868.65 767L1869.97 776.773L1873.22 781.937L1864 778.063Z" fill="#666666"/>
<path d="M1717.8 515.113C1717.86 514.908 1717.95 514.711 1718.06 514.522C1718.18 514.327 1718.32 514.105 1718.5 513.855C1718.53 513.81 1718.62 513.674 1718.76 513.447C1718.92 513.229 1719.03 513.019 1719.11 512.816C1718.67 512.355 1718.33 511.962 1718.1 511.636C1717.97 511.457 1717.84 511.255 1717.69 511.029C1717.55 510.806 1717.45 510.641 1717.37 510.535C1717.11 510.105 1716.9 509.767 1716.72 509.523C1716.52 509.518 1716.33 509.531 1716.13 509.562C1715.93 509.601 1715.65 509.672 1715.28 509.775C1714.76 509.93 1714.36 510.019 1714.11 510.041C1713.94 510.054 1713.77 509.955 1713.62 509.743C1713.49 509.564 1713.41 509.371 1713.38 509.164C1713.35 508.96 1713.41 508.808 1713.55 508.709C1713.9 508.554 1714.3 508.424 1714.74 508.319C1715.2 508.216 1715.81 508.093 1716.58 507.95L1718.13 507.586C1719 507.367 1719.76 507.194 1720.41 507.066C1721.06 506.946 1721.85 506.831 1722.78 506.722C1722.91 506.701 1723.05 506.725 1723.2 506.792C1723.35 506.854 1723.48 506.954 1723.58 507.093C1723.69 507.247 1723.75 507.366 1723.77 507.449C1723.81 507.534 1723.82 507.614 1723.8 507.689C1723.79 507.759 1723.74 507.884 1723.66 508.064C1723.43 508.648 1723.15 509.201 1722.83 509.721C1722.52 510.25 1722.07 510.956 1721.49 511.84L1721.02 512.558C1720.6 513.203 1720.24 513.75 1719.96 514.197C1719.69 514.646 1719.47 515.089 1719.29 515.525C1719.17 515.806 1719.07 515.975 1718.99 516.033C1718.79 516.173 1718.6 516.219 1718.4 516.172C1718.22 516.128 1718.07 516.012 1717.94 515.824C1717.77 515.588 1717.72 515.351 1717.8 515.113ZM1719.86 511.749C1720.04 511.421 1720.39 510.891 1720.9 510.16C1721.45 509.385 1721.85 508.718 1722.11 508.158C1721.6 508.282 1720.94 508.413 1720.1 508.553C1719.58 508.622 1718.86 508.784 1717.95 509.04C1718.25 509.607 1718.62 510.193 1719.05 510.795C1719.36 511.227 1719.63 511.545 1719.86 511.749ZM1721.45 515.982C1721.91 515.657 1722.26 515.415 1722.5 515.255L1723.67 514.44C1724.14 514.104 1724.65 513.723 1725.2 513.298C1725.36 513.168 1725.58 512.972 1725.84 512.708C1726.25 512.318 1726.57 512.042 1726.8 511.879C1727.18 511.613 1727.5 511.666 1727.76 512.041C1727.93 512.277 1727.99 512.491 1727.92 512.681C1727.88 512.874 1727.73 513.087 1727.49 513.319C1726.99 513.801 1726.36 514.311 1725.6 514.851C1725.37 515.013 1725.03 515.249 1724.56 515.557C1724.91 515.538 1725.25 515.601 1725.56 515.747C1725.88 515.901 1726.12 516.1 1726.3 516.344C1726.8 517.053 1726.94 517.873 1726.72 518.804C1726.62 519.087 1726.46 519.383 1726.25 519.692C1726.06 520.003 1725.86 520.232 1725.65 520.377C1725.29 520.632 1724.93 520.826 1724.58 520.959C1724.22 521.101 1723.83 521.175 1723.41 521.183C1722.98 521.19 1722.58 521.107 1722.18 520.933C1721.79 520.768 1721.46 520.489 1721.18 520.098C1720.94 519.756 1720.79 519.398 1720.73 519.022C1720.68 518.655 1720.7 518.308 1720.82 517.983C1720.58 518.087 1720.32 518.143 1720.01 518.149C1719.72 518.15 1719.51 518.061 1719.38 517.882C1719.28 517.735 1719.23 517.587 1719.23 517.437C1719.24 517.281 1719.33 517.148 1719.48 517.038C1719.59 516.956 1719.75 516.879 1719.96 516.806C1720.23 516.687 1720.47 516.57 1720.69 516.455C1720.91 516.343 1721.17 516.185 1721.45 515.982ZM1721.98 519.071C1722.26 519.47 1722.64 519.705 1723.11 519.777C1723.58 519.843 1724.06 519.704 1724.54 519.362C1724.98 519.049 1725.28 518.661 1725.43 518.198C1725.47 518.042 1725.48 517.863 1725.43 517.661C1725.39 517.468 1725.32 517.299 1725.22 517.152C1724.97 516.81 1724.66 516.593 1724.29 516.502C1723.93 516.405 1723.56 516.465 1723.19 516.682C1722.69 516.986 1722.27 517.259 1721.93 517.503C1721.81 517.734 1721.75 518 1721.74 518.3C1721.75 518.602 1721.83 518.859 1721.98 519.071ZM1730.93 525.648C1730.87 525.794 1730.74 525.966 1730.55 526.163C1730.36 526.355 1730.19 526.512 1730.02 526.633C1729.7 526.86 1729.2 527.112 1728.51 527.392C1727.09 527.561 1725.98 527.095 1725.2 525.996C1724.91 525.588 1724.75 525.077 1724.71 524.462C1724.68 523.847 1724.78 523.333 1725.02 522.921C1725.56 522.202 1725.92 521.776 1726.11 521.643C1726.44 521.411 1726.83 521.233 1727.3 521.111C1727.77 520.996 1728.22 520.953 1728.64 520.982C1728.93 520.987 1729.26 521.122 1729.65 521.388C1730.04 521.648 1730.35 521.924 1730.55 522.217C1730.96 522.787 1731.2 523.35 1731.26 523.906C1731.33 524.456 1731.22 525.037 1730.93 525.648ZM1728.21 525.986C1728.35 525.951 1728.63 525.777 1729.07 525.464C1729.31 525.296 1729.51 525.085 1729.67 524.833C1729.84 524.59 1729.95 524.328 1730 524.049C1730 524.021 1730 523.959 1729.98 523.863C1729.96 523.76 1729.93 523.632 1729.87 523.479C1729.82 523.328 1729.74 523.171 1729.63 523.008C1729.3 522.552 1728.88 522.348 1728.36 522.397C1727.84 522.447 1727.35 522.637 1726.89 522.967C1726.81 523.025 1726.67 523.156 1726.47 523.359C1726.28 523.57 1726.16 523.713 1726.13 523.786C1726.09 523.851 1726.05 523.97 1726.01 524.143C1725.99 524.319 1725.99 524.509 1726.02 524.713C1726.05 524.92 1726.13 525.105 1726.24 525.268C1726.51 525.635 1726.8 525.867 1727.13 525.965C1727.46 526.057 1727.82 526.064 1728.21 525.986ZM1733.7 526.604C1734.08 527.141 1733.92 527.662 1733.21 528.167C1733.12 528.231 1732.91 528.365 1732.59 528.569C1732.22 528.808 1731.93 529 1731.73 529.145C1731.16 529.551 1730.76 529.956 1730.52 530.36C1730.44 530.499 1730.43 530.664 1730.46 530.857C1730.51 531.059 1730.57 531.212 1730.65 531.318C1730.76 531.481 1730.88 531.601 1730.99 531.678C1731.11 531.754 1731.24 531.809 1731.39 531.84C1731.54 531.88 1731.69 531.91 1731.85 531.93C1732.14 531.963 1732.4 531.921 1732.65 531.805C1732.91 531.692 1733.23 531.506 1733.62 531.247C1733.85 531.079 1734.09 530.929 1734.33 530.796C1734.72 530.59 1735.07 530.377 1735.38 530.156C1735.55 530.034 1735.73 529.978 1735.9 529.986C1736.09 529.997 1736.25 530.092 1736.38 530.271C1736.45 530.36 1736.49 530.49 1736.51 530.658C1736.55 530.829 1736.54 530.961 1736.5 531.054C1736.44 531.181 1736.33 531.305 1736.16 531.427C1736.05 531.502 1735.94 531.559 1735.84 531.599C1735.68 531.645 1735.52 531.735 1735.33 531.868C1735.23 531.938 1735.07 532.062 1734.86 532.241C1734.7 532.387 1734.54 532.524 1734.36 532.652C1733.81 533.04 1733.44 533.368 1733.24 533.635C1733.02 533.922 1732.86 534.218 1732.76 534.524C1732.71 534.809 1732.66 535.009 1732.62 535.124C1732.59 535.233 1732.54 535.308 1732.48 535.348C1732.39 535.418 1732.26 535.436 1732.1 535.402C1731.94 535.368 1731.82 535.298 1731.75 535.192C1731.53 534.891 1731.45 534.554 1731.49 534.181C1731.54 533.81 1731.7 533.455 1731.95 533.117C1731.78 533.103 1731.56 533.078 1731.3 533.042C1731.04 533.005 1730.82 532.957 1730.63 532.896C1730.17 532.741 1729.77 532.415 1729.42 531.918C1729.27 531.714 1729.17 531.447 1729.12 531.115C1729.07 530.792 1729.08 530.463 1729.14 530.128C1729.2 529.788 1729.32 529.5 1729.5 529.264C1729.51 529.244 1729.55 529.173 1729.64 529.051C1729.73 528.938 1729.89 528.8 1730.12 528.637L1732.06 527.233C1732.18 527.151 1732.34 526.995 1732.54 526.764C1732.67 526.599 1732.77 526.488 1732.85 526.43C1732.99 526.331 1733.14 526.295 1733.29 526.321C1733.45 526.355 1733.59 526.449 1733.7 526.604ZM1737.02 533.496C1736.96 533.371 1736.94 533.245 1736.96 533.12C1736.99 532.996 1737.07 532.894 1737.18 532.813C1737.33 532.709 1737.49 532.679 1737.67 532.723C1737.71 532.73 1737.76 532.756 1737.82 532.802C1737.88 532.841 1737.93 532.872 1737.97 532.893C1738.16 533.031 1738.28 533.113 1738.35 533.139C1738.6 533.245 1738.88 533.238 1739.18 533.117C1739.54 532.962 1739.78 532.852 1739.91 532.787C1740.1 532.676 1740.27 532.637 1740.43 532.671C1740.6 532.707 1740.75 532.803 1740.86 532.958C1741 533.161 1741.05 533.341 1741 533.498C1740.95 533.655 1740.79 533.835 1740.5 534.038C1740.13 534.305 1739.71 534.468 1739.25 534.526C1739.33 534.641 1739.47 534.822 1739.67 535.071C1739.97 535.45 1740.17 535.718 1740.28 535.872C1740.38 536.011 1740.43 536.155 1740.42 536.305C1740.43 536.457 1740.37 536.58 1740.24 536.673C1739.93 536.893 1739.65 536.881 1739.39 536.637C1739.13 536.428 1738.75 535.988 1738.24 535.315C1737.4 535.827 1736.75 536.248 1736.29 536.578C1736 536.781 1735.81 536.939 1735.7 537.05C1735.49 537.279 1735.36 537.494 1735.32 537.695C1735.29 537.898 1735.36 538.118 1735.53 538.354C1735.61 538.468 1735.76 538.619 1735.98 538.806C1736.12 538.916 1736.22 539.011 1736.27 539.093C1736.35 539.199 1736.37 539.306 1736.34 539.415C1736.31 539.525 1736.23 539.623 1736.11 539.71C1735.89 539.866 1735.6 539.854 1735.25 539.674C1734.91 539.487 1734.6 539.198 1734.32 538.808C1734.15 538.563 1734.03 538.282 1733.98 537.965C1733.93 537.642 1733.94 537.338 1733.99 537.053C1733.99 537.009 1734.04 536.896 1734.16 536.715C1734.28 536.542 1734.42 536.357 1734.57 536.161C1734.65 536.067 1734.88 535.886 1735.26 535.62C1735.61 535.364 1736.25 534.948 1737.17 534.37L1737.44 534.191C1737.4 534.134 1737.33 534.025 1737.23 533.865C1737.13 533.698 1737.07 533.575 1737.02 533.496ZM1742.43 541.091C1742.38 541.018 1742.32 540.955 1742.26 540.901C1742.2 540.842 1742.15 540.78 1742.11 540.714C1742.04 540.625 1742.02 540.51 1742.05 540.371C1742.08 540.239 1742.12 540.151 1742.19 540.104C1742.4 539.953 1742.64 539.943 1742.9 540.074C1743.18 540.199 1743.39 540.371 1743.55 540.591C1743.68 540.778 1743.75 541.016 1743.76 541.304C1743.78 541.595 1743.73 541.859 1743.61 542.096C1744.01 542.128 1744.38 542.258 1744.71 542.486C1745.05 542.714 1745.33 542.996 1745.57 543.329C1745.84 543.704 1745.97 544.134 1745.96 544.62C1745.95 545.114 1745.83 545.586 1745.6 546.034C1745.38 546.477 1745.08 546.826 1744.73 547.081C1744.38 547.33 1744.04 547.517 1743.71 547.641C1743.39 547.759 1743.02 547.823 1742.61 547.833C1742.17 547.83 1741.72 547.716 1741.28 547.491C1740.84 547.274 1740.45 546.921 1740.1 546.433C1740.01 546.302 1739.93 546.12 1739.86 545.887C1739.8 545.647 1739.77 545.437 1739.76 545.257C1739.17 545.594 1738.67 545.908 1738.26 546.198C1738.02 546.372 1737.79 546.55 1737.59 546.731C1737.34 546.933 1737.16 547.074 1737.05 547.156C1736.87 547.283 1736.69 547.315 1736.52 547.251C1736.35 547.193 1736.21 547.09 1736.1 546.943C1735.89 546.65 1735.84 546.397 1735.93 546.183C1736.02 545.983 1736.21 545.779 1736.51 545.57C1737.23 545.104 1737.91 544.683 1738.53 544.308C1739.3 543.835 1740.45 543.053 1741.98 541.963C1742.13 541.858 1742.26 541.72 1742.39 541.547C1742.51 541.373 1742.52 541.222 1742.43 541.091ZM1741.01 544.444C1740.88 544.595 1740.83 544.802 1740.86 545.065C1740.9 545.33 1740.98 545.54 1741.09 545.695C1741.42 546.159 1741.79 546.415 1742.21 546.464C1742.51 546.507 1742.76 546.492 1742.97 546.419C1743.18 546.354 1743.47 546.189 1743.85 545.922C1744.14 545.713 1744.34 545.482 1744.46 545.229C1744.58 544.97 1744.63 544.727 1744.6 544.5C1744.58 544.267 1744.52 544.078 1744.42 543.931C1744.18 543.597 1743.88 543.397 1743.53 543.33C1743.19 543.266 1742.83 543.327 1742.44 543.513C1742.15 543.664 1741.67 543.975 1741.01 544.444ZM1747.12 555.435C1746.94 555.562 1746.72 555.572 1746.46 555.464C1746.2 555.355 1746.01 555.219 1745.9 555.057C1745.68 554.755 1745.54 554.485 1745.48 554.245C1745.44 554.008 1745.46 553.732 1745.56 553.419C1745.22 553.349 1744.88 553.165 1744.52 552.868C1744.17 552.565 1743.88 552.259 1743.66 551.95C1743.3 551.445 1743.14 550.929 1743.17 550.404C1743.22 549.881 1743.5 549.431 1744.03 549.054C1744.26 548.891 1744.54 548.798 1744.86 548.774C1745.2 548.744 1745.51 548.782 1745.79 548.887C1746.1 549.003 1746.37 549.181 1746.62 549.424C1746.87 549.66 1747.13 549.961 1747.39 550.328C1747.51 550.499 1747.62 550.726 1747.73 551.008C1747.83 551.291 1747.89 551.528 1747.92 551.718L1748.11 551.579C1748.55 551.266 1748.78 550.941 1748.78 550.605C1748.8 550.272 1748.65 549.869 1748.31 549.396C1748.2 549.25 1748.08 549.133 1747.95 549.045C1747.83 548.96 1747.67 548.869 1747.48 548.773C1747.29 548.684 1747.15 548.575 1747.06 548.444C1746.98 548.33 1746.95 548.188 1746.96 548.019C1746.98 547.843 1747.05 547.718 1747.15 547.642C1747.49 547.399 1747.89 547.433 1748.35 547.747C1748.82 548.062 1749.21 548.444 1749.53 548.892C1749.7 549.12 1749.83 549.416 1749.94 549.779C1750.06 550.136 1750.11 550.474 1750.1 550.794C1750.07 551.183 1749.96 551.544 1749.76 551.878C1749.58 552.219 1749.32 552.509 1748.98 552.747C1748.88 552.822 1748.71 552.927 1748.49 553.062C1748.25 553.208 1748.05 553.339 1747.89 553.455L1747.55 553.678C1747.36 553.789 1747.21 553.883 1747.1 553.958C1747 554.028 1746.94 554.121 1746.91 554.238C1746.9 554.358 1746.93 554.467 1747 554.565L1747.26 554.898C1747.32 554.988 1747.33 555.083 1747.29 555.184C1747.27 555.287 1747.21 555.371 1747.12 555.435ZM1744.63 551.262C1744.88 551.612 1745.12 551.88 1745.37 552.064C1745.61 552.248 1745.94 552.437 1746.38 552.632C1746.54 552.566 1746.74 552.455 1746.97 552.301C1746.86 551.702 1746.71 551.256 1746.5 550.963C1746.3 550.686 1746.13 550.471 1745.98 550.317C1745.84 550.158 1745.66 550.052 1745.44 550.001C1745.22 549.949 1744.98 550.019 1744.71 550.211C1744.55 550.321 1744.48 550.487 1744.47 550.709C1744.48 550.939 1744.53 551.124 1744.63 551.262ZM1750.26 561.035C1750.27 561.365 1750.2 561.633 1750.06 561.84C1749.93 562.055 1749.7 562.281 1749.37 562.519C1749.21 562.635 1749.01 562.702 1748.78 562.72C1748.55 562.747 1748.36 562.737 1748.22 562.692C1747.25 562.22 1746.48 561.597 1745.93 560.823C1745.66 560.44 1745.47 560.075 1745.37 559.729C1745.27 559.382 1745.22 559.029 1745.21 558.668C1745.21 558.418 1745.29 558.162 1745.43 557.9C1745.58 557.651 1745.75 557.451 1745.96 557.301C1746.26 557.092 1746.58 556.999 1746.93 557.021C1747.28 557.052 1747.62 557.187 1747.93 557.427C1748.01 557.283 1748.14 557.153 1748.3 557.037C1748.45 556.927 1748.77 556.875 1749.24 556.883C1749.09 556.399 1749.1 555.924 1749.28 555.459C1749.45 555.001 1749.77 554.612 1750.21 554.293C1750.49 554.096 1750.78 553.987 1751.09 553.967C1751.4 553.94 1751.79 553.956 1752.26 554.014C1752.58 554.054 1752.89 554.18 1753.18 554.393C1753.46 554.606 1753.75 554.921 1754.05 555.336C1754.26 555.629 1754.45 556.038 1754.63 556.563C1755.35 556.821 1755.85 557.145 1756.13 557.536C1756.2 557.634 1756.26 557.761 1756.29 557.918C1756.34 558.083 1756.36 558.216 1756.36 558.316C1756.3 558.428 1756.17 558.56 1755.96 558.711C1755.87 558.769 1755.77 558.79 1755.63 558.775C1755.51 558.762 1755.42 558.703 1755.34 558.597L1755.14 558.295C1755.06 558.137 1754.98 558.017 1754.92 557.935C1754.86 557.846 1754.76 557.717 1754.61 557.55C1754.53 557.866 1754.41 558.15 1754.24 558.402C1754.09 558.662 1753.82 558.923 1753.46 559.184C1753.18 559.381 1752.82 559.485 1752.37 559.496C1751.93 559.507 1751.52 559.435 1751.15 559.28C1750.62 559.019 1750.15 558.61 1749.74 558.054C1749.63 558.035 1749.53 558.022 1749.44 558.013C1749.36 558.007 1749.3 558.016 1749.27 558.039C1749.18 558.103 1749.17 558.23 1749.23 558.419C1749.29 558.609 1749.42 558.871 1749.62 559.206C1749.78 559.462 1749.92 559.769 1750.04 560.126C1750.17 560.485 1750.25 560.788 1750.26 561.035ZM1750.8 557.414C1751.06 557.788 1751.38 558.017 1751.75 558.1C1752.11 558.183 1752.48 558.091 1752.86 557.824C1753.14 557.621 1753.3 557.354 1753.34 557.023C1753.37 556.692 1753.27 556.367 1753.05 556.05C1752.9 555.846 1752.71 555.652 1752.47 555.468C1752.24 555.287 1752.02 555.199 1751.8 555.206C1751.7 555.203 1751.54 555.244 1751.32 555.329C1751.1 555.408 1750.95 555.482 1750.85 555.551C1750.71 555.65 1750.61 555.809 1750.55 556.027C1750.49 556.248 1750.49 556.487 1750.52 556.744C1750.57 557.003 1750.66 557.226 1750.8 557.414ZM1748.69 560.072C1748.42 559.595 1748.23 559.248 1748.14 559.032C1748.04 558.829 1747.98 558.654 1747.95 558.505C1747.43 558.246 1747.04 558.209 1746.78 558.395C1746.54 558.569 1746.44 558.826 1746.5 559.165C1746.55 559.511 1746.69 559.846 1746.92 560.172C1747.03 560.319 1747.19 560.507 1747.4 560.736C1747.61 560.965 1747.82 561.136 1748.02 561.249C1748.16 561.323 1748.28 561.368 1748.38 561.384C1748.47 561.406 1748.58 561.368 1748.72 561.27C1748.89 561.148 1748.96 560.965 1748.92 560.722C1748.88 560.479 1748.8 560.262 1748.69 560.072ZM1754.08 560.963C1754.39 560.742 1754.74 560.579 1755.13 560.473C1755.53 560.36 1755.93 560.305 1756.32 560.307C1756.71 560.309 1757.14 560.455 1757.59 560.746C1758.05 561.032 1758.39 561.333 1758.62 561.651C1758.85 561.977 1759.04 562.338 1759.19 562.736C1759.35 563.142 1759.38 563.477 1759.28 563.741C1759.07 564.344 1758.76 564.79 1758.36 565.08C1758.14 565.237 1757.91 565.322 1757.69 565.334C1757.47 565.355 1757.21 565.343 1756.91 565.3C1756.67 565.266 1756.41 565.116 1756.15 564.849C1755.89 564.591 1755.66 564.315 1755.45 564.021C1755.31 563.834 1755.17 563.594 1755.01 563.302C1754.86 563.005 1754.72 562.709 1754.6 562.416C1754.45 562.548 1754.32 562.702 1754.21 562.878C1754.1 563.053 1754.04 563.215 1754.02 563.362C1753.98 563.635 1754 563.872 1754.08 564.072C1754.17 564.28 1754.31 564.523 1754.51 564.8C1754.72 565.093 1754.96 565.331 1755.24 565.514C1755.46 565.665 1755.61 565.806 1755.71 565.936C1755.82 566.091 1755.85 566.244 1755.81 566.395C1755.78 566.54 1755.69 566.665 1755.54 566.77C1755.34 566.915 1755.09 566.916 1754.79 566.772C1754.49 566.629 1754.2 566.426 1753.92 566.162C1753.64 565.902 1753.44 565.678 1753.31 565.49C1753.03 565.107 1752.84 564.687 1752.72 564.23C1752.61 563.773 1752.59 563.337 1752.67 562.921C1752.76 562.563 1752.93 562.214 1753.16 561.874C1753.41 561.527 1753.71 561.224 1754.08 560.963ZM1757.63 562.452C1757.5 562.272 1757.33 562.119 1757.13 561.992C1756.94 561.86 1756.74 561.78 1756.54 561.753C1756.28 561.716 1756.08 561.704 1755.94 561.717C1755.82 561.732 1755.67 561.789 1755.49 561.889C1755.57 562.139 1755.84 562.586 1756.3 563.229C1756.55 563.579 1756.8 563.811 1757.03 563.923C1757.28 564.043 1757.49 564.042 1757.66 563.92C1757.83 563.798 1757.91 563.582 1757.9 563.272C1757.88 562.961 1757.79 562.688 1757.63 562.452ZM1755.93 569.121C1755.87 569.031 1755.84 568.954 1755.84 568.89C1755.83 568.752 1755.84 568.614 1755.88 568.477C1755.92 568.334 1756.03 568.202 1756.2 568.08C1756.33 568.001 1756.46 567.954 1756.58 567.939C1756.71 567.919 1756.83 567.938 1756.94 567.999C1757.15 568.106 1757.35 568.294 1757.54 568.563C1757.68 568.759 1757.72 568.97 1757.66 569.196C1757.61 569.417 1757.48 569.6 1757.28 569.745C1757.03 569.919 1756.7 570.046 1756.28 570.126C1755.85 570.219 1755.5 570.26 1755.22 570.25C1755.03 570.231 1754.83 570.184 1754.65 570.109C1754.46 570.043 1754.34 569.961 1754.27 569.863C1754.13 569.667 1754.07 569.518 1754.1 569.415C1754.12 569.325 1754.21 569.225 1754.36 569.115C1754.43 569.069 1754.59 569.082 1754.85 569.154C1755.07 569.205 1755.22 569.23 1755.29 569.228C1755.54 569.234 1755.76 569.211 1755.96 569.157L1755.93 569.121ZM1763.8 571.27C1763.85 571.107 1763.91 570.981 1763.97 570.89C1764.03 570.799 1764.12 570.711 1764.24 570.624C1764.37 570.531 1764.52 570.505 1764.68 570.548C1764.85 570.598 1765 570.708 1765.12 570.879C1765.24 571.05 1765.3 571.268 1765.29 571.532C1765.29 571.79 1765.23 572.041 1765.11 572.287C1765.48 572.284 1765.82 572.391 1766.13 572.609C1766.45 572.827 1766.72 573.107 1766.97 573.449C1767.23 573.823 1767.37 574.251 1767.37 574.731C1767.37 575.219 1767.26 575.685 1767.03 576.127C1766.81 576.57 1766.52 576.919 1766.16 577.174C1765.81 577.423 1765.47 577.61 1765.14 577.734C1764.82 577.852 1764.45 577.916 1764.04 577.926C1763.6 577.923 1763.16 577.809 1762.71 577.584C1762.28 577.367 1761.88 577.015 1761.54 576.526C1761.44 576.396 1761.36 576.214 1761.29 575.98C1761.23 575.74 1761.2 575.53 1761.2 575.35C1760.6 575.688 1760.1 576.001 1759.69 576.291C1759.45 576.465 1759.23 576.643 1759.02 576.824C1758.77 577.026 1758.59 577.168 1758.48 577.249C1758.3 577.376 1758.12 577.408 1757.96 577.344C1757.78 577.286 1757.64 577.183 1757.53 577.037C1757.33 576.743 1757.27 576.49 1757.36 576.276C1757.45 576.076 1757.64 575.872 1757.94 575.663C1758.66 575.197 1759.34 574.776 1759.97 574.402C1760.86 573.85 1761.93 573.13 1763.18 572.242C1763.28 572.172 1763.39 572.03 1763.52 571.815C1763.66 571.609 1763.75 571.427 1763.8 571.27ZM1762.44 574.538C1762.31 574.688 1762.27 574.895 1762.29 575.158C1762.33 575.423 1762.41 575.633 1762.52 575.788C1762.85 576.252 1763.22 576.508 1763.64 576.557C1763.94 576.6 1764.19 576.585 1764.4 576.512C1764.61 576.448 1764.9 576.282 1765.28 576.015C1765.57 575.806 1765.78 575.575 1765.89 575.322C1766.01 575.063 1766.06 574.82 1766.03 574.593C1766.02 574.361 1765.95 574.171 1765.85 574.024C1765.61 573.69 1765.32 573.49 1764.96 573.423C1764.62 573.359 1764.26 573.42 1763.88 573.607C1763.58 573.757 1763.1 574.068 1762.44 574.538ZM1765.71 581.747C1765.56 581.83 1765.4 581.86 1765.23 581.837C1765.05 581.815 1764.91 581.726 1764.8 581.572C1764.62 581.327 1764.54 581.116 1764.55 580.938C1764.57 580.755 1764.7 580.573 1764.95 580.393C1765.3 580.15 1765.68 579.903 1766.12 579.654C1766.62 579.35 1766.99 579.108 1767.24 578.928C1767.37 578.835 1767.53 578.711 1767.71 578.556C1767.88 578.412 1768.01 578.308 1768.1 578.244C1768.22 578.121 1768.29 577.986 1768.31 577.838C1768.33 577.699 1768.31 577.519 1768.24 577.299C1768.22 577.203 1768.23 577.104 1768.27 577.003C1768.31 576.896 1768.37 576.819 1768.43 576.773C1768.62 576.639 1768.82 576.611 1769.02 576.688C1769.22 576.765 1769.4 576.91 1769.55 577.121C1769.72 577.358 1769.78 577.619 1769.74 577.906C1769.7 578.193 1769.59 578.469 1769.41 578.732C1769.81 578.728 1770.19 578.803 1770.54 578.955C1770.9 579.116 1771.17 579.327 1771.36 579.588C1771.6 579.922 1771.74 580.243 1771.79 580.553C1771.85 580.864 1771.75 581.116 1771.48 581.307C1771.32 581.417 1771.11 581.464 1770.84 581.447C1770.59 581.433 1770.41 581.357 1770.31 581.218C1770.23 581.112 1770.19 580.951 1770.19 580.735C1770.19 580.649 1770.17 580.561 1770.15 580.47C1770.13 580.382 1770.1 580.301 1770.05 580.228C1769.95 580.097 1769.85 579.99 1769.72 579.905C1769.6 579.819 1769.5 579.777 1769.41 579.777C1769.12 579.791 1768.86 579.824 1768.65 579.875C1768.45 579.934 1768.25 580.03 1768.07 580.164C1767.93 580.262 1767.82 580.337 1767.73 580.387L1767.02 580.87L1766.57 581.213C1766.23 581.457 1765.94 581.635 1765.71 581.747ZM1770.19 583.138C1770.68 582.785 1771.17 582.602 1771.66 582.589C1772.15 582.571 1772.68 582.654 1773.25 582.836C1773.41 582.892 1773.62 583.034 1773.87 583.262C1774.12 583.484 1774.32 583.697 1774.47 583.901C1774.64 584.145 1774.77 584.44 1774.86 584.784C1774.96 585.13 1775 585.436 1774.99 585.7C1774.99 586.158 1774.88 586.548 1774.67 586.871C1774.46 587.188 1774.16 587.489 1773.76 587.773C1773.59 587.895 1773.36 587.916 1773.05 587.836C1772.77 587.759 1772.54 587.611 1772.39 587.391L1772.07 586.918C1771.9 586.682 1771.65 586.349 1771.32 585.921L1771.13 585.673C1770.98 585.506 1770.88 585.377 1770.81 585.288C1770.72 585.157 1770.61 584.966 1770.48 584.715C1770.12 585.02 1769.92 585.378 1769.88 585.787C1769.85 586.19 1769.94 586.538 1770.15 586.832C1770.51 587.345 1770.87 587.631 1771.22 587.689C1771.46 587.773 1771.62 587.832 1771.69 587.866C1771.77 587.9 1771.85 587.978 1771.93 588.1C1772.03 588.23 1772.05 588.388 1771.99 588.573C1771.94 588.757 1771.85 588.893 1771.73 588.98C1771.59 589.079 1771.39 589.095 1771.12 589.028C1770.87 588.964 1770.56 588.844 1770.2 588.669C1770.03 588.561 1769.82 588.39 1769.58 588.156C1769.34 587.922 1769.16 587.715 1769.03 587.536C1768.82 587.251 1768.68 586.875 1768.59 586.409C1768.51 585.937 1768.52 585.543 1768.6 585.227C1768.68 584.911 1768.86 584.554 1769.14 584.157C1769.43 583.768 1769.78 583.428 1770.19 583.138ZM1772.25 585.335C1772.66 585.913 1772.98 586.322 1773.21 586.562C1773.44 586.377 1773.58 586.168 1773.63 585.933C1773.69 585.693 1773.7 585.421 1773.64 585.117C1773.62 585.021 1773.6 584.938 1773.57 584.869C1773.55 584.801 1773.51 584.73 1773.46 584.656C1773.19 584.282 1772.86 584.037 1772.47 583.921C1772.09 583.813 1771.72 583.848 1771.37 584.026C1771.64 584.45 1771.93 584.887 1772.25 585.335ZM1776.79 592.515C1776.8 592.609 1776.81 592.791 1776.83 593.059C1776.86 593.33 1776.83 593.55 1776.73 593.72C1776.63 593.89 1776.45 594.067 1776.19 594.253C1775.89 594.462 1775.57 594.562 1775.22 594.553C1774.88 594.539 1774.55 594.441 1774.24 594.259C1774.01 594.127 1773.77 593.936 1773.52 593.686C1773.27 593.444 1773.09 593.241 1772.97 593.078C1772.86 592.915 1772.73 592.686 1772.6 592.391C1772.46 592.104 1772.38 591.896 1772.36 591.77C1772.32 591.413 1772.35 591.065 1772.42 590.727C1772.51 590.397 1772.66 590.154 1772.88 589.997C1773.04 589.881 1773.21 589.844 1773.37 589.886C1773.54 589.922 1773.69 590.026 1773.81 590.197C1773.87 590.279 1773.9 590.387 1773.9 590.523C1773.91 590.654 1773.89 590.758 1773.85 590.837C1773.7 591.078 1773.65 591.341 1773.69 591.629C1773.74 591.916 1773.84 592.169 1773.99 592.389C1774.2 592.674 1774.43 592.907 1774.69 593.088C1774.97 593.262 1775.18 593.292 1775.35 593.176C1775.42 593.124 1775.46 593.063 1775.47 592.993C1775.5 592.925 1775.51 592.842 1775.52 592.742C1775.52 592.57 1775.46 592.352 1775.35 592.089C1775.24 591.821 1775.17 591.648 1775.14 591.571C1774.98 591.185 1774.86 590.781 1774.78 590.359C1774.7 589.931 1774.71 589.548 1774.79 589.21C1774.86 588.872 1775.07 588.584 1775.4 588.346C1775.62 588.189 1775.91 588.108 1776.26 588.103C1776.62 588.092 1776.93 588.153 1777.17 588.287C1777.33 588.393 1777.56 588.594 1777.87 588.89C1778.19 589.194 1778.39 589.407 1778.48 589.529C1778.61 589.716 1778.73 589.934 1778.85 590.183C1778.97 590.426 1779.04 590.634 1779.04 590.806C1779.06 591.119 1779.05 591.396 1779 591.639C1778.96 591.876 1778.85 592.059 1778.67 592.186C1778.58 592.25 1778.47 592.3 1778.34 592.334C1778.21 592.363 1778.12 592.358 1778.05 592.318C1777.91 592.237 1777.78 592.114 1777.66 591.951C1777.61 591.878 1777.58 591.802 1777.59 591.725C1777.6 591.655 1777.63 591.551 1777.66 591.414C1777.74 591.226 1777.76 591.083 1777.73 590.984C1777.68 590.869 1777.61 590.706 1777.51 590.495C1777.41 590.279 1777.34 590.138 1777.3 590.073C1777.16 589.886 1776.97 589.728 1776.72 589.6C1776.48 589.48 1776.28 589.469 1776.15 589.567C1776.07 589.62 1776.04 589.689 1776.04 589.775C1776.04 589.869 1776.05 589.96 1776.07 590.049C1776.08 590.145 1776.1 590.208 1776.11 590.239C1776.15 590.468 1776.21 590.704 1776.3 590.949C1776.39 591.201 1776.45 591.357 1776.47 591.418C1776.68 591.933 1776.78 592.299 1776.79 592.515ZM1780.56 598.034C1780.56 598.128 1780.57 598.31 1780.59 598.578C1780.63 598.849 1780.59 599.07 1780.49 599.239C1780.39 599.409 1780.21 599.586 1779.95 599.772C1779.66 599.981 1779.34 600.081 1778.99 600.072C1778.65 600.058 1778.32 599.96 1778 599.778C1777.79 599.649 1777.6 599.48 1777.42 599.272C1777.26 599.071 1777.06 598.821 1776.85 598.519C1776.73 598.356 1776.61 598.127 1776.47 597.832C1776.34 597.544 1776.26 597.337 1776.23 597.211C1776.19 596.845 1776.21 596.504 1776.27 596.185C1776.34 595.867 1776.48 595.635 1776.68 595.49C1776.84 595.374 1777.01 595.334 1777.19 595.37C1777.36 595.407 1777.51 595.51 1777.63 595.681C1777.69 595.771 1777.73 595.874 1777.74 595.99C1777.76 596.109 1777.75 596.205 1777.72 596.278C1777.57 596.518 1777.52 596.782 1777.57 597.069C1777.61 597.357 1777.71 597.61 1777.87 597.83C1778.42 598.604 1778.83 598.892 1779.11 598.695C1779.18 598.643 1779.23 598.582 1779.24 598.512C1779.26 598.445 1779.28 598.361 1779.28 598.261C1779.28 598.103 1779.25 597.897 1779.19 597.644C1779.14 597.398 1779.08 597.188 1779.02 597.012C1778.85 596.626 1778.73 596.222 1778.65 595.8C1778.59 595.402 1778.61 595.025 1778.71 594.67C1778.82 594.308 1779.05 594.003 1779.4 593.754C1779.62 593.603 1779.88 593.532 1780.19 593.542C1780.52 593.554 1780.81 593.628 1781.07 593.765C1781.23 593.871 1781.46 594.067 1781.77 594.355C1782.07 594.643 1782.26 594.847 1782.35 594.97C1782.48 595.157 1782.61 595.375 1782.72 595.624C1782.85 595.867 1782.91 596.075 1782.91 596.247C1782.94 596.559 1782.93 596.837 1782.88 597.08C1782.84 597.317 1782.73 597.5 1782.55 597.627C1782.46 597.691 1782.35 597.74 1782.21 597.775C1782.09 597.804 1781.99 597.799 1781.92 597.759C1781.78 597.677 1781.65 597.555 1781.53 597.392C1781.48 597.319 1781.46 597.243 1781.47 597.165C1781.48 597.096 1781.5 596.992 1781.54 596.855C1781.61 596.667 1781.63 596.523 1781.6 596.425C1781.56 596.309 1781.48 596.147 1781.38 595.936C1781.29 595.72 1781.22 595.579 1781.17 595.514C1781.03 595.31 1780.85 595.144 1780.63 595.014C1780.42 594.893 1780.25 594.882 1780.11 594.98C1779.95 595.096 1779.91 595.329 1779.98 595.679C1780.02 595.909 1780.09 596.145 1780.18 596.389C1780.27 596.642 1780.33 596.798 1780.34 596.859C1780.4 596.99 1780.45 597.177 1780.49 597.42C1780.53 597.672 1780.55 597.876 1780.56 598.034ZM1712.27 522.353C1712.38 522.507 1712.44 522.675 1712.45 522.855C1712.46 523.043 1712.37 523.222 1712.18 523.392C1711.61 523.948 1711.01 524.467 1710.38 524.95C1709.77 525.435 1709.06 525.965 1708.26 526.539C1707.91 526.783 1707.27 527.198 1706.33 527.785C1706.55 528.167 1706.73 528.455 1706.87 528.651C1706.97 528.789 1707.21 529.088 1707.6 529.548C1707.84 529.804 1708.04 530.038 1708.19 530.25C1708.33 530.445 1708.44 530.639 1708.51 530.831C1708.6 531.017 1708.66 531.224 1708.7 531.453C1708.72 531.694 1708.63 531.887 1708.43 532.032C1708.27 532.148 1708.08 532.2 1707.88 532.186C1707.68 532.182 1707.53 532.11 1707.43 531.971C1707.36 531.874 1707.26 531.707 1707.15 531.472C1706.93 531.049 1706.7 530.662 1706.45 530.312C1706.37 530.198 1706.27 530.073 1706.15 529.938C1706.04 529.805 1705.96 529.707 1705.92 529.641C1705.75 529.463 1705.6 529.277 1705.46 529.081C1705.18 528.682 1704.94 528.309 1704.76 527.962C1704.66 527.788 1704.6 527.581 1704.59 527.343C1704.59 527.099 1704.7 526.902 1704.91 526.751C1705.03 526.664 1705.35 526.457 1705.88 526.13C1706.76 525.589 1707.42 525.162 1707.86 524.849C1708.2 524.605 1708.55 524.334 1708.9 524.034C1709.25 523.735 1709.48 523.546 1709.57 523.468C1710.21 522.902 1710.75 522.459 1711.2 522.14C1711.41 521.989 1711.6 521.928 1711.77 521.956C1711.94 521.992 1712.11 522.125 1712.27 522.353ZM1713.85 534.136C1714.12 534.51 1714.04 534.849 1713.62 535.15C1713.4 535.307 1713.18 535.343 1712.97 535.257C1712.77 535.18 1712.59 535.032 1712.44 534.812C1712.39 534.747 1712.34 534.675 1712.3 534.596C1712.26 534.517 1712.21 534.433 1712.16 534.346C1712.03 534.073 1711.89 533.838 1711.75 533.643C1711.65 533.504 1711.49 533.308 1711.26 533.055C1711.02 532.785 1710.84 532.572 1710.73 532.417C1710.57 532.197 1710.47 531.973 1710.43 531.744C1710.4 531.509 1710.49 531.319 1710.69 531.174C1710.98 530.971 1711.23 530.946 1711.47 531.1C1711.71 531.248 1711.96 531.513 1712.24 531.896L1712.51 532.308C1712.63 532.515 1712.73 532.672 1712.81 532.778L1713.47 533.652L1713.85 534.136ZM1716.11 543.769C1716.17 543.564 1716.26 543.367 1716.37 543.178C1716.49 542.983 1716.63 542.76 1716.81 542.511C1716.84 542.465 1716.93 542.329 1717.08 542.103C1717.23 541.885 1717.34 541.674 1717.42 541.472C1716.98 541.011 1716.64 540.618 1716.41 540.292C1716.28 540.113 1716.15 539.91 1716 539.685C1715.86 539.461 1715.76 539.297 1715.68 539.191C1715.43 538.76 1715.21 538.423 1715.04 538.179C1714.84 538.174 1714.64 538.187 1714.44 538.218C1714.24 538.257 1713.96 538.328 1713.59 538.431C1713.07 538.586 1712.68 538.675 1712.42 538.696C1712.25 538.71 1712.08 538.611 1711.93 538.399C1711.81 538.22 1711.72 538.027 1711.69 537.82C1711.66 537.615 1711.72 537.464 1711.86 537.365C1712.22 537.21 1712.61 537.08 1713.05 536.974C1713.51 536.872 1714.12 536.749 1714.89 536.605L1716.44 536.241C1717.31 536.023 1718.07 535.85 1718.72 535.721C1719.37 535.601 1720.16 535.487 1721.09 535.378C1721.22 535.357 1721.36 535.38 1721.51 535.448C1721.66 535.51 1721.79 535.61 1721.89 535.748C1722 535.903 1722.06 536.022 1722.08 536.104C1722.12 536.189 1722.13 536.27 1722.11 536.345C1722.1 536.415 1722.05 536.54 1721.97 536.72C1721.74 537.304 1721.46 537.857 1721.14 538.377C1720.83 538.905 1720.38 539.612 1719.8 540.495L1719.33 541.213C1718.91 541.859 1718.56 542.405 1718.27 542.853C1718 543.302 1717.78 543.745 1717.6 544.18C1717.48 544.462 1717.38 544.631 1717.3 544.689C1717.1 544.828 1716.91 544.875 1716.71 544.828C1716.54 544.783 1716.38 544.668 1716.25 544.48C1716.08 544.244 1716.03 544.007 1716.11 543.769ZM1718.17 540.404C1718.35 540.077 1718.7 539.547 1719.21 538.815C1719.76 538.041 1720.16 537.374 1720.42 536.814C1719.92 536.937 1719.25 537.069 1718.41 537.208C1717.89 537.277 1717.17 537.44 1716.26 537.695C1716.56 538.263 1716.93 538.848 1717.36 539.451C1717.67 539.883 1717.94 540.201 1718.17 540.404ZM1722.91 546.855C1723.18 547.229 1723.1 547.568 1722.67 547.869C1722.45 548.026 1722.24 548.062 1722.03 547.977C1721.83 547.9 1721.65 547.751 1721.49 547.531C1721.45 547.466 1721.4 547.394 1721.36 547.315C1721.31 547.236 1721.27 547.152 1721.22 547.065C1721.08 546.792 1720.95 546.557 1720.81 546.362C1720.71 546.223 1720.55 546.027 1720.32 545.774C1720.07 545.504 1719.9 545.291 1719.79 545.136C1719.63 544.917 1719.53 544.692 1719.49 544.463C1719.46 544.228 1719.55 544.038 1719.75 543.893C1720.03 543.69 1720.29 543.665 1720.53 543.819C1720.77 543.967 1721.02 544.233 1721.3 544.615L1721.57 545.027C1721.69 545.234 1721.79 545.391 1721.87 545.497L1722.53 546.371L1722.91 546.855ZM1731.52 551.264C1731.75 551.095 1732 551.003 1732.24 550.987C1732.5 550.974 1732.71 551.077 1732.87 551.297C1733 551.484 1733.08 551.677 1733.11 551.876C1733.15 552.075 1733.08 552.235 1732.9 552.357C1732.57 552.595 1732.09 552.912 1731.46 553.309C1730.86 553.694 1730.41 553.988 1730.12 554.191C1729.67 554.51 1729.09 554.953 1728.36 555.519C1727.67 556.062 1727.15 556.453 1726.82 556.691C1726.55 556.882 1726.35 557.02 1726.21 557.105C1726.08 557.197 1725.9 557.217 1725.67 557.163C1725.44 557.112 1725.23 556.939 1725.02 556.646C1724.91 556.491 1724.84 556.34 1724.81 556.191C1724.79 556.044 1724.8 555.927 1724.83 555.84C1725.03 555.127 1725.42 554.006 1726.01 552.478C1726.67 550.768 1727.15 549.417 1727.43 548.426C1726.89 548.909 1726.2 549.452 1725.35 550.055C1724.98 550.322 1724.48 550.662 1723.87 551.075C1723.27 551.491 1722.87 551.753 1722.66 551.862C1722.4 551.997 1722.17 552.055 1721.96 552.033C1721.76 552.014 1721.58 551.887 1721.41 551.651C1721.28 551.472 1721.23 551.302 1721.27 551.143C1721.31 550.986 1721.46 550.81 1721.7 550.614C1722.03 550.368 1722.54 550.031 1723.25 549.604C1723.36 549.537 1723.55 549.419 1723.82 549.249C1724.09 549.08 1724.33 548.923 1724.54 548.778C1725.1 548.378 1725.72 547.891 1726.41 547.317C1727.17 546.7 1727.74 546.255 1728.13 545.982C1728.32 545.843 1728.52 545.805 1728.73 545.868C1728.94 545.939 1729.11 546.069 1729.24 546.256C1729.36 546.419 1729.44 546.619 1729.48 546.856C1729.1 548.183 1728.47 550.066 1727.58 552.505L1726.64 554.906C1726.77 554.822 1726.96 554.695 1727.19 554.527C1727.61 554.231 1728.05 553.904 1728.52 553.545C1728.99 553.187 1729.31 552.943 1729.47 552.813C1730.23 552.209 1730.92 551.693 1731.52 551.264ZM1732.27 560.003C1732.54 560.378 1732.46 560.716 1732.04 561.018C1731.82 561.175 1731.6 561.21 1731.4 561.125C1731.19 561.048 1731.02 560.9 1730.86 560.68C1730.81 560.615 1730.77 560.543 1730.72 560.463C1730.68 560.384 1730.63 560.301 1730.58 560.214C1730.45 559.94 1730.31 559.706 1730.17 559.511C1730.07 559.372 1729.91 559.176 1729.68 558.922C1729.44 558.652 1729.26 558.44 1729.15 558.285C1729 558.065 1728.9 557.841 1728.86 557.612C1728.83 557.377 1728.91 557.187 1729.11 557.042C1729.4 556.839 1729.66 556.814 1729.89 556.968C1730.13 557.116 1730.39 557.381 1730.66 557.764L1730.94 558.176C1731.06 558.383 1731.16 558.54 1731.23 558.645L1731.89 559.52L1732.27 560.003ZM1736.97 558.377C1737.32 558.128 1737.68 558.259 1738.04 558.773C1738.2 558.993 1738.49 559.418 1738.92 560.048C1739.37 560.756 1739.72 561.285 1739.97 561.635C1740.18 561.92 1740.44 562.255 1740.76 562.639C1740.97 562.904 1741.11 563.073 1741.16 563.147C1741.46 563.606 1741.65 564.043 1741.72 564.457C1741.75 564.576 1741.75 564.684 1741.73 564.781C1741.72 564.879 1741.65 564.974 1741.51 565.067C1741.34 565.195 1741.14 565.248 1740.93 565.227C1740.73 565.2 1740.57 565.105 1740.45 564.942C1740.32 564.762 1740.16 564.484 1739.97 564.108C1739.81 563.766 1739.65 563.48 1739.49 563.252C1739.33 563.032 1739.21 562.868 1739.12 562.76C1738.83 562.927 1738.18 563.373 1737.16 564.098C1735.95 564.963 1734.74 565.875 1733.55 566.836L1733.21 567.113C1732.88 567.351 1732.57 567.278 1732.3 566.896C1732.09 566.594 1732.01 566.341 1732.07 566.137C1732.15 565.927 1732.33 565.717 1732.62 565.508C1733.2 565.096 1733.91 564.566 1734.75 563.919C1735.44 563.376 1735.94 562.997 1736.24 562.782C1736.45 562.637 1737.09 562.218 1738.16 561.524L1737.13 560.104C1736.81 559.647 1736.62 559.301 1736.58 559.064C1736.54 558.82 1736.67 558.592 1736.97 558.377ZM1740.64 571.756C1740.91 572.131 1740.83 572.469 1740.41 572.771C1740.19 572.927 1739.97 572.963 1739.77 572.878C1739.56 572.801 1739.39 572.652 1739.23 572.432C1739.18 572.367 1739.14 572.295 1739.09 572.216C1739.05 572.137 1739 572.054 1738.95 571.966C1738.82 571.693 1738.68 571.459 1738.54 571.263C1738.44 571.125 1738.28 570.929 1738.05 570.675C1737.81 570.405 1737.63 570.192 1737.52 570.038C1737.37 569.818 1737.27 569.593 1737.23 569.364C1737.2 569.129 1737.28 568.939 1737.48 568.794C1737.77 568.591 1738.03 568.567 1738.26 568.72C1738.5 568.868 1738.76 569.134 1739.03 569.517L1739.31 569.929C1739.43 570.136 1739.53 570.292 1739.6 570.398L1740.26 571.273L1740.64 571.756ZM1743.49 580.95C1743.33 581.08 1743.19 581.147 1743.08 581.15C1742.98 581.148 1742.84 581.099 1742.66 581.005C1742.4 580.861 1742.15 580.649 1741.9 580.371C1741.66 580.101 1741.37 579.734 1741.04 579.27L1740.45 578.439C1739.93 577.714 1739.67 577.089 1739.67 576.565C1739.67 576.035 1739.82 575.6 1740.1 575.261C1740.39 574.922 1740.8 574.547 1741.34 574.136C1741.53 573.995 1741.8 573.794 1742.17 573.533C1742.97 572.964 1744.08 572.273 1745.52 571.46C1745.94 571.223 1746.32 571.165 1746.66 571.288C1747.02 571.404 1747.3 571.617 1747.52 571.927C1747.7 572.179 1748 572.585 1748.43 573.144L1749.21 574.21C1749.52 574.65 1749.73 574.976 1749.85 575.189C1749.97 575.468 1750.05 575.692 1750.07 575.861C1750.1 576.024 1750.04 576.161 1749.9 576.274C1749.74 576.39 1749.54 576.45 1749.31 576.454C1749.08 576.459 1748.89 576.351 1748.73 576.131C1748.55 575.878 1748.31 575.504 1748.01 575.009C1747.7 574.513 1747.46 574.143 1747.29 573.899C1747.13 573.679 1746.98 573.488 1746.83 573.326C1746.65 573.11 1746.5 572.967 1746.39 572.898C1746.28 572.83 1746.18 572.826 1746.07 572.887C1745.12 573.43 1744.48 573.834 1744.14 574.1C1744.25 574.305 1744.37 574.501 1744.5 574.688C1744.63 574.876 1744.83 575.121 1745.1 575.423C1745.16 575.499 1745.24 575.595 1745.34 575.711C1745.43 575.828 1745.54 575.963 1745.65 576.118C1745.71 576.208 1745.8 576.356 1745.93 576.563L1746.18 576.95C1746.45 577.325 1746.45 577.608 1746.18 577.8C1746.02 577.916 1745.86 577.964 1745.7 577.944C1745.53 577.924 1745.35 577.817 1745.14 577.624C1744.86 577.355 1744.47 576.874 1743.98 576.182L1743.45 575.437C1743.34 575.282 1743.21 575.085 1743.06 574.845C1742.91 574.941 1742.7 575.088 1742.42 575.285C1742.06 575.541 1741.81 575.724 1741.67 575.837C1741.12 576.268 1741.12 576.866 1741.66 577.631C1741.85 577.892 1742.04 578.175 1742.23 578.48L1742.54 578.94C1742.69 579.152 1742.83 579.313 1742.97 579.422C1743.12 579.526 1743.26 579.631 1743.38 579.738C1743.52 579.848 1743.63 579.96 1743.71 580.074C1743.82 580.228 1743.85 580.39 1743.78 580.558C1743.73 580.721 1743.63 580.852 1743.49 580.95ZM1749.01 583.497C1749.27 583.871 1749.19 584.21 1748.77 584.511C1748.55 584.668 1748.34 584.704 1748.13 584.619C1747.93 584.542 1747.75 584.393 1747.59 584.173C1747.54 584.108 1747.5 584.036 1747.45 583.957C1747.41 583.878 1747.36 583.794 1747.31 583.707C1747.18 583.434 1747.04 583.199 1746.91 583.004C1746.81 582.865 1746.64 582.669 1746.41 582.416C1746.17 582.146 1746 581.933 1745.89 581.778C1745.73 581.558 1745.63 581.334 1745.59 581.105C1745.56 580.87 1745.64 580.68 1745.85 580.535C1746.13 580.332 1746.39 580.307 1746.62 580.461C1746.86 580.609 1747.12 580.875 1747.39 581.257L1747.67 581.669C1747.79 581.876 1747.89 582.033 1747.96 582.139L1748.62 583.013L1749.01 583.497ZM1753.17 589.341C1752.89 589.969 1752.67 590.558 1752.49 591.11C1752.34 591.665 1752.16 592.369 1751.96 593.225C1751.94 593.322 1751.9 593.397 1751.82 593.45C1751.71 593.531 1751.56 593.535 1751.39 593.463C1751.22 593.399 1751.07 593.277 1750.95 593.098C1750.77 592.845 1750.68 592.497 1750.68 592.053C1750.68 591.659 1750.76 591.25 1750.93 590.826C1751.09 590.402 1751.33 589.878 1751.63 589.256C1751.87 588.771 1752 588.485 1752.04 588.398C1751.68 588.173 1751.24 587.735 1750.73 587.082C1750.45 587.279 1750.1 587.57 1749.66 587.956C1749.2 588.353 1748.87 588.629 1748.65 588.786C1748.5 588.89 1748.33 588.904 1748.12 588.827C1747.93 588.758 1747.77 588.634 1747.64 588.455C1747.49 588.243 1747.46 588.019 1747.55 587.784C1747.69 587.507 1747.91 587.239 1748.21 586.981C1748.5 586.722 1748.87 586.436 1749.31 586.122C1749.77 585.792 1750.32 585.446 1750.95 585.085C1751.63 584.67 1752.13 584.352 1752.44 584.132C1752.69 583.952 1753.01 583.687 1753.4 583.336C1753.47 583.276 1753.59 583.174 1753.76 583.03C1753.92 582.886 1754.08 582.762 1754.23 582.657C1754.34 582.576 1754.47 582.547 1754.61 582.571C1754.76 582.597 1754.89 582.647 1754.99 582.721C1755.57 583.306 1756.08 583.911 1756.52 584.539C1757.28 585.606 1757.71 586.632 1757.81 587.616C1757.91 588.601 1757.56 589.384 1756.74 589.964C1756.49 590.143 1756.2 590.26 1755.89 590.315C1755.58 590.371 1755.29 590.361 1755 590.284C1754.26 590.06 1753.65 589.745 1753.17 589.341ZM1755.87 588.655C1756.26 588.376 1756.43 587.942 1756.37 587.353C1756.33 586.758 1756.04 586.077 1755.49 585.311C1755.25 584.969 1754.97 584.66 1754.65 584.384L1754.03 584.84C1753.67 585.096 1753.32 585.333 1752.96 585.552C1752.6 585.771 1752.22 586.02 1751.83 586.299C1751.96 586.414 1752.09 586.546 1752.2 586.695C1752.33 586.838 1752.42 586.931 1752.46 586.974C1752.75 587.309 1752.98 587.557 1753.17 587.718C1753.55 588.003 1753.86 588.232 1754.12 588.405C1754.39 588.579 1754.69 588.708 1755 588.789C1755.33 588.874 1755.62 588.829 1755.87 588.655ZM1757.75 595.774C1758.02 596.149 1757.94 596.487 1757.51 596.789C1757.3 596.946 1757.08 596.981 1756.87 596.896C1756.67 596.819 1756.49 596.671 1756.33 596.451C1756.29 596.386 1756.24 596.313 1756.2 596.234C1756.16 596.155 1756.11 596.072 1756.06 595.985C1755.93 595.711 1755.79 595.477 1755.65 595.282C1755.55 595.143 1755.39 594.947 1755.16 594.693C1754.92 594.423 1754.74 594.211 1754.63 594.056C1754.47 593.836 1754.37 593.612 1754.33 593.383C1754.3 593.148 1754.39 592.958 1754.59 592.813C1754.88 592.61 1755.13 592.585 1755.37 592.739C1755.61 592.887 1755.86 593.152 1756.14 593.535L1756.41 593.947C1756.53 594.154 1756.63 594.31 1756.71 594.416L1757.37 595.291L1757.75 595.774ZM1766.36 600.183C1766.6 600.015 1766.84 599.923 1767.08 599.907C1767.34 599.893 1767.55 599.996 1767.71 600.216C1767.84 600.404 1767.92 600.597 1767.96 600.796C1767.99 600.994 1767.92 601.155 1767.75 601.277C1767.41 601.514 1766.93 601.832 1766.31 602.228C1765.7 602.614 1765.25 602.908 1764.96 603.111C1764.52 603.43 1763.93 603.872 1763.2 604.439C1762.51 604.982 1762 605.372 1761.66 605.61C1761.39 605.802 1761.19 605.94 1761.05 606.024C1760.92 606.117 1760.74 606.137 1760.51 606.083C1760.29 606.031 1760.07 605.859 1759.86 605.566C1759.75 605.411 1759.68 605.259 1759.65 605.11C1759.63 604.964 1759.64 604.847 1759.67 604.76C1759.87 604.046 1760.26 602.926 1760.85 601.398C1761.51 599.688 1761.99 598.337 1762.28 597.346C1761.74 597.829 1761.04 598.372 1760.2 598.975C1759.82 599.242 1759.33 599.582 1758.71 599.995C1758.11 600.41 1757.71 600.672 1757.5 600.781C1757.24 600.917 1757.01 600.974 1756.8 600.953C1756.6 600.934 1756.42 600.807 1756.25 600.57C1756.12 600.391 1756.07 600.222 1756.11 600.063C1756.16 599.906 1756.3 599.729 1756.54 599.533C1756.87 599.287 1757.39 598.951 1758.09 598.524C1758.2 598.457 1758.39 598.338 1758.66 598.169C1758.94 598 1759.17 597.842 1759.38 597.697C1759.94 597.297 1760.56 596.81 1761.25 596.237C1762.01 595.62 1762.58 595.175 1762.97 594.902C1763.16 594.763 1763.36 594.725 1763.57 594.788C1763.78 594.859 1763.95 594.988 1764.08 595.176C1764.2 595.338 1764.28 595.538 1764.33 595.776C1763.94 597.103 1763.31 598.986 1762.42 601.424L1761.48 603.826C1761.61 603.741 1761.8 603.615 1762.04 603.447C1762.45 603.151 1762.89 602.824 1763.36 602.465C1763.83 602.106 1764.15 601.862 1764.31 601.732C1765.07 601.129 1765.76 600.612 1766.36 600.183Z" fill="#666666"/>
</svg>
