<svg width="1330" height="1328" viewBox="0 0 1330 1328" fill="none" xmlns="http://www.w3.org/2000/svg">
<path d="M516.314 954C494.714 888.8 629.647 815.167 699.814 786.5L608.314 910L628.314 1012L522.814 1122.5C529.648 1093.5 537.914 1019.2 516.314 954Z" fill="#666666" stroke="black"/>
<path d="M783 754L837.5 613L973.5 806L783 754Z" fill="#666666"/>
<path d="M450.5 600L475.5 479.5L546.5 649L507 754L357 630L450.5 600Z" fill="#666666"/>
<path d="M627.5 609L630.5 586L674.5 718L616.5 614L627.5 609Z" fill="#666666"/>
<path d="M620 327.5L779.5 205L762.5 626.5L691 690.5L620 327.5Z" fill="#666666"/>
</svg>
