<svg width="2282" height="1328" viewBox="0 0 2282 1328" fill="none" xmlns="http://www.w3.org/2000/svg">
<path d="M987.314 954C965.714 888.8 1100.65 815.167 1170.81 786.5L1079.31 910L1099.31 1012L993.814 1122.5C1000.65 1093.5 1008.91 1019.2 987.314 954Z" fill="#666666"/>
<path d="M1254 754L1308.5 613L1444.5 806L1254 754Z" fill="#666666"/>
<path d="M921.5 600L946.5 479.5L1017.5 649L978 754L828 630L921.5 600Z" fill="#666666"/>
<path d="M1227.32 780.926L1249.95 775.816L1141.2 862.607L1187.16 798.141L1227.32 780.926Z" fill="#666666"/>
<path d="M1784.09 874.97L1764.96 827.026L1711.1 856.822L1660.11 906.744L1784.09 874.97Z" fill="#666666"/>
<path d="M614.325 787.926L574.16 755.5L557.5 822.5L574.16 787.926L614.325 787.926Z" fill="#666666"/>
<path d="M1580.16 725.285L1602.79 720.176L1494.04 806.966L1540 742.5L1580.16 725.285Z" fill="#666666"/>
<path d="M1277.61 978.456L1358 978.456L1265 1048.5L1213 1015L1222 978.456L1277.61 978.456Z" fill="#666666"/>
<path d="M903.519 936.541L881 889L959.221 902L921.284 930.991L903.519 936.541Z" fill="#666666"/>
<path d="M1098.5 609L1101.5 586L1145.5 718L1087.5 614L1098.5 609Z" fill="#666666"/>
<path d="M1091 327.5L1250.5 205L1233.5 626.5L1162 690.5L1091 327.5Z" fill="#666666"/>
<path d="M673.5 644L565 480L831 687L757.5 827L966.5 1002L608 871.5L673.5 644Z" fill="#666666"/>
<path d="M1524.5 990.5L1317 884L1447 900.5L1717 781.5L1524.5 990.5Z" fill="#666666"/>
<path d="M1613.74 439.026L1493.43 453.064L1478.33 647.854L1790.89 674.472L1677.29 517.984L1632.28 538.82L1613.74 439.026Z" fill="#666666"/>
<path d="M330.69 841.345L397.5 890.692L574.637 890.692L484.718 841.345L484.718 590.165L380.824 753.255L416.721 787.484L330.69 841.345Z" fill="#666666"/>
<path d="M887.403 1019.35L705.589 953.498L665.577 950.92L693.191 979.428L680.008 995.994L887.403 1019.35Z" fill="#666666"/>
<path d="M1777.66 790.608L1813.56 824.836L1881.56 627.518L1777.66 790.608Z" fill="#666666"/>
<path d="M930.5 888C935.222 888.33 940.117 888.064 944.868 887.382C984.9 883.308 1014.55 841.938 1013.95 802.173C1014.14 797.715 1014.5 793.536 1015.08 789.294C1017.59 768.833 1027.11 750.445 1042.49 736.164C1057.03 722.603 1078.25 704.986 1074.42 681.658C1073.95 676.73 1072.92 672.233 1071.5 667.5C1072.28 672.381 1072.66 676.93 1072.52 681.717C1072.98 704.271 1053.57 716.53 1037.1 730.286C1019.96 744.051 1007.7 765.702 1005.18 787.92C1004.54 792.544 1004.19 797.058 1004.05 801.827C1004.49 838.732 982.552 875.969 944.481 885.522C939.96 886.767 935.219 887.662 930.5 888Z" fill="#666666"/>
<path d="M1324.93 814.945C1321.89 813.641 1318.31 813.674 1314.97 813.991C1300.72 815.825 1287.29 822.414 1276.19 832.15C1265.27 841.049 1256.18 860.105 1265.94 874.995C1266.86 876.564 1267.53 877.794 1268.21 879.234C1269.64 881.981 1270.17 885.491 1269.85 885.549C1269.83 885.605 1269.85 885.638 1269.64 885.804C1269.45 885.958 1269.05 886.176 1268.51 886.358C1267.45 886.728 1265.88 886.962 1264.3 887.06C1257.68 887.4 1250.24 886.418 1242.91 885.717C1228.59 884.975 1211.25 880.338 1198.48 891.531C1196.15 894.306 1195.42 897.836 1195.63 901.206C1196.08 897.836 1197.47 894.794 1199.83 892.862C1211.8 885.444 1227.54 891.415 1241.75 893.608C1249.08 894.961 1256.31 896.554 1264.66 896.547C1266.73 896.501 1268.97 896.344 1271.4 895.634C1273.82 894.931 1277 893.314 1278.69 889.959C1281.51 882.986 1278.7 878.697 1277.26 874.984C1276.38 873.136 1275.58 871.683 1274.51 869.888C1261.69 848.617 1291.22 824.053 1315.33 815.857C1318.41 814.987 1321.72 814.297 1324.93 814.945Z" fill="#666666"/>
<path d="M1254.5 471.563C1253.51 474.688 1253.86 478.143 1254.45 481.366C1257.42 495.05 1264.76 507.645 1274.49 517.722C1283.75 527.734 1300.02 534.741 1312.62 526.307C1314.29 525.305 1315.61 524.57 1317.23 523.791C1320.4 522.33 1324.25 520.75 1327.43 522.174C1330.56 523.771 1331.09 527.988 1331.29 531.518C1331.53 538.916 1330.32 546.263 1329.38 553.599C1328.08 567.882 1322.96 584.534 1332.53 596.882C1334.95 599.207 1338.26 600.21 1341.63 600.283C1338.26 600.144 1334.99 599.074 1332.67 596.745C1323.47 584.476 1328.73 567.983 1330.17 553.709C1331.18 546.374 1332.45 539.047 1332.24 531.476C1332.01 527.882 1331.67 523.347 1327.87 521.288C1323.99 519.618 1320.07 521.426 1316.8 522.888C1315.14 523.687 1313.79 524.436 1312.11 525.454C1300 533.57 1284.36 526.999 1275.04 517.175C1265.32 507.311 1257.84 494.89 1254.64 481.329C1254 478.132 1253.58 474.705 1254.5 471.563Z" fill="#666666"/>
<path d="M788.5 587.5C613 648.333 372.7 760.2 815.5 721C837.005 719.096 856.979 717.092 875.5 714.997M1008.5 522.5C756.1 499.3 826.333 540.5 893 564C1043.96 598.251 1238.34 673.962 875.5 714.997M875.5 714.997C909.167 734.998 979.6 767.7 992 738.5C1004.4 709.3 961.167 718.667 938 727" stroke="#666666" stroke-width="10" stroke-linecap="round"/>
<path d="M844 714L851 719.6L845.4 721L844 714Z" fill="#666666" stroke="#666666" stroke-width="3" stroke-linecap="round"/>
<path d="M949.564 751.993L944.942 744.313L950.68 744.942L949.564 751.993Z" fill="#666666" stroke="#666666" stroke-width="3" stroke-linecap="round"/>
<path d="M750.518 591.541L760.279 597.67L753.33 600.278L750.518 591.541Z" fill="#666666" stroke="#666666" stroke-width="3" stroke-linecap="round"/>
<path d="M778.926 595.298L774.697 592.974L777.083 591.394L778.926 595.298Z" fill="#666666" stroke="#666666" stroke-width="3" stroke-linecap="round"/>
<path d="M624.467 732.094L620.238 729.77L622.624 728.19L624.467 732.094Z" fill="#666666" stroke="#666666" stroke-width="3" stroke-linecap="round"/>
<path d="M651.613 633.508L661.795 634.194L657.334 639.099L651.613 633.508Z" fill="#666666" stroke="#666666" stroke-width="3" stroke-linecap="round"/>
<rect x="1395.39" y="617.444" width="3.78179" height="15.4226" rx="1.89089" transform="rotate(167.747 1395.39 617.444)" fill="#666666"/>
<path d="M1390.88 611.712C1386.23 612.723 1381.63 609.768 1380.62 605.112C1380.6 605.035 1380.59 604.957 1380.58 604.88L1400.02 600.656C1400.04 600.732 1400.06 600.809 1400.08 600.886C1401.09 605.542 1398.14 610.136 1393.48 611.147L1390.88 611.712Z" fill="#666666"/>
<rect x="1401.41" y="603.681" width="21.3317" height="1.29999" rx="0.649995" transform="rotate(167.747 1401.41 603.681)" fill="#666666"/>
<rect x="1398.24" y="610.779" width="12.1726" height="1.35908" rx="0.67954" transform="rotate(167.747 1398.24 610.779)" fill="#666666"/>
<path d="M1394.61 622.631C1392.17 623.161 1389.77 621.612 1389.24 619.173C1388.71 616.733 1390.26 614.326 1392.69 613.796C1395.13 613.266 1397.54 614.815 1398.07 617.254C1398.6 619.694 1397.05 622.101 1394.61 622.631ZM1394.3 621.308C1396.02 620.934 1397.11 619.235 1396.74 617.513C1396.36 615.791 1394.66 614.698 1392.94 615.072C1391.22 615.446 1390.13 617.146 1390.5 618.868C1390.87 620.59 1392.57 621.682 1394.3 621.308Z" fill="#666666"/>
<path d="M1386.15 595.165L1384.71 595.478L1384.08 589.032L1385.53 588.718L1386.15 595.165Z" fill="#666666"/>
<path d="M1387.28 603.757L1385.84 604.07L1384.64 601.107L1386.08 600.794L1387.28 603.757Z" fill="#666666"/>
<path d="M1381.79 592.619L1380.35 592.933L1380.96 589.708L1382.41 589.395L1381.79 592.619Z" fill="#666666"/>
<path d="M1393.46 602.415L1394.9 602.101L1390.26 587.69L1388.82 588.004L1393.46 602.415Z" fill="#666666"/>
<path d="M1398.3 601.332L1399.75 601.018L1393.38 587.012L1391.94 587.326L1398.3 601.332Z" fill="#666666"/>
<path d="M1393.38 587.013L1380.96 589.709L1380.89 588.244L1392.74 585.609L1393.38 587.013Z" fill="#666666"/>
<rect x="569.596" y="490.316" width="6.20499" height="25.3047" rx="3.10249" transform="rotate(19.0223 569.596 490.316)" fill="#666666"/>
<path d="M571.039 502.197C578.429 504.745 582.354 512.802 579.806 520.193C579.764 520.315 579.72 520.437 579.675 520.558L548.797 509.912C548.835 509.789 548.875 509.666 548.918 509.543C551.466 502.153 559.523 498.227 566.914 500.775L571.039 502.197Z" fill="#666666"/>
<rect x="549.428" y="504.489" width="35" height="2.13296" rx="1.06648" transform="rotate(19.0223 549.428 504.489)" fill="#666666"/>
<rect x="559.928" y="497.238" width="19.9723" height="2.22992" rx="1.11496" transform="rotate(19.0223 559.928 497.238)" fill="#666666"/>
<path d="M575.104 483.704C578.976 485.039 581.033 489.261 579.698 493.133C578.363 497.006 574.141 499.063 570.269 497.728C566.396 496.392 564.339 492.171 565.674 488.298C567.009 484.426 571.231 482.369 575.104 483.704ZM574.424 485.828C571.69 484.886 568.71 486.338 567.768 489.072C566.826 491.805 568.278 494.785 571.011 495.727C573.745 496.67 576.724 495.218 577.667 492.484C578.609 489.751 577.157 486.771 574.424 485.828Z" fill="#666666"/>
<path d="M569.311 516.421L571.602 517.211L561.253 539.794L558.961 539.004L569.311 516.421Z" fill="#666666"/>
<path d="M576.996 519.122L579.288 519.912L566.204 541.501L563.913 540.711L576.996 519.122Z" fill="#666666"/>
<path d="M559.505 513.04L557.214 512.25L551.447 536.413L553.739 537.203L559.505 513.04Z" fill="#666666"/>
<path d="M551.789 510.431L549.497 509.641L546.496 534.706L548.788 535.496L551.789 510.431Z" fill="#666666"/>
<path d="M546.496 534.706L566.203 541.5L565.062 543.619L546.194 537.217L546.496 534.706Z" fill="#666666"/>
<rect x="1246.89" y="809.325" width="1.05602" height="4.30656" rx="0.528008" transform="rotate(169.236 1246.89 809.325)" fill="#666666"/>
<path d="M1245.67 807.692C1244.36 807.94 1243.1 807.082 1242.85 805.775C1242.85 805.754 1242.85 805.732 1242.84 805.71L1248.3 804.673C1248.31 804.694 1248.31 804.715 1248.32 804.737C1248.56 806.044 1247.71 807.305 1246.4 807.553L1245.67 807.692Z" fill="#666666"/>
<rect x="1248.67" y="805.527" width="5.95659" height="0.363005" rx="0.181503" transform="rotate(169.236 1248.67 805.527)" fill="#666666"/>
<rect x="1247.73" y="807.485" width="3.39905" height="0.379506" rx="0.189753" transform="rotate(169.236 1247.73 807.485)" fill="#666666"/>
<path d="M1246.63 810.767C1245.95 810.897 1245.29 810.448 1245.16 809.763C1245.03 809.078 1245.48 808.417 1246.16 808.287C1246.85 808.157 1247.51 808.607 1247.64 809.292C1247.77 809.977 1247.32 810.637 1246.63 810.767ZM1246.55 810.396C1247.04 810.304 1247.35 809.837 1247.26 809.354C1247.17 808.871 1246.7 808.554 1246.22 808.645C1245.74 808.737 1245.42 809.203 1245.51 809.687C1245.6 810.17 1246.07 810.488 1246.55 810.396Z" fill="#666666"/>
<path d="M1244.72 805.446L1244.32 805.523L1243.94 801.313L1244.34 801.236L1244.72 805.446Z" fill="#666666"/>
<path d="M1243.36 805.697L1242.96 805.774L1243.06 801.479L1243.47 801.402L1243.36 805.697Z" fill="#666666"/>
<path d="M1246.46 805.116L1246.86 805.039L1245.67 800.983L1245.27 801.06L1246.46 805.116Z" fill="#666666"/>
<path d="M1247.82 804.849L1248.22 804.772L1246.55 800.816L1246.14 800.893L1247.82 804.849Z" fill="#666666"/>
<path d="M1246.55 800.816L1243.06 801.479L1243.05 801.069L1246.38 800.42L1246.55 800.816Z" fill="#666666"/>
<rect x="1354.06" y="794.92" width="1.05602" height="4.30656" rx="0.528008" transform="rotate(44.1665 1354.06 794.92)" fill="#666666"/>
<path d="M1353.43 796.856C1354.38 797.783 1354.4 799.308 1353.48 800.263C1353.46 800.278 1353.44 800.292 1353.43 800.307L1349.44 796.437C1349.46 796.421 1349.47 796.404 1349.49 796.388C1350.41 795.434 1351.94 795.411 1352.89 796.338L1353.43 796.856Z" fill="#666666"/>
<rect x="1349.93" y="795.645" width="5.95659" height="0.363005" rx="0.181503" transform="rotate(44.1665 1349.93 795.645)" fill="#666666"/>
<rect x="1352.07" y="795.287" width="3.39905" height="0.379506" rx="0.189753" transform="rotate(44.1665 1352.07 795.287)" fill="#666666"/>
<path d="M1355.39 794.3C1355.89 794.786 1355.9 795.585 1355.42 796.085C1354.93 796.585 1354.13 796.597 1353.63 796.111C1353.13 795.625 1353.12 794.826 1353.61 794.326C1354.09 793.826 1354.89 793.814 1355.39 794.3ZM1355.13 794.578C1354.78 794.235 1354.22 794.244 1353.87 794.597C1353.53 794.95 1353.54 795.514 1353.89 795.856C1354.24 796.199 1354.81 796.191 1355.15 795.838C1355.49 795.485 1355.49 794.921 1355.13 794.578Z" fill="#666666"/>
<path d="M1352.13 798.92L1352.43 799.208L1349.2 801.938L1348.91 801.651L1352.13 798.92Z" fill="#666666"/>
<path d="M1353.12 799.893L1353.42 800.18L1349.84 802.56L1349.54 802.273L1353.12 799.893Z" fill="#666666"/>
<path d="M1350.87 797.691L1350.57 797.404L1347.93 800.709L1348.23 800.997L1350.87 797.691Z" fill="#666666"/>
<path d="M1349.87 796.731L1349.57 796.444L1347.3 800.088L1347.59 800.376L1349.87 796.731Z" fill="#666666"/>
<path d="M1347.29 800.088L1349.84 802.56L1349.51 802.804L1347.07 800.453L1347.29 800.088Z" fill="#666666"/>
<rect x="1235.32" y="620.289" width="1.05602" height="5.15492" rx="0.528008" transform="rotate(18.8228 1235.32 620.289)" fill="#666666"/>
<path d="M1235.11 622.533C1236.56 623.028 1237.34 624.608 1236.84 626.061L1236.78 626.234L1231.52 624.44L1231.58 624.267C1232.07 622.814 1233.65 622.037 1235.11 622.533Z" fill="#666666"/>
<rect x="1231.68" y="623.347" width="5.95659" height="0.434514" rx="0.217257" transform="rotate(18.8228 1231.68 623.347)" fill="#666666"/>
<rect x="1233.58" y="621.78" width="3.39905" height="0.454265" rx="0.227132" transform="rotate(18.8228 1233.58 621.78)" fill="#666666"/>
<path d="M1236.34 618.904C1237 619.129 1237.32 619.952 1237.05 620.742C1236.78 621.531 1236.03 621.989 1235.37 621.764C1234.71 621.539 1234.39 620.717 1234.66 619.927C1234.93 619.137 1235.68 618.679 1236.34 618.904ZM1236.2 619.338C1235.74 619.179 1235.21 619.502 1235.02 620.059C1234.83 620.617 1235.05 621.198 1235.52 621.356C1235.98 621.515 1236.51 621.192 1236.7 620.634C1236.89 620.077 1236.67 619.497 1236.2 619.338Z" fill="#666666"/>
<path d="M1235.02 625.518L1235.41 625.651L1233.39 630.285L1233 630.152L1235.02 625.518Z" fill="#666666"/>
<path d="M1236.33 625.973L1236.72 626.107L1234.24 630.571L1233.85 630.438L1236.33 625.973Z" fill="#666666"/>
<path d="M1233.35 624.948L1232.96 624.815L1231.72 629.715L1232.12 629.848L1233.35 624.948Z" fill="#666666"/>
<path d="M1232.03 624.51L1231.64 624.377L1230.88 629.427L1231.27 629.56L1232.03 624.51Z" fill="#666666"/>
<path d="M1230.88 629.427L1234.24 630.571L1234.02 631.008L1230.8 629.933L1230.88 629.427Z" fill="#666666"/>
<rect x="1012.61" y="724.21" width="0.468126" height="1.27355" rx="0.234063" transform="rotate(44.1665 1012.61 724.21)" fill="#666666"/>
<path d="M1012.77 725.123C1013.05 725.397 1013.06 725.848 1012.78 726.13C1012.78 726.135 1012.77 726.138 1012.77 726.143L1011 724.428C1011.01 724.423 1011.01 724.417 1011.01 724.413C1011.29 724.131 1011.74 724.124 1012.02 724.397L1012.77 725.123Z" fill="#666666"/>
<rect x="1011.12" y="724.172" width="2.64052" height="0.107349" rx="0.0536744" transform="rotate(44.1665 1011.12 724.172)" fill="#666666"/>
<rect x="1011.89" y="724.198" width="1.50678" height="0.112228" rx="0.0561141" transform="rotate(44.1665 1011.89 724.198)" fill="#666666"/>
<path d="M1013.05 724.079C1013.27 724.294 1013.34 724.589 1013.19 724.737C1013.05 724.885 1012.75 724.83 1012.53 724.615C1012.31 724.4 1012.25 724.105 1012.39 723.957C1012.53 723.81 1012.83 723.864 1013.05 724.079ZM1012.98 724.163C1012.82 724.011 1012.61 723.972 1012.51 724.076C1012.41 724.181 1012.45 724.389 1012.61 724.541C1012.77 724.693 1012.97 724.731 1013.08 724.627C1013.18 724.522 1013.13 724.315 1012.98 724.163Z" fill="#666666"/>
<path d="M1012.18 725.538L1012.31 725.665L1011.32 726.43L1011.18 726.303L1012.18 725.538Z" fill="#666666"/>
<path d="M1012.62 725.968L1012.75 726.095L1011.6 726.706L1011.47 726.578L1012.62 725.968Z" fill="#666666"/>
<path d="M1011.62 724.993L1011.49 724.865L1010.76 725.885L1010.89 726.013L1011.62 724.993Z" fill="#666666"/>
<path d="M1011.18 724.566L1011.05 724.439L1010.47 725.61L1010.6 725.737L1011.18 724.566Z" fill="#666666"/>
<path d="M1010.47 725.609L1011.6 726.705L1011.49 726.77L1010.41 725.727L1010.47 725.609Z" fill="#666666"/>
<rect x="1153.02" y="675.519" width="0.795566" height="2.90442" rx="0.397783" transform="rotate(-13.6345 1153.02 675.519)" fill="#666666"/>
<path d="M1154.15 676.516C1155.02 676.304 1155.9 676.84 1156.11 677.712C1156.11 677.726 1156.11 677.741 1156.12 677.756L1152.05 678.743C1152.05 678.728 1152.04 678.714 1152.04 678.699C1151.83 677.827 1152.36 676.949 1153.23 676.737L1154.15 676.516Z" fill="#666666"/>
<rect x="1151.76" y="678.183" width="4.48749" height="0.244817" rx="0.122408" transform="rotate(-13.6345 1151.76 678.183)" fill="#666666"/>
<rect x="1152.42" y="676.808" width="2.56073" height="0.255945" rx="0.127973" transform="rotate(-13.6345 1152.42 676.808)" fill="#666666"/>
<path d="M1153.18 674.529C1153.69 674.405 1154.2 674.675 1154.31 675.132C1154.42 675.589 1154.09 676.06 1153.58 676.184C1153.07 676.308 1152.57 676.037 1152.46 675.58C1152.35 675.124 1152.67 674.653 1153.18 674.529ZM1153.25 674.777C1152.89 674.864 1152.66 675.196 1152.74 675.519C1152.82 675.841 1153.17 676.031 1153.53 675.944C1153.89 675.857 1154.12 675.525 1154.04 675.202C1153.96 674.88 1153.61 674.69 1153.25 674.777Z" fill="#666666"/>
<path d="M1154.72 678.032L1155.02 677.959L1155.38 680.79L1155.08 680.863L1154.72 678.032Z" fill="#666666"/>
<path d="M1153.42 678.346L1153.12 678.419L1154.09 681.103L1154.39 681.03L1153.42 678.346Z" fill="#666666"/>
<path d="M1152.41 678.598L1152.11 678.671L1153.44 681.262L1153.74 681.189L1152.41 678.598Z" fill="#666666"/>
<path d="M1153.44 681.262L1156.04 680.632L1156.05 680.908L1153.57 681.521L1153.44 681.262Z" fill="#666666"/>
<rect x="1169.07" y="782.936" width="0.795566" height="2.90442" rx="0.397783" transform="rotate(-24.5429 1169.07 782.936)" fill="#666666"/>
<path d="M1170.36 783.7C1171.18 783.328 1172.14 783.687 1172.52 784.504C1172.52 784.517 1172.53 784.532 1172.53 784.545L1168.73 786.284C1168.72 786.27 1168.71 786.257 1168.71 786.244C1168.33 785.428 1168.69 784.463 1169.51 784.091L1170.36 783.7Z" fill="#666666"/>
<rect x="1168.34" y="785.79" width="4.48749" height="0.244817" rx="0.122408" transform="rotate(-24.5429 1168.34 785.79)" fill="#666666"/>
<rect x="1168.73" y="784.313" width="2.56073" height="0.255945" rx="0.127973" transform="rotate(-24.5429 1168.73 784.313)" fill="#666666"/>
<path d="M1169.04 781.932C1169.52 781.714 1170.06 781.884 1170.26 782.312C1170.46 782.739 1170.23 783.263 1169.75 783.481C1169.27 783.699 1168.72 783.529 1168.53 783.102C1168.33 782.674 1168.56 782.15 1169.04 781.932ZM1169.15 782.163C1168.82 782.317 1168.65 782.686 1168.79 782.988C1168.93 783.29 1169.32 783.409 1169.65 783.255C1169.99 783.101 1170.15 782.732 1170.01 782.43C1169.88 782.129 1169.49 782.009 1169.15 782.163Z" fill="#666666"/>
<path d="M1171.21 785.083L1171.49 784.954L1172.39 787.664L1172.11 787.793L1171.21 785.083Z" fill="#666666"/>
<path d="M1170 785.635L1169.72 785.764L1171.18 788.216L1171.46 788.087L1170 785.635Z" fill="#666666"/>
<path d="M1169.05 786.074L1168.77 786.203L1170.57 788.495L1170.85 788.366L1169.05 786.074Z" fill="#666666"/>
<path d="M1170.57 788.495L1173 787.385L1173.07 787.654L1170.75 788.725L1170.57 788.495Z" fill="#666666"/>
<rect x="1102.02" y="945.318" width="3.54639" height="13.4922" rx="1.77319" transform="rotate(-143.976 1102.02 945.318)" fill="#666666"/>
<path d="M1102.54 938.596C1099.17 936.145 1098.42 931.425 1100.87 928.054C1100.91 927.998 1100.96 927.945 1101 927.891L1116.09 938.868C1116.06 938.924 1116.02 938.981 1115.98 939.036C1113.53 942.407 1108.81 943.153 1105.44 940.701L1102.54 938.596Z" fill="#666666"/>
<rect x="1114.96" y="941.562" width="20.0039" height="1.13727" rx="0.568635" transform="rotate(-143.976 1114.96 941.562)" fill="#666666"/>
<rect x="1108.25" y="943.451" width="11.4149" height="1.18896" rx="0.594482" transform="rotate(-143.976 1108.25 943.451)" fill="#666666"/>
<path d="M1098.08 947.761C1096.19 946.384 1095.69 943.835 1096.98 942.069C1098.26 940.302 1100.84 939.987 1102.73 941.364C1104.63 942.741 1105.12 945.289 1103.84 947.055C1102.55 948.822 1099.97 949.138 1098.08 947.761ZM1098.76 946.782C1100.09 947.754 1101.91 947.53 1102.82 946.283C1103.72 945.037 1103.38 943.238 1102.04 942.266C1100.7 941.294 1098.88 941.517 1097.98 942.764C1097.07 944.011 1097.42 945.81 1098.76 946.782Z" fill="#666666"/>
<path d="M1105.98 931.867L1104.86 931.052L1113.74 921.206L1114.86 922.02L1105.98 931.867Z" fill="#666666"/>
<path d="M1102.23 929.108L1101.11 928.293L1111.31 919.445L1112.43 920.26L1102.23 929.108Z" fill="#666666"/>
<path d="M1110.77 935.353L1111.9 936.168L1118.53 924.692L1117.41 923.877L1110.77 935.353Z" fill="#666666"/>
<path d="M1114.55 938.071L1115.68 938.885L1120.95 926.453L1119.83 925.638L1114.55 938.071Z" fill="#666666"/>
<path d="M1120.95 926.449L1111.31 919.443L1112.24 918.549L1121.48 925.204L1120.95 926.449Z" fill="#666666"/>
<rect x="1099.99" y="764.894" width="3.31234" height="15.0837" rx="1.65617" transform="rotate(-17.7819 1099.99 764.894)" fill="#666666"/>
<path d="M1103.77 770.418C1108.21 768.995 1112.96 771.439 1114.38 775.876C1114.41 775.949 1114.43 776.024 1114.45 776.097L1097.85 781.42C1097.83 781.348 1097.8 781.276 1097.78 781.202C1096.35 776.765 1098.8 772.014 1103.23 770.591L1103.77 770.418Z" fill="#666666"/>
<rect x="1096.28" y="778.586" width="18.6837" height="1.27143" rx="0.635713" transform="rotate(-17.7819 1096.28 778.586)" fill="#666666"/>
<rect x="1098.26" y="771.52" width="10.6616" height="1.32922" rx="0.664609" transform="rotate(-17.7819 1098.26 771.52)" fill="#666666"/>
<path d="M1100.08 759.828C1102.16 759.16 1104.45 760.504 1105.2 762.829C1105.94 765.154 1104.86 767.581 1102.78 768.248C1100.7 768.916 1098.4 767.572 1097.66 765.248C1096.91 762.923 1097.99 760.496 1100.08 759.828ZM1100.51 761.087C1099.04 761.558 1098.27 763.271 1098.8 764.912C1099.33 766.553 1100.94 767.501 1102.41 767.03C1103.88 766.558 1104.65 764.846 1104.12 763.205C1103.6 761.564 1101.98 760.615 1100.51 761.087Z" fill="#666666"/>
<path d="M1108.69 777.611L1109.92 777.216L1113.19 791.644L1111.96 792.039L1108.69 777.611Z" fill="#666666"/>
<path d="M1102.87 778.62L1104.18 778.198L1107.87 794.201L1106.55 794.623L1102.87 778.62Z" fill="#666666"/>
<path d="M1112.84 776.31L1114.07 775.915L1115.85 790.79L1114.62 791.185L1112.84 776.31Z" fill="#666666"/>
<path d="M1103.93 778.994L1102.18 779.697C1102.18 779.697 1106.88 782.729 1107.41 784.598C1107.94 786.467 1107.67 793.408 1107.67 793.408L1109.27 793.139C1109.27 793.139 1109.53 785.135 1108.73 783.532C1107.93 781.93 1103.93 778.994 1103.93 778.994Z" fill="#666666"/>
<path d="M1099.28 780.657L1098.05 781.053L1105.25 794.189L1106.49 793.794L1099.28 780.657Z" fill="#666666"/>
<path d="M1105.26 794.188L1115.85 790.79L1116.09 792.202L1105.98 795.505L1105.26 794.188Z" fill="#666666"/>
<path d="M1477 773.5C986 745.334 507.5 776.5 842 825C1176.5 873.5 2298.2 816.2 1225 729" stroke="#666666" stroke-width="3" stroke-linecap="round"/>
<path d="M1368.62 834.217C1044.62 817.623 728.868 835.984 949.597 864.558C1170.33 893.131 1910.51 859.373 1202.33 808" stroke="#666666" stroke-width="3" stroke-linecap="round"/>
<path d="M1940.05 792.496L1881.61 691.76L2206.14 756.245L2003.66 800.642L2025.09 771.397L1940.05 792.496Z" fill="#666666"/>
<path d="M106.077 889.58L111.538 891.787C143.157 899.892 283.506 896.739 354.889 893.899L421.454 965.802L328.826 979.59L111.538 891.787C108.967 891.128 107.115 890.394 106.077 889.58Z" fill="#666666"/>
</svg>
